<?xml version="1.0" standalone="no"?>
<!DOCTYPE svg PUBLIC "-//W3C//DTD SVG 1.1//EN" "http://www.w3.org/Graphics/SVG/1.1/DTD/svg11.dtd" >
<svg>
<metadata>
Created by FontForge 20090914 at Wed Aug 23 19:48:27 2017
 By www-data
2013 Iconian Fonts - www.iconian.com
</metadata>
<defs>
<font id="Airstrike" horiz-adv-x="755" >
  <font-face 
    font-family="Airstrike"
    font-weight="400"
    font-stretch="normal"
    units-per-em="1000"
    panose-1="0 0 0 0 0 0 0 0 0 0"
    ascent="800"
    descent="-200"
    x-height="530"
    cap-height="530.002"
    bbox="-155 -142 1324 723"
    underline-thickness="50"
    underline-position="-75"
    unicode-range="U+0020-U+20AC"
  />
<missing-glyph horiz-adv-x="500" 
 />
    <glyph glyph-name=".notdef" horiz-adv-x="500" 
 />
    <glyph glyph-name="space" unicode=" " horiz-adv-x="279" 
 />
    <glyph glyph-name="space" unicode="&#xa0;" horiz-adv-x="279" 
 />
    <glyph glyph-name="FL0021h" unicode="!" horiz-adv-x="248" 
d="M90 171h192l131 359h-192zM71 70c-2.66699 -5.33301 -4.00293 -13 -4.00293 -23c0 -14 4.83301 -25.333 14.5 -34s23.167 -13 40.5 -13c10.667 -0 21.334 1.83301 32.001 5.5s20.334 8.5 29.001 14.5c14 10 25 22 33 36s12 26.667 12 38
c0 13.333 -4.83301 24.5 -14.5 33.5s-23.167 13.5 -40.5 13.5c-21.333 0 -41.666 -7 -60.999 -21s-33 -30.667 -41 -50z" />
    <glyph glyph-name="FL0022h" unicode="&#x22;" horiz-adv-x="326" 
d="M330 430l12.999 37.001c6.66699 17.333 18.167 32.333 34.5 45s33.166 19 50.499 19c14 0 24.833 -3.83301 32.5 -11.5s11.5 -17.5 11.5 -29.5c0 -10 -1.33301 -17.667 -4 -23l-13 -37c-3.33301 -8.66699 -9.16602 -18.167 -17.499 -28.5s-17.166 -20 -26.499 -29
s-18.666 -16.667 -27.999 -23s-16.333 -9.5 -21 -9.5h-8c-10.667 0 -17.834 6 -21.501 18s-5.5 24.667 -5.5 38s1 24.666 3 33.999zM184.999 430.001l12.999 37.001c6.66699 17.333 18.167 32.333 34.5 45s33.166 19 50.499 19c14 0 24.833 -3.83301 32.5 -11.5
s11.5 -17.5 11.5 -29.5c0 -10 -1.33301 -17.667 -4 -23l-13 -37c-3.33301 -8.66699 -9.16602 -18.167 -17.499 -28.5s-17.166 -20 -26.499 -29s-18.666 -16.667 -27.999 -23s-16.333 -9.5 -21 -9.5h-8c-10.667 0 -17.834 6 -21.501 18s-5.5 24.667 -5.5 38
s1 24.666 3 33.999z" />
    <glyph glyph-name="FL0023h" unicode="#" horiz-adv-x="747" 
d="M144 0l37 102h-126l143 135h32l19 52h-126l143 135h32l39 106h192l-39 -106h77l39 106h192l-39 -106h124l-143 -135h-30l-19 -52h124l-143 -135h-30l-37 -102h-192l37 102h-77l-37 -102h-192zM518 289h-77l-19 -52h77z" />
    <glyph glyph-name="FL0024h" unicode="$" horiz-adv-x="660" 
d="M220 -141l51.002 141.002h-232c3.33301 6.66699 10.166 17.334 20.499 32.001s21.333 29.5 33 44.5s22.5 28.333 32.5 40s16 17.5 18 17.5h177l23 65h-120c-14.667 0 -26.334 2.66699 -35.001 8s-15.334 12.333 -20.001 21s-7.66699 18.834 -9 30.501
s-2 23.834 -2 36.501v58c0 16 4.66699 34.167 14 54.5s21.5 39.666 36.5 57.999s31.833 33.666 50.5 45.999s37.334 18.5 56.001 18.5h150l50 139h126l-50 -139h234c-15.333 -22.667 -32.833 -45.334 -52.5 -68.001s-41.5 -45.334 -65.5 -68.001h-166l-23 -65h52
c21.333 0 39.666 -5.16699 54.999 -15.5s27.833 -23.333 37.5 -39s16.834 -32.5 21.501 -50.5s7 -34.667 7 -50v-6c0 -17.333 -4 -35.833 -12 -55.5s-18.5 -37.834 -31.5 -54.501s-28 -30.5 -45 -41.5s-34.5 -16.5 -52.5 -16.5h-152l-51 -141h-126zM414.002 394.002
l-38.001 -0.000976562c-7.33301 0 -13.666 -5 -18.999 -15s-8 -18 -8 -24v-5c0 -0.666992 1.33301 -2.16699 4 -4.5s4.66699 -4.16602 6 -5.49902c2.66699 -2.66699 6.5 -5.16699 11.5 -7.5s7.83301 -3.5 8.5 -3.5h12zM503.001 174.001c0 5.33301 -1 10.833 -3 16.5
s-5.66699 8.5 -11 8.5h-20l-23 -65h37c10 0 15.833 3 17.5 9s2.5 12.333 2.5 19v12z" />
    <glyph glyph-name="FL0025h" unicode="%" horiz-adv-x="788" 
d="M85 0h171l643 530h-173zM511 408c4 22 3.83203 40.667 -0.500977 56s-11.833 28 -22.5 38s-24.334 17.167 -41.001 21.5s-35 6.5 -55 6.5h-66c-15.333 0 -30.666 -3.5 -45.999 -10.5s-29.833 -16.167 -43.5 -27.5s-25.667 -24.166 -36 -38.499
s-18.166 -28.833 -23.499 -43.5c-3.33301 -8 -5.33301 -16 -6 -24c-3.33301 -24 -2.5 -43.833 2.5 -59.5s13.333 -28 25 -37s26 -15.333 43 -19s35.5 -5.5 55.5 -5.5h50c17.333 0 34.333 3.5 51 10.5s32 16.167 46 27.5s26.333 24.166 37 38.499s18.667 28.833 24 43.5l4 11
c1.33301 5.33301 2 9.33301 2 12zM280.999 397l6.00098 15.999c5.33301 9.33301 12.833 18 22.5 26s18.834 12 27.501 12h30c12 0 20.333 -3.16699 25 -9.5s7 -14.166 7 -23.499c0 -8 -0.333008 -13 -1 -15l-3 -7c-0.666992 -2 -1.33398 -3.66699 -2.00098 -5l-2 -4
c-2.66699 -4.66699 -6.33398 -9.33398 -11.001 -14.001s-9.5 -8.66699 -14.5 -12s-9.83301 -6.16602 -14.5 -8.49902s-8.33398 -3.5 -11.001 -3.5h-26c-9.33301 0 -17.666 5.5 -24.999 16.5s-10 21.5 -8 31.5zM815 142.999c7.33301 44 -0.670898 75.333 -24.0039 94
s-55.333 28 -96 28h-66c-15.333 0 -30.666 -3.5 -45.999 -10.5s-29.666 -16.167 -42.999 -27.5s-25.166 -24.166 -35.499 -38.499s-18.166 -28.833 -23.499 -43.5c-3.33301 -8 -5.33301 -16 -6 -24c-3.33301 -24 -2.5 -43.833 2.5 -59.5s13.333 -28 25 -37
s26 -15.333 43 -19s35.5 -5.5 55.5 -5.5h50c17.333 0 34.333 3.5 51 10.5s32 16.167 46 27.5s26.333 24.166 37 38.499s18.667 28.833 24 43.5l4 11c0.666992 3.33301 1.16699 6 1.5 8s0.5 3.33301 0.5 4zM584.996 131.999l5.99902 15.999
c5.33301 9.33301 12.833 18 22.5 26s18.834 12 27.501 12h30c12.667 0 21 -3.16699 25 -9.5s6 -14.166 6 -23.499c0 -8 -0.333008 -13 -1 -15l-2 -7c-0.666992 -2.66699 -2.33398 -5.66699 -5.00098 -9c-5.33301 -9.33301 -13.5 -18 -24.5 -26s-19.5 -12 -25.5 -12h-26
c-9.33301 0 -17.666 5.5 -24.999 16.5s-10 21.5 -8 31.5z" />
    <glyph glyph-name="FL0026h" unicode="&#x26;" horiz-adv-x="800" 
d="M760 197l-32.0059 -0.000976562c-1.33301 -8.66699 -3.33301 -17.5 -6 -26.5s-5.66699 -17.167 -9 -24.5l-5 -15c-10 -23.333 -19.833 -43.333 -29.5 -60s-22.167 -30.167 -37.5 -40.5s-35.166 -18 -59.499 -23s-56.166 -7.5 -95.499 -7.5h-284
c-27.333 0 -50 1.16699 -68 3.5s-32.5 6 -43.5 11s-18.667 11.333 -23 19s-6.5 16.834 -6.5 27.501c0 9.33301 1.33301 19.833 4 31.5s6.33398 24.5 11.001 38.5l5 15c3.33301 8.66699 7.83301 18.834 13.5 30.501s11.834 21.834 18.501 30.501
c10.667 13.333 21.834 23.666 33.501 30.999s20.834 13.666 27.501 18.999c-7.33301 4 -12.5 10.833 -15.5 20.5s-4.5 20.5 -4.5 32.5c0 15.333 1.83301 30.5 5.5 45.5s8.16699 27.5 13.5 37.5l6 16c4.66699 13.333 11 27.166 19 41.499s19.667 27.333 35 39
s36 21.334 62 29.001s59.333 11.5 100 11.5h366c-16 -23.333 -33.167 -46.333 -51.5 -69s-38.5 -45 -60.5 -67h-242c-3.33301 0 -9.33301 -1.83301 -18 -5.5s-14.667 -9.16699 -18 -16.5l-56 -156l134 116h454zM472.994 135.999l5 2.5c3.33301 1.66699 7 3.66699 11 6l12 7
c4 2.33301 7 4.5 9 6.5l1.5 2c1 1.33301 1.83301 2.33301 2.5 3l2 5c1.33301 2 3.33301 7.16699 6 15.5s4 14.833 4 19.5h-217l-15 -45c2 -3.33301 5.33301 -7.83301 10 -13.5s7.66699 -8.5 9 -8.5h160z" />
    <glyph glyph-name="FL0027h" unicode="'" horiz-adv-x="181" 
d="M185 430l12.999 37.001c6.66699 17.333 18.167 32.333 34.5 45s33.166 19 50.499 19c14 0 24.833 -3.83301 32.5 -11.5s11.5 -17.5 11.5 -29.5c0 -10 -1.33301 -17.667 -4 -23l-13 -37c-3.33301 -8.66699 -9.16602 -18.167 -17.499 -28.5s-17.166 -20 -26.499 -29
s-18.666 -16.667 -27.999 -23s-16.333 -9.5 -21 -9.5h-8c-10.667 0 -17.834 6 -21.501 18s-5.5 24.667 -5.5 38s1 24.666 3 33.999z" />
    <glyph glyph-name="FL0028h" unicode="(" horiz-adv-x="410" 
d="M119 206l-0.00195312 -2c0 -31.333 4.33301 -58.833 13 -82.5s20.167 -44.167 34.5 -61.5s30.333 -31.666 48 -42.999s35.5 -20.666 53.5 -27.999s35.167 -13 51.5 -17s30.166 -7 41.499 -9l15 31.5c5.33301 11 10.166 21.833 14.499 32.5s8 20.5 11 29.5
s4.5 16.5 4.5 22.5v6c-4.66699 6 -12.667 14 -24 24s-22.666 21 -33.999 33s-21.5 24.667 -30.5 38s-13.5 26.666 -13.5 39.999v1c0 4 1.83301 11.5 5.5 22.5l10.5 30.5l8 24c4 11.333 9.66699 23.833 17 37.5s15.833 26.5 25.5 38.5s19.834 22 30.501 30s21.667 12 33 12
h17c24 20 45.833 41.167 65.5 63.5s39.167 46.166 58.5 71.499h-170c-23.333 0 -46.666 -5.5 -69.999 -16.5s-45.5 -25.667 -66.5 -44s-40.667 -39.333 -59 -63s-34.166 -48.334 -47.499 -74.001s-23.833 -51.167 -31.5 -76.5s-11.5 -48.666 -11.5 -69.999v-1z" />
    <glyph glyph-name="FL0029h" unicode=")" horiz-adv-x="409" 
d="M477 308l0.00292969 2.99707c0 31.333 -4.5 58.833 -13.5 82.5s-20.5 44 -34.5 61s-29.833 31.333 -47.5 43s-35.5 21 -53.5 28s-35 12.5 -51 16.5s-29.667 7 -41 9c-5.33301 -9.33301 -10.666 -19.666 -15.999 -30.999s-10.333 -22.666 -15 -33.999
s-8.33398 -21.833 -11.001 -31.5s-4 -17.167 -4 -22.5v-6c10 -6 20.833 -13.833 32.5 -23.5s22.667 -20.5 33 -32.5s19 -24.5 26 -37.5s10.5 -25.833 10.5 -38.5c-0.666992 -4 -2.83398 -12.333 -6.50098 -25s-7.5 -24.667 -11.5 -36l-6 -17
c-4 -11.333 -9.83301 -23.833 -17.5 -37.5s-16.334 -26.5 -26.001 -38.5s-19.834 -22 -30.501 -30s-21.334 -12 -32.001 -12h-17c-24 -20 -45.667 -41.167 -65 -63.5s-38.666 -46.166 -57.999 -71.499h170c23.333 0 46.5 5.5 69.5 16.5s45.167 25.667 66.5 44
s41 39.333 59 63s33.667 48.334 47 74.001s23.833 51.167 31.5 76.5s11.5 48.666 11.5 69.999v1z" />
    <glyph glyph-name="FL0419h" unicode="*" horiz-adv-x="246" 
d="M289 398l-7 48l-42 -48l-47 55l48 33l-42 11l53 77l29 -25l12 46h87l-24 -46l52 23v-77l-56 -9l24 -35z" />
    <glyph glyph-name="FL002Bh" unicode="+" horiz-adv-x="461" 
d="M202 98l35 97h-148l143 135h54l38 103h135l-38 -103h142l-143 -135h-48l-35 -97h-135z" />
    <glyph glyph-name="FL002Ch" unicode="," horiz-adv-x="208" 
d="M38 28l14.999 42c8 19.333 21.667 36 41 50s39.666 21 60.999 21c17.333 0 30.833 -4.5 40.5 -13.5s14.5 -20.167 14.5 -33.5c0 -4.66699 -1.66699 -12.667 -5 -24l-15 -42c-3.33301 -9.33301 -9.66602 -19.833 -18.999 -31.5s-19.666 -22.5 -30.999 -32.5
s-22.5 -18.5 -33.5 -25.5s-19.5 -10.5 -25.5 -10.5h-9c-7.33301 0 -13.333 2.16699 -18 6.5s-8.16699 10 -10.5 17s-4 14.667 -5 23s-1.5 16.5 -1.5 24.5v15c0 7.33301 0.333008 12 1 14z" />
    <glyph glyph-name="FL002Dh" unicode="-" horiz-adv-x="361" 
d="M320 195l143 135h-231l-143 -135h231z" />
    <glyph glyph-name="FL002Eh" unicode="." horiz-adv-x="208" 
d="M53 70c-2.66699 -5.33301 -4.00293 -13 -4.00293 -23c0 -14 4.83301 -25.333 14.5 -34s23.167 -13 40.5 -13c10.667 -0 21.334 1.83301 32.001 5.5s20.334 8.5 29.001 14.5c14 10 25 22 33 36s12 26.667 12 38c0 13.333 -4.83301 24.5 -14.5 33.5
s-23.167 13.5 -40.5 13.5c-21.333 0 -41.666 -7 -60.999 -21s-33 -30.667 -41 -50z" />
    <glyph glyph-name="FL002Fh" unicode="/" horiz-adv-x="657" 
d="M231 0h-213l600 530h214z" />
    <glyph glyph-name="FL0030h" unicode="0" horiz-adv-x="721" 
d="M797 287c1.33301 10 2.50098 19.5 3.50098 28.5s1.5 17.833 1.5 26.5c0 33.333 -6 62 -18 86s-28.833 43.5 -50.5 58.5s-47.5 26 -77.5 33s-63 10.5 -99 10.5h-132c-35.333 0 -70.333 -8.83301 -105 -26.5s-66.334 -40.5 -95.001 -68.5s-52.667 -59 -72 -93
s-31.333 -67 -36 -99c-1.33301 -9.33301 -2.33301 -18.333 -3 -27s-1 -17 -1 -25c0 -37.333 6.5 -68.333 19.5 -93s30.833 -44.167 53.5 -58.5s49.667 -24.5 81 -30.5s65.333 -9 102 -9h100c40 -0 78.667 8.83301 116 26.5s70.833 40.5 100.5 68.5s54.5 59 74.5 93
s32.333 67 37 99zM305.001 257c0.666992 5.33301 2.33301 11.499 5 18.499l9 22.5c6 11.333 14.167 22.833 24.5 34.5s21.5 22.167 33.5 31.5s24.167 16.833 36.5 22.5s23.833 8.5 34.5 8.5h81c16.667 0 30.167 -2.5 40.5 -7.5s18.5 -11.667 24.5 -20s10 -17.833 12 -28.5
s3 -21.334 3 -32.001c0 -6 -0.166992 -11.833 -0.5 -17.5s-0.833008 -11.167 -1.5 -16.5c0 0.666992 -0.666992 -2.33301 -2 -9l-4 -10c-1.33301 -5.33301 -5 -12.666 -11 -21.999c-6 -11.333 -14.833 -22.833 -26.5 -34.5s-24 -22.167 -37 -31.5s-25.667 -16.833 -38 -22.5
s-22.5 -8.5 -30.5 -8.5h-66c-12 0 -23.333 3.33301 -34 10s-20 15.334 -28 26.001s-14.333 22.5 -19 35.5s-7 25.5 -7 37.5v6c0 4 0.333008 6.33301 1 7z" />
    <glyph glyph-name="FL0031h" unicode="1" horiz-adv-x="325" 
d="M297 0l193 530.001h-205c-9.33301 -6 -20.5 -15.833 -33.5 -29.5s-25.667 -27.834 -38 -42.501s-23 -28 -32 -40s-13.833 -19.333 -14.5 -22v-1h82l-144 -395h192z" />
    <glyph glyph-name="FL0032h" unicode="2" horiz-adv-x="661" 
d="M265 141c0 -4.66699 3.66504 -7.00195 10.998 -7.00195h405l-12 -15.5l-29.5 -36.5l-37 -44c-13 -15.333 -24.833 -28 -35.5 -38h-455c-19.333 0 -33.5 6.16699 -42.5 18.5s-13.5 27.5 -13.5 45.5c0 16.667 3.33301 34.334 10 53.001s16 36.667 28 54
c10.667 14.667 25.667 31 45 49s40 34.833 62 50.5s44.333 28.667 67 39s42.667 15.5 60 15.5h190c0.666992 0 5 1.83301 13 5.5s14.333 6.83398 19 9.50098c2.66699 1.33301 6 3.16602 10 5.49902s6 3.83301 6 4.5l4 5c6.66699 6.66699 10 15.667 10 27c0 8 -3 12 -9 12
h-398c6.66699 10.667 14.834 22.167 24.501 34.5s20 24.5 31 36.5l32.5 34.5l30 30.5h442c20.667 0 35.834 -7.33301 45.501 -22s14.5 -32.667 14.5 -54c0 -17.333 -2.83301 -34.833 -8.5 -52.5s-13.834 -34.167 -24.501 -49.5c-12 -16.667 -27.833 -34.167 -47.5 -52.5
s-41 -35.333 -64 -51s-46.333 -28.5 -70 -38.5s-45.167 -15 -64.5 -15h-200c-5.33301 0 -10.666 -2.16699 -15.999 -6.5s-10 -9.16602 -14 -14.499z" />
    <glyph glyph-name="FL0033h" unicode="3" horiz-adv-x="671" 
d="M130 136c-18.667 -19.333 -35.9941 -40.4971 -51.9941 -63.4971l-50 -72.5h441c39.333 0 71.166 2.5 95.499 7.5s44.166 12.667 59.499 23s27.833 23.833 37.5 40.5s19.5 36.667 29.5 60l4 11c3.33301 8.66699 6.83301 19.167 10.5 31.5s5.5 23.166 5.5 32.499
c-0.666992 13.333 -4.33398 23.666 -11.001 30.999s-11.334 13.666 -14.001 18.999c9.33301 4 18.666 10.333 27.999 19s17.666 18.834 24.999 30.501s13.166 24 17.499 37s6.5 25.833 6.5 38.5v2c0 13.333 -2 28.5 -6 45.5s-10.167 33 -18.5 48s-18.833 27.667 -31.5 38
s-27.667 15.5 -45 15.5h-385c-20.667 -21.333 -39 -43.5 -55 -66.5s-31.333 -46.167 -46 -69.5h374c1.33301 0 4.5 -2.83301 9.5 -8.5s8.5 -10.167 10.5 -13.5l0.5 -2c0.333008 -1.33301 0.833008 -2.33301 1.5 -3l-2 -5c-0.666992 -2 -2.16699 -4.83301 -4.5 -8.5
l-7.5 -11.5c-2.66699 -4 -5.16699 -7.5 -7.5 -10.5s-3.83301 -4.5 -4.5 -4.5h-160l-154 -135h270c0 -4.66699 -0.166992 -9.33398 -0.5 -14.001s-1.16602 -8 -2.49902 -10l-2 -5c-0.666992 -0.666992 -1.5 -1.66699 -2.5 -3l-1.5 -2c-2 -2 -5 -4.16699 -9 -6.5l-12 -7
c-4 -2.33301 -7.66699 -4.33301 -11 -6l-5 -2.5h-326z" />
    <glyph glyph-name="FL0034h" unicode="4" horiz-adv-x="654" 
d="M626 0h-192l107 294l-103 -104h-341l124 340h190l-75 -205h216l75 205h192z" />
    <glyph glyph-name="FL0035h" unicode="5" horiz-adv-x="654" 
d="M476 134l-340.001 -0.00390625c-2 0 -8 -5.83301 -18 -17.5s-20.833 -25 -32.5 -40s-22.667 -29.833 -33 -44.5s-17.166 -25.334 -20.499 -32.001h510c18 0 35.5 5.5 52.5 16.5s32 24.833 45 41.5s23.5 34.834 31.5 54.501s12 38.167 12 55.5v4c0 14.667 -3 31 -9 49
s-14.5 34.667 -25.5 50s-23.833 28.166 -38.5 38.499s-30.667 15.5 -48 15.5h-190c-0.666992 0 -3.5 1.83301 -8.5 5.5s-8.83301 6.83398 -11.5 9.50098c-1.33301 1.33301 -3.33301 3.16602 -6 5.49902s-4 3.83301 -4 4.5v5l14 39h343c24 22.667 45.833 45.334 65.5 68.001
s37.167 45.334 52.5 68.001h-601l-65 -177c-0.666992 -3.33301 -1.16699 -6.5 -1.5 -9.5s-0.5 -6.16699 -0.5 -9.5c0 -16 4.33301 -32.333 13 -49s19.5 -31.667 32.5 -45s27.333 -24.166 43 -32.499s30.5 -12.5 44.5 -12.5h200c5.33301 0 9 -2.16699 11 -6.5
s3 -9.16602 3 -14.499c0 -13.333 -6.66699 -26.666 -20 -39.999z" />
    <glyph glyph-name="FL0036h" unicode="6" horiz-adv-x="636" 
d="M684 195c4 16.667 6.00098 32 6.00098 46c0 23.333 -6.16699 42.5 -18.5 57.5s-33.5 25.5 -63.5 31.5h-272c10 17.333 22 32.5 36 45.5s29.333 19.5 46 19.5h260c23.333 20 44.833 41.167 64.5 63.5s39.167 46.166 58.5 71.499h-413
c-35.333 0 -68.666 -8.83301 -99.999 -26.5s-59 -40.167 -83 -67.5s-43 -58 -57 -92s-21 -67 -21 -99v-2c0 -48 9.5 -87.667 28.5 -119s44.167 -56.166 75.5 -74.499s66.666 -31.166 105.999 -38.499s79.666 -11 120.999 -11c24.667 0 48.667 5.66699 72 17s45 26.333 65 45
s37.667 39.667 53 63s27.333 46.666 36 69.999zM459.001 203c12.667 -2 20.333 -5.83301 23 -11.5s5 -11.5 7 -17.5l-25 -38h-58c-14 0 -25.833 5.83301 -35.5 17.5s-19.167 25.167 -28.5 40.5l-6 9h123z" />
    <glyph glyph-name="FL0037h" unicode="7" horiz-adv-x="611" 
d="M56 0l202 0.000976562l528 530h-501c-9.33301 -6 -20.5 -15.833 -33.5 -29.5s-25.667 -27.834 -38 -42.501s-23 -28 -32 -40s-13.833 -19.333 -14.5 -22v-1h269z" />
    <glyph glyph-name="FL0038h" unicode="8" horiz-adv-x="702" 
d="M173 393c-5.33301 -10 -9.82324 -22.4971 -13.4902 -37.4971s-5.5 -30.167 -5.5 -45.5c0 -12 1.5 -22.833 4.5 -32.5s8.16699 -16.5 15.5 -20.5c-6.66699 -5.33301 -15.834 -11.666 -27.501 -18.999s-22.834 -17.666 -33.501 -30.999
c-6.66699 -8.66699 -12.834 -18.834 -18.501 -30.501s-10.167 -21.834 -13.5 -30.501l-5 -15c-4.66699 -14 -8.33398 -26.833 -11.001 -38.5s-4 -22.167 -4 -31.5c0 -10.667 2.16699 -19.834 6.5 -27.501s12 -14 23 -19s25.5 -8.66699 43.5 -11s40.667 -3.5 68 -3.5h298
c39.333 0 71.166 2.5 95.499 7.5s44.166 12.667 59.499 23s27.833 23.833 37.5 40.5s19.5 36.667 29.5 60l7 20c3.33301 8 6.33301 16.833 9 26.5s4 18.167 4 25.5v3c-0.666992 13.333 -4.33398 23.666 -11.001 30.999s-11.334 13.666 -14.001 18.999
c14 6 27.167 16.667 39.5 32s21.833 32.333 28.5 51c6 14.667 9 27.667 9 39v14c0 14 -2 29 -6 45s-10.333 30.833 -19 44.5s-19.334 25.167 -32.001 34.5s-27.334 14 -44.001 14h-298c-40.667 0 -74 -3.83301 -100 -11.5s-46.667 -17.334 -62 -29.001s-27 -24.667 -35 -39
s-14.333 -28.166 -19 -41.499zM371.01 372.003c3.33301 7.33301 9.33203 12.832 17.999 16.499s14.667 5.5 18 5.5h174c2 -0.666992 5.33301 -3.66699 10 -9s8 -9.66602 10 -12.999v-10c-1.33301 -4 -4.66602 -10 -9.99902 -18s-9 -12 -11 -12h-131l-134 -116z
M313.009 136.002c-1.33301 0 -4.33301 2.83301 -9 8.5s-8 10.167 -10 13.5l1 3c0 0.666992 0.166992 1.16699 0.5 1.5s0.5 0.833008 0.5 1.5l-1 2l14 37h231c0 -4.66699 -1.33301 -11.167 -4 -19.5s-4.66699 -13.5 -6 -15.5l-2 -5
c-0.666992 -0.666992 -1.5 -1.66699 -2.5 -3l-1.5 -2c-2 -2 -5 -4.16699 -9 -6.5l-12 -7c-4 -2.33301 -7.66699 -4.33301 -11 -6l-5 -2.5h-174z" />
    <glyph glyph-name="FL0039h" unicode="9" horiz-adv-x="636" 
d="M145 335c-4 -17.333 -6 -32.668 -6 -46.001c0 -23.333 6.16699 -42.5 18.5 -57.5s33.5 -25.5 63.5 -31.5h272c-10 -17.333 -22 -32.5 -36 -45.5s-29.333 -19.5 -46 -19.5h-260c-23.333 -20 -44.833 -41.167 -64.5 -63.5s-39.167 -46.166 -58.5 -71.499h413
c34 -0 66.667 8.83301 98 26.5s59 40.167 83 67.5s43.167 57.833 57.5 91.5s21.5 66.5 21.5 98.5v3c0 47.333 -4.33301 86.666 -13 117.999s-24.667 56.166 -48 74.499s-56 31.333 -98 39s-96.333 11.5 -163 11.5h-8c-24.667 0 -48.667 -5.83301 -72 -17.5
s-45 -26.667 -65 -45s-37.667 -39.166 -53 -62.499s-27.333 -46.666 -36 -69.999zM370 326.998c-13.333 2 -21.167 5.83203 -23.5 11.499s-4.5 11.5 -6.5 17.5l24 38h58c14.667 0 27 -6.16699 37 -18.5s19.667 -26.166 29 -41.499l5 -7h-123z" />
    <glyph glyph-name="FL003Ah" unicode=":" horiz-adv-x="209" 
d="M54 70c-2.66699 -5.33301 -4.00293 -13 -4.00293 -23c0 -14 4.83301 -25.333 14.5 -34s23.167 -13 40.5 -13c10.667 -0 21.334 1.83301 32.001 5.5s20.334 8.5 29.001 14.5c14 10 25 22 33 36s12 26.667 12 38c0 13.333 -4.83301 24.5 -14.5 33.5
s-23.167 13.5 -40.5 13.5c-21.333 0 -41.666 -7 -60.999 -21s-33 -30.667 -41 -50zM147.997 331c-2.66699 -5.33301 -4.00293 -13 -4.00293 -23c0 -14 4.83301 -25.333 14.5 -34s23.167 -13 40.5 -13c10.667 0 21.334 1.83301 32.001 5.5s20.334 8.5 29.001 14.5
c14 10 25 22 33 36s12 26.667 12 38c0 13.333 -4.83301 24.5 -14.5 33.5s-23.167 13.5 -40.5 13.5c-21.333 0 -41.666 -7 -60.999 -21s-33 -30.667 -41 -50z" />
    <glyph glyph-name="FL003Bh" unicode=";" horiz-adv-x="209" 
d="M148 331c8 19.333 21.667 36 41 50s39.666 21 60.999 21c17.333 0 30.833 -4.5 40.5 -13.5s14.5 -20.167 14.5 -33.5c0 -6 -1.66699 -14 -5 -24s-8.66602 -19.333 -15.999 -28c-10 -12 -22.667 -22 -38 -30s-31 -12 -47 -12c-17.333 0 -30.833 4.33301 -40.5 13
s-14.5 20 -14.5 34c0 10 1.33301 17.667 4 23zM38 28l14.999 42c8 19.333 21.667 36 41 50s39.666 21 60.999 21c17.333 0 30.833 -4.5 40.5 -13.5s14.5 -20.167 14.5 -33.5c0 -4.66699 -1.66699 -12.667 -5 -24l-15 -42c-3.33301 -9.33301 -9.66602 -19.833 -18.999 -31.5
s-19.666 -22.5 -30.999 -32.5s-22.5 -18.5 -33.5 -25.5s-19.5 -10.5 -25.5 -10.5h-9c-7.33301 0 -13.333 2.16699 -18 6.5s-8.16699 10 -10.5 17s-4 14.667 -5 23s-1.5 16.5 -1.5 24.5v15c0 7.33301 0.333008 12 1 14z" />
    <glyph glyph-name="FL003Ch" unicode="&#x3c;" horiz-adv-x="454" 
d="M223 0h213l-107 266l299 264h-214l-299 -264z" />
    <glyph glyph-name="FL003Dh" unicode="=" horiz-adv-x="432" 
d="M426 289l143 135h-302l-143 -135h302zM358 102l143 135h-302l-143 -135h302z" />
    <glyph glyph-name="FL003Eh" unicode="&#x3e;" horiz-adv-x="454" 
d="M231 0h-213l301 266l-107 264h214l107 -264z" />
    <glyph glyph-name="FL003Fh" unicode="?" horiz-adv-x="654" 
d="M139 170l154.999 -0.000976562v1c1.33301 2 7 6.5 17 13.5s25.667 10.5 47 10.5h149c19.333 0 40.833 5 64.5 15s47 22.833 70 38.5s44.333 32.667 64 51s35.5 35.833 47.5 52.5c10.667 14.667 18.834 30.834 24.501 48.501s8.5 35.167 8.5 52.5
c0 21.333 -4.66699 39.5 -14 54.5s-24.666 22.5 -45.999 22.5h-442l-30 -30.5l-32.5 -34.5c-11 -12 -21.333 -24.167 -31 -36.5s-17.834 -23.833 -24.501 -34.5h398c6 0 9 -4 9 -12c0 -11.333 -3.33301 -20.333 -10 -27l-4 -5c0 -0.666992 -2 -2.16699 -6 -4.5
s-7.33301 -4.16602 -10 -5.49902c-4.66699 -2.66699 -11 -5.83398 -19 -9.50098s-12.333 -5.5 -13 -5.5h-139c-17.333 0 -37.333 -5.16699 -60 -15.5s-45 -23.333 -67 -39s-42.5 -32.5 -61.5 -50.5s-33.833 -34.667 -44.5 -50zM91.999 69.999
c-2.66699 -5.33301 -4.00293 -13 -4.00293 -23c0 -14 4.83301 -25.333 14.5 -34s23.167 -13 40.5 -13c10.667 0 21.334 1.83301 32.001 5.5s20.334 8.5 29.001 14.5c14 10 25 22 33 36s12 26.667 12 38c0 13.333 -4.83301 24.5 -14.5 33.5s-23.167 13.5 -40.5 13.5
c-21.333 0 -41.666 -7 -60.999 -21s-33 -30.667 -41 -50z" />
    <glyph glyph-name="FL0040h" unicode="@" horiz-adv-x="751" 
d="M371 275c4 11.333 10.8301 22.502 20.4971 33.502s20.667 20.667 33 29s25.5 15.166 39.5 20.499s27.333 8 40 8c20 0 35.333 -6.16699 46 -18.5s16 -27.166 16 -44.499c0 -6 -1.66699 -15.667 -5 -29c-1.33301 -2 -2.16602 -3.83301 -2.49902 -5.5
s-1.16602 -3.16699 -2.49902 -4.5h13c18 0 33.5 2.16699 46.5 6.5s22.167 13.5 27.5 27.5c4.66699 9.33301 7 21 7 35c0 21.333 -7.83301 39.333 -23.5 54s-37.5 24.334 -65.5 29.001h-128c-10.667 0 -21.5 -4 -32.5 -12s-21.167 -18 -30.5 -30s-17.833 -24.833 -25.5 -38.5
s-13.5 -26.167 -17.5 -37.5c-5.33301 -18 -10.666 -34.5 -15.999 -49.5s-8 -24.167 -8 -27.5v-1c0 -13.333 4.5 -26.666 13.5 -39.999s19.167 -26 30.5 -38s22.666 -23 33.999 -33s19.333 -18 24 -24c6.66699 -2.66699 18.167 -4.83398 34.5 -6.50098s29.833 -2.5 40.5 -2.5
h6c0 -2.66699 -3.16699 -12.667 -9.5 -30l-29.5 -83h-87c-11.333 2 -25.166 5 -41.499 9s-33.5 9.66699 -51.5 17s-35.833 16.666 -53.5 27.999s-33.667 25.666 -48 42.999s-25.833 37.833 -34.5 61.5s-13 51.167 -13 82.5v2c0 28.667 6.33301 59.667 19 93
c10.667 30 25.5 60 44.5 90s40.5 57.167 64.5 81.5s49.5 44 76.5 59s54.167 22.5 81.5 22.5h181c11.333 -2 25.333 -3.66699 42 -5s34.334 -3.83301 53.001 -7.5s37.5 -9 56.5 -16s36 -17.167 51 -30.5s27.167 -30.5 36.5 -51.5s14 -47.167 14 -78.5v-3
c0 -26.667 -4.66699 -54 -14 -82c-16 -44 -41.833 -73.333 -77.5 -88s-80.834 -22 -135.501 -22h-170c-28 3.33301 -46.833 12.666 -56.5 27.999s-14.5 34 -14.5 56v11c0 6 0.333008 10 1 12zM448.997 270.002c-0.666992 -0.666992 -0.998047 -3.33301 -0.998047 -8
c0 -10 5 -15 15 -15c6.66699 0 13 2.16699 19 6.5s10 9.83301 12 16.5c1.33301 6.66699 2 9.66699 2 9c0 9.33301 -5.33301 14 -16 14c-6.66699 0 -12.834 -2.16699 -18.501 -6.5s-9.83398 -9.83301 -12.501 -16.5z" />
    <glyph glyph-name="FL0041h" unicode="A" 
d="M737 0l-65.9971 428.997l-7.5 29.5c-3 11.667 -6.5 22.834 -10.5 33.501s-8.83301 19.667 -14.5 27s-11.834 11 -18.501 11h-168c-4.66699 0 -10.5 -2.5 -17.5 -7.5s-14 -10.667 -21 -17s-13.5 -12.833 -19.5 -19.5s-10 -12 -12 -16l-360 -460v-3
c0 0.666992 -0.666992 -1.66602 -2 -6.99902h423c4.66699 2 12 8.33301 22 19s20.167 22.334 30.5 35.001s19.666 24.667 27.999 36s13.166 19 14.499 23l21 -113h178zM335.003 143.997l168 225l35 -235h-203v10z" />
    <glyph glyph-name="FL0042h" unicode="B" horiz-adv-x="689" 
d="M221 530l-193.001 -529.998h459c35.333 0 64.833 2.5 88.5 7.5s43.834 12.667 60.501 23s30.5 23.833 41.5 40.5s21.5 36.667 31.5 60l4 11l10 27c3.33301 9.33301 5 18.666 5 27.999c-0.666992 13.333 -4 25.5 -10 36.5s-12.667 19.5 -20 25.5
c8 4 16.833 10.167 26.5 18.5s18.667 18 27 29s15.333 22.833 21 35.5s8.5 25.667 8.5 39v2c0 18.667 -1.5 37 -4.5 55s-8.33301 33.667 -16 47s-18 24.166 -31 32.499s-29.5 12.5 -49.5 12.5h-459zM307.999 242.002l55 152h205c1.33301 0 4.5 -2.83301 9.5 -8.5
s8.5 -10.167 10.5 -13.5l0.5 -2c0.333008 -1.33301 0.833008 -2.33301 1.5 -3l-2 -5c-0.666992 -2 -2.16699 -4.83301 -4.5 -8.5l-7.5 -11.5c-2.66699 -4 -5.16699 -7.5 -7.5 -10.5s-3.83301 -4.5 -4.5 -4.5h-160zM268.999 136.002l26 67.001h230
c0 -4.66699 -0.166992 -9.33398 -0.5 -14.001s-1.16602 -8 -2.49902 -10l-2 -5c-0.666992 -0.666992 -2.33398 -3.5 -5.00098 -8.5l-4 -7.5c-2 -2 -5 -4.16699 -9 -6.5l-12 -7c-4 -2.33301 -7.66699 -4.33301 -11 -6l-5 -2.5h-205z" />
    <glyph glyph-name="FL0043h" unicode="C" horiz-adv-x="631" 
d="M127 243c0 -48 9.5 -87.6689 28.5 -119.002s44.167 -56.166 75.5 -74.499s66.666 -31.166 105.999 -38.499s79.666 -11 120.999 -11h80c25.333 20 47.666 41.833 66.999 65.5s36.666 46.834 51.999 69.501h-239c-11.333 0 -23.166 4 -35.499 12s-23.666 18 -33.999 30
s-18.833 25.167 -25.5 39.5s-10 27.833 -10 40.5c0 10 2.66699 23.667 8 41c4 11.333 9.66699 22.833 17 34.5s15.5 22.167 24.5 31.5s18.333 16.833 28 22.5s18.834 8.5 27.501 8.5h260c23.333 20 44.833 41.167 64.5 63.5s39.167 46.166 58.5 71.499h-413
c-35.333 0 -68.666 -8.83301 -99.999 -26.5s-59 -40.167 -83 -67.5s-43 -58 -57 -92s-21 -67 -21 -99v-2z" />
    <glyph glyph-name="FL0044h" unicode="D" horiz-adv-x="658" 
d="M709 241c-27.333 -43.333 -55.5 -80.168 -84.5 -110.501s-60.5 -55.166 -94.5 -74.499s-71.667 -33.5 -113 -42.5s-88 -13.5 -140 -13.5h-249l193 530h435c40 0 69 -11 87 -33s27 -50 27 -84c0 -26 -5 -54.167 -15 -84.5s-25.333 -59.5 -46 -87.5zM366 394.998
l-94.9971 -260h26c16 0 34.667 3.5 56 10.5s42.666 16.167 63.999 27.5s41 24.166 59 38.499s31.667 28.833 41 43.5c3.33301 5.33301 7.66602 11.333 12.999 18s9.66602 14.334 12.999 23.001c4 10.667 8.16699 21 12.5 31s6.5 19.333 6.5 28
c0 11.333 -2.5 20.833 -7.5 28.5s-13.833 11.5 -26.5 11.5h-162z" />
    <glyph glyph-name="FL0045h" unicode="E" horiz-adv-x="625" 
d="M221 530l-193.004 -530.001h503c0.666992 0 4.83398 3.33301 12.501 10s16.5 14.834 26.5 24.501l30.5 30.5c10.333 10.667 18.5 20 24.5 28c0.666992 0.666992 2.33398 3 5.00098 7s5.33398 8.33301 8.00098 13l8 13.5c2.66699 4.33301 4.33398 7.16602 5.00098 8.49902
h-383l22 60h199l143 135h-231l-95 -92l57 157h308c5.33301 0 13.833 5.33301 25.5 16s23.667 23.334 36 38.001s24 29.5 35 44.5s18.833 27.167 23.5 36.5h-570z" />
    <glyph glyph-name="FL0046h" unicode="F" horiz-adv-x="621" 
d="M221 530l-193 -530.001h191l71 195h199l143 135h-231l-95 -92l57 157h308c5.33301 0 13.833 5.33301 25.5 16s23.667 23.334 36 38.001s24 29.5 35 44.5s18.833 27.167 23.5 36.5h-570z" />
    <glyph glyph-name="FL0047h" unicode="G" horiz-adv-x="640" 
d="M732 330l-125.001 -329.999h-149c-41.333 0 -81.666 3.66699 -120.999 11s-74.666 20.166 -105.999 38.499s-56.5 43.166 -75.5 74.499s-28.5 71 -28.5 119c0 32 7 65 21 99s33 65 57 93s51.667 50.833 83 68.5s64.666 26.5 99.999 26.5h413
c-19.333 -25.333 -38.833 -49.166 -58.5 -71.499s-41.167 -43.5 -64.5 -63.5h-260c-10.667 0 -21 -2.83301 -31 -8.5s-19.167 -13.167 -27.5 -22.5s-15.833 -19.833 -22.5 -31.5s-12 -23.167 -16 -34.5c-5.33301 -17.333 -8 -31 -8 -41c0 -12.667 3.16699 -26.167 9.5 -40.5
s14.666 -27.5 24.999 -39.5s21.666 -22 33.999 -30s24.5 -12 36.5 -12h59l23 65h-113v1c0.666992 2 4.83398 8.5 12.501 19.5s16.834 23.333 27.501 37l33.5 41c11.667 13.667 22.167 24.167 31.5 31.5h240z" />
    <glyph glyph-name="FL0048h" unicode="H" horiz-adv-x="654" 
d="M28 0h192l69 190h216l-69 -190h190l193 530h-190l-75 -205h-152l-102 -105l113 310h-192z" />
    <glyph glyph-name="FL0049h" unicode="I" horiz-adv-x="616" 
d="M23 0h499c5.33301 -0 13.833 5.33301 25.5 16s23.667 23.334 36 38.001s24 29.5 35 44.5s18.833 27.167 23.5 36.5h-189l95 260h118c5.33301 0 13.833 5.33301 25.5 16s23.667 23.334 36 38.001s24 29.5 35 44.5s18.833 27.167 23.5 36.5h-501
c-9.33301 -6 -20.5 -15.833 -33.5 -29.5s-25.667 -27.834 -38 -42.501s-23 -28 -32 -40s-13.833 -19.333 -14.5 -22v-1h189l-95 -260h-120c-9.33301 -6 -20.5 -15.833 -33.5 -29.5s-25.667 -27.834 -38 -42.501s-23 -28 -32 -40s-13.833 -19.333 -14.5 -22v-1z" />
    <glyph glyph-name="FL004Ah" unicode="J" horiz-adv-x="573" 
d="M330 0l29.0029 -0.000976562c42.667 0 78.5 5.83301 107.5 17.5s53.833 28.667 74.5 51s38.667 50 54 83s30.666 70.833 45.999 113.5l97 265h-190l-108 -297c-4.66699 -9.33301 -10.834 -19.666 -18.501 -30.999s-16.334 -22 -26.001 -32s-20.5 -18.333 -32.5 -25
s-24.333 -10 -37 -10h-202c-21.333 -21.333 -40 -43.333 -56 -66s-31 -45.667 -45 -69h307z" />
    <glyph glyph-name="FL004Bh" unicode="K" horiz-adv-x="698" 
d="M28 0h192l87 238l196 -238h214l-192 265l346 265h-214l-331 -238l87 238h-192z" />
    <glyph glyph-name="FL004Ch" unicode="L" horiz-adv-x="560" 
d="M28 0l192.999 530h191l-144 -395h317c0.666992 0 -3.16602 -5.66699 -11.499 -17s-18.833 -24.5 -31.5 -39.5s-26 -30 -40 -45s-25.667 -26.167 -35 -33.5h-439z" />
    <glyph glyph-name="FL004Dh" unicode="M" horiz-adv-x="836" 
d="M808 0l193 530h-242l-245 -266l-51 266h-242l-193 -530h192l108 298l55 -298h69l272 298l-108 -298h192z" />
    <glyph glyph-name="FL004Eh" unicode="N" horiz-adv-x="654" 
d="M28 0h192l108 298l56 -298h242l193 530h-190l-109 -298l-57 298h-242z" />
    <glyph glyph-name="FL004Fh" unicode="O" horiz-adv-x="721" 
d="M797 287c4 22.667 5.99902 44 5.99902 64c0 64 -20.833 109.833 -62.5 137.5s-102.834 41.5 -183.501 41.5h-132c-35.333 0 -70.166 -8 -104.499 -24s-65.833 -37.167 -94.5 -63.5s-52.667 -56.833 -72 -91.5s-31.666 -70.667 -36.999 -108
c-1.33301 -9.33301 -2.33301 -18.333 -3 -27s-1 -17 -1 -25c0 -37.333 6.5 -68.333 19.5 -93s30.833 -44.167 53.5 -58.5s49.667 -24.5 81 -30.5s65.333 -9 102 -9h100c39.333 0 77.5 7.66699 114.5 23s70.333 36 100 62s54.5 56.333 74.5 91s33 71.667 39 111zM304.999 257
c0.666992 5.33301 2.33203 11.499 4.99902 18.499l9 22.5c6 11.333 14.167 22.833 24.5 34.5s21.5 22.167 33.5 31.5s24.167 16.833 36.5 22.5s23.833 8.5 34.5 8.5h81c16.667 0 30.167 -2.5 40.5 -7.5s18.5 -11.667 24.5 -20s10 -17.833 12 -28.5s3 -21.334 3 -32.001
c0 -6 -0.166992 -11.833 -0.5 -17.5s-0.833008 -11.167 -1.5 -16.5c0 0.666992 -0.666992 -2.33301 -2 -9l-4 -10c-1.33301 -5.33301 -5 -12.666 -11 -21.999c-6 -11.333 -15 -22.833 -27 -34.5s-24.667 -22.167 -38 -31.5s-26.166 -16.833 -38.499 -22.5
s-21.833 -8.5 -28.5 -8.5h-66c-12 0 -23.333 3.33301 -34 10s-20 15.334 -28 26.001s-14.333 22.5 -19 35.5s-7 25.5 -7 37.5v6c0 4 0.333008 6.33301 1 7z" />
    <glyph glyph-name="FL0050h" unicode="P" horiz-adv-x="675" 
d="M28 0h191.998l70 192h281c22.667 0 46.334 4.66699 71.001 14s47.334 22.5 68.001 39.5s37.667 37.167 51 60.5s20 49 20 77c0 13.333 -1.5 28.5 -4.5 45.5s-8.33301 33 -16 48s-18 27.667 -31 38s-29.5 15.5 -49.5 15.5h-459zM362.998 394h205
c1.33301 0 4.5 -2.83301 9.5 -8.5s8.5 -10.167 10.5 -13.5l0.5 -2c0.333008 -1.33301 0.833008 -2.33301 1.5 -3l-2 -5c-0.666992 -2 -2.16699 -4.83301 -4.5 -8.5l-7.5 -11.5c-2.66699 -4 -5.16699 -7.5 -7.5 -10.5s-3.83301 -4.5 -4.5 -4.5h-160l-96 -85z" />
    <glyph glyph-name="FL0051h" unicode="Q" horiz-adv-x="714" 
d="M793 287c1.33301 9.33301 2.49805 18.332 3.49805 26.999s1.5 17 1.5 25c0 31.333 -5.83301 59 -17.5 83s-28 44 -49 60s-46.333 28 -76 36s-62.5 12 -98.5 12h-132c-35.333 0 -70.166 -7.83301 -104.499 -23.5s-65.833 -36.667 -94.5 -63s-52.667 -56.833 -72 -91.5
s-31.666 -71 -36.999 -109c-2 -16 -3 -31 -3 -45c0 -39.333 7.66699 -71.666 23 -96.999s35.833 -45.5 61.5 -60.5s55.5 -25.5 89.5 -31.5s69.667 -9 107 -9h90l17 -28h200l-49 95c36.667 30 67.667 64.667 93 104s41 78 47 116zM350.998 253.999l53.999 -119.001h-13
c-12 0 -23.333 3.33301 -34 10s-20 15.334 -28 26.001s-14.333 22.5 -19 35.5s-7 25.5 -7 37.5v6c0 4 0.333008 6.33301 1 7c0.666992 5.33301 2.33398 11.5 5.00098 18.5l9 22.5c6 11.333 14.167 22.833 24.5 34.5s21.5 22.167 33.5 31.5s24.167 16.833 36.5 22.5
s23.833 8.5 34.5 8.5h69c18 0 32.833 -3 44.5 -9s21 -13.833 28 -23.5s11.833 -20.334 14.5 -32.001s4 -23.5 4 -35.5v-12c0 -5.33301 -0.333008 -8.66602 -1 -9.99902c0 0.666992 -0.666992 -2.33301 -2 -9l-4 -10c-1.33301 -5.33301 -5 -12.666 -11 -21.999
c-1.33301 -3.33301 -2.83301 -6.33301 -4.5 -9s-3.16699 -5.33398 -4.5 -8.00098l-20 39h-210z" />
    <glyph glyph-name="FL0052h" unicode="R" horiz-adv-x="693" 
d="M28 0h192l66 182l11 8l206 -190h214l-196 201c26.667 2 55.167 5.83301 85.5 11.5s58 15 83 28s45.833 30.5 62.5 52.5s25 50 25 84c0 15.333 -1.5 32 -4.5 50s-8.5 34.667 -16.5 50s-19.167 28 -33.5 38s-32.833 15 -55.5 15h-446zM583 366
c0 -6.66699 -2.16699 -14.5 -6.5 -23.5s-11.5 -13.5 -21.5 -13.5h-160l-88 -89l57 156h201c8 0 13 -1.83301 15 -5.5s3 -8.16699 3 -13.5v-11z" />
    <glyph glyph-name="FL0053h" unicode="S" horiz-adv-x="660" 
d="M503 168l-0.00195312 6.00293c0 5.33301 -1 10.833 -3 16.5s-5.66699 8.5 -11 8.5h-200c-20 0 -38 4.83301 -54 14.5s-29.833 22 -41.5 37s-20.5 31.5 -26.5 49.5s-9 35.667 -9 53c0 16 4.66699 34.167 14 54.5s21.333 39.666 36 57.999s31.334 33.666 50.001 45.999
s37.334 18.5 56.001 18.5h510c-15.333 -22.667 -32.833 -45.334 -52.5 -68.001s-41.5 -45.334 -65.5 -68.001h-330c-7.33301 0 -13.666 -5 -18.999 -15s-8 -18 -8 -24v-5c0 -0.666992 1.33301 -2.16699 4 -4.5s4.66699 -4.16602 6 -5.49902
c2.66699 -2.66699 6.5 -5.16699 11.5 -7.5s7.83301 -3.5 8.5 -3.5h190c21.333 0 39.666 -5.16699 54.999 -15.5s27.833 -23.333 37.5 -39s16.834 -32.5 21.501 -50.5s7 -34.667 7 -50v-6c0 -17.333 -4 -35.833 -12 -55.5s-18.5 -37.834 -31.5 -54.501s-28 -30.5 -45 -41.5
s-34.5 -16.5 -52.5 -16.5h-510c3.33301 6.66699 10.166 17.334 20.499 32.001s21.333 29.5 33 44.5s22.5 28.333 32.5 40s16 17.5 18 17.5h340c10 0 15.833 3 17.5 9s2.5 12.333 2.5 19v6z" />
    <glyph glyph-name="FL0054h" unicode="T" horiz-adv-x="616" 
d="M212 0h192l144 395h118c5.33301 0 13.833 5.33301 25.5 16s23.667 23.334 36 38.001s24 29.5 35 44.5s18.833 27.167 23.5 36.5h-501c-9.33301 -6 -20.5 -15.833 -33.5 -29.5s-25.667 -27.834 -38 -42.501s-23 -28 -32 -40s-13.833 -19.333 -14.5 -22v-1h189z" />
    <glyph glyph-name="FL0055h" unicode="U" horiz-adv-x="682" 
d="M142 308l78.999 222h189l-54 -158.5l-28 -84.5c-6 -18.667 -9.66699 -30.5 -11 -35.5s-2 -8.5 -2 -10.5c-3.33301 -13.333 -5 -24 -5 -32c0 -23.333 5.66699 -41.5 17 -54.5s26.333 -19.5 45 -19.5h49c16 0 30.833 3.33301 44.5 10s25.834 15 36.501 25s20 20.667 28 32
s14.333 21.666 19 30.999l108 297h190l-90 -247c-16.667 -46 -33.667 -86.5 -51 -121.5s-37 -64.5 -59 -88.5s-47.333 -42.167 -76 -54.5s-63 -18.5 -103 -18.5h-117c-46.667 0 -85.5 2.66699 -116.5 8s-55.833 13.833 -74.5 25.5s-32 26.834 -40 45.501
s-12 41.334 -12 68.001c0 7.33301 0.5 15 1.5 23s2.16699 16.667 3.5 26c3.33301 17.333 7.5 34.666 12.5 51.999z" />
    <glyph glyph-name="FL0056h" unicode="V" horiz-adv-x="741" 
d="M433 173l-47.999 357.001h-174l62 -429c2 -8 4.33301 -17.833 7 -29.5s6 -22.834 10 -33.501s8.66699 -19.667 14 -27s11.666 -11 18.999 -11h165c4.66699 0 10.667 2.5 18 7.5s14.5 11 21.5 18s13.5 13.833 19.5 20.5l14 16l355 468h-206z" />
    <glyph glyph-name="FL0077h" unicode="W" horiz-adv-x="872" 
d="M717 286l-17.001 244.001h-154l-170 -262v262h-165v-439c0 -8.66699 0.333008 -18.334 1 -29.001s1.83398 -20.5 3.50098 -29.5s4 -16.667 7 -23s6.83301 -9.5 11.5 -9.5h119c4 0 8.66699 2.5 14 7.5s10.666 11 15.999 18s10.333 14 15 21s8.66699 12.5 12 16.5l118 169
c4.66699 -40.667 8.5 -75.667 11.5 -105s5.83301 -53.333 8.5 -72s5.5 -32.5 8.5 -41.5s7.16699 -13.5 12.5 -13.5h118c3.33301 0 7.83301 2.5 13.5 7.5s11.334 11 17.001 18s11 14 16 21l11.5 16.5l302 467h-176z" />
    <glyph glyph-name="FL0058h" unicode="X" horiz-adv-x="658" 
d="M231 0l144 127l52 -127h213l-107 266l299 264h-214l-142 -125l-50 125h-214l107 -264l-301 -266h213z" />
    <glyph glyph-name="FL0059h" unicode="Y" horiz-adv-x="656" 
d="M232 0h192l92 252l315 278h-214l-142 -125l-50 125h-214l113 -278z" />
    <glyph glyph-name="FL005Ah" unicode="Z" horiz-adv-x="616" 
d="M23 0h499c5.33301 -0 13.833 5.33301 25.5 16s23.667 23.334 36 38.001s24 29.5 35 44.5s18.833 27.167 23.5 36.5h-269l413 395h-501c-9.33301 -6 -20.5 -15.833 -33.5 -29.5s-25.667 -27.834 -38 -42.501s-23 -28 -32 -40s-13.833 -19.333 -14.5 -22v-1h269z" />
    <glyph glyph-name="FL005Bh" unicode="[" horiz-adv-x="412" 
d="M245 597l-237.003 -653.001h285c0.666992 0 4.83398 3.33301 12.501 10s16.5 14.834 26.5 24.501l30 30.5c10 10.667 18 20 24 28c0.666992 0.666992 2.33398 3 5.00098 7l8.5 13l8.5 13.5c2.66699 4.33301 4.33398 7.16602 5.00098 8.49902h-165l139 383h90
c5.33301 0 13.833 5.33301 25.5 16s23.667 23.334 36 38.001s24 29.5 35 44.5s18.833 27.167 23.5 36.5h-352z" />
    <glyph glyph-name="FL005Ch" unicode="\" horiz-adv-x="657" 
d="M426 0h213l-214 530h-214z" />
    <glyph glyph-name="FL005Dh" unicode="]" horiz-adv-x="412" 
d="M363 -57l238.003 653.001h-285c-0.666992 0 -4.83398 -3.33301 -12.501 -10s-16.5 -14.834 -26.5 -24.501l-30.5 -30.5c-10.333 -10.667 -18.5 -20 -24.5 -28c-0.666992 -0.666992 -2.33398 -3 -5.00098 -7s-5.33398 -8.33301 -8.00098 -13l-8 -13.5
c-2.66699 -4.33301 -4.33398 -7.16602 -5.00098 -8.49902h165l-140 -383h-90c-6 0 -14.667 -5.33301 -26 -16s-23.166 -23.334 -35.499 -38.001s-24 -29.667 -35 -45s-18.833 -27.333 -23.5 -36h352z" />
    <glyph glyph-name="FL005Eh" unicode="^" 
d="M503 369l-270.001 -368.998h-213c1.33301 5.33301 2 7.66602 2 6.99902v3l360 460c2 4 6 9.33301 12 16s12.5 13.167 19.5 19.5s14 12 21 17s12.833 7.5 17.5 7.5h168c6.66699 0 12.834 -3.66699 18.501 -11s10.5 -16.333 14.5 -27s7.5 -21.834 10.5 -33.501l7.5 -29.5
l66 -429h-178z" />
    <glyph glyph-name="FL005Fh" unicode="_" horiz-adv-x="462" 
d="M350 0l143 135h-332l-143 -135h332z" />
    <glyph glyph-name="FL0060h" unicode="`" horiz-adv-x="170" 
d="M292 500l7.99707 -22.002c0 -6.66699 0.833008 -13.5 2.5 -20.5s0.833984 -15.167 -2.49902 -24.5c-2.66699 -6 -5.66699 -11.5 -9 -16.5s-7.66602 -8.83301 -12.999 -11.5l-6 -4c-1.33301 -1.33301 -5 -2 -11 -2c-9.33301 0 -19.166 3.33301 -29.499 10
s-17.166 14.334 -20.499 23.001l-6 23c-1.33301 4 -2.5 8 -3.5 12s-0.5 8.33301 1.5 13c6.66699 16.667 19 30.667 37 42c14 5.33301 23.333 8 28 8c7.33301 0 12.666 -3.16699 15.999 -9.5s6 -13.166 8 -20.499z" />
    <glyph glyph-name="a" unicode="a" 
d="M737 0l-65.9971 428.997l-7.5 29.5c-3 11.667 -6.5 22.834 -10.5 33.501s-8.83301 19.667 -14.5 27s-11.834 11 -18.501 11h-168c-4.66699 0 -10.5 -2.5 -17.5 -7.5s-14 -10.667 -21 -17s-13.5 -12.833 -19.5 -19.5s-10 -12 -12 -16l-360 -460v-3
c0 0.666992 -0.666992 -1.66602 -2 -6.99902h423c4.66699 2 12 8.33301 22 19s20.167 22.334 30.5 35.001s19.666 24.667 27.999 36s13.166 19 14.499 23l21 -113h178zM335.003 143.997l168 225l35 -235h-203v10z" />
    <glyph glyph-name="FL0062h" unicode="b" horiz-adv-x="689" 
d="M221 530l-193.001 -529.998h459c35.333 0 64.833 2.5 88.5 7.5s43.834 12.667 60.501 23s30.5 23.833 41.5 40.5s21.5 36.667 31.5 60l4 11l10 27c3.33301 9.33301 5 18.666 5 27.999c-0.666992 13.333 -4 25.5 -10 36.5s-12.667 19.5 -20 25.5
c8 4 16.833 10.167 26.5 18.5s18.667 18 27 29s15.333 22.833 21 35.5s8.5 25.667 8.5 39v2c0 18.667 -1.5 37 -4.5 55s-8.33301 33.667 -16 47s-18 24.166 -31 32.499s-29.5 12.5 -49.5 12.5h-459zM307.999 242.002l55 152h205c1.33301 0 4.5 -2.83301 9.5 -8.5
s8.5 -10.167 10.5 -13.5l0.5 -2c0.333008 -1.33301 0.833008 -2.33301 1.5 -3l-2 -5c-0.666992 -2 -2.16699 -4.83301 -4.5 -8.5l-7.5 -11.5c-2.66699 -4 -5.16699 -7.5 -7.5 -10.5s-3.83301 -4.5 -4.5 -4.5h-160zM268.999 136.002l26 67.001h230
c0 -4.66699 -0.166992 -9.33398 -0.5 -14.001s-1.16602 -8 -2.49902 -10l-2 -5c-0.666992 -0.666992 -2.33398 -3.5 -5.00098 -8.5l-4 -7.5c-2 -2 -5 -4.16699 -9 -6.5l-12 -7c-4 -2.33301 -7.66699 -4.33301 -11 -6l-5 -2.5h-205z" />
    <glyph glyph-name="c" unicode="c" horiz-adv-x="631" 
d="M127 243c0 -48 9.5 -87.6689 28.5 -119.002s44.167 -56.166 75.5 -74.499s66.666 -31.166 105.999 -38.499s79.666 -11 120.999 -11h80c25.333 20 47.666 41.833 66.999 65.5s36.666 46.834 51.999 69.501h-239c-11.333 0 -23.166 4 -35.499 12s-23.666 18 -33.999 30
s-18.833 25.167 -25.5 39.5s-10 27.833 -10 40.5c0 10 2.66699 23.667 8 41c4 11.333 9.66699 22.833 17 34.5s15.5 22.167 24.5 31.5s18.333 16.833 28 22.5s18.834 8.5 27.501 8.5h260c23.333 20 44.833 41.167 64.5 63.5s39.167 46.166 58.5 71.499h-413
c-35.333 0 -68.666 -8.83301 -99.999 -26.5s-59 -40.167 -83 -67.5s-43 -58 -57 -92s-21 -67 -21 -99v-2z" />
    <glyph glyph-name="FL0064h" unicode="d" horiz-adv-x="658" 
d="M707 239c-28.667 -43.333 -57.499 -80.167 -86.499 -110.5s-60.333 -55 -94 -74s-70.667 -32.833 -111 -41.5s-86.5 -13 -138.5 -13h-249l193 530h435c40 0 69 -11 87 -33s27 -50 27 -84c0 -26 -5.33301 -54.5 -16 -85.5s-26.334 -60.5 -47.001 -88.5zM366.001 394.999
l-95.001 -260h26c18 0 37.667 3.5 59 10.5s42.333 16.167 63 27.5s39.834 24.166 57.501 38.499s31.5 28.833 41.5 43.5l13.5 18c5 6.66699 9.16699 14.334 12.5 23.001l12 31c4 10 6 19.333 6 28c0 11.333 -2.5 20.833 -7.5 28.5s-13.833 11.5 -26.5 11.5h-162z" />
    <glyph glyph-name="e" unicode="e" horiz-adv-x="625" 
d="M221 530l-193.004 -530.001h503c0.666992 0 4.83398 3.33301 12.501 10s16.5 14.834 26.5 24.501l30.5 30.5c10.333 10.667 18.5 20 24.5 28c0.666992 0.666992 2.33398 3 5.00098 7s5.33398 8.33301 8.00098 13l8 13.5c2.66699 4.33301 4.33398 7.16602 5.00098 8.49902
h-383l22 60h199l143 135h-231l-95 -92l57 157h308c5.33301 0 13.833 5.33301 25.5 16s23.667 23.334 36 38.001s24 29.5 35 44.5s18.833 27.167 23.5 36.5h-570z" />
    <glyph glyph-name="FL0066h" unicode="f" horiz-adv-x="621" 
d="M221 530l-193 -530.001h191l71 195h199l143 135h-231l-95 -92l57 157h308c5.33301 0 13.833 5.33301 25.5 16s23.667 23.334 36 38.001s24 29.5 35 44.5s18.833 27.167 23.5 36.5h-570z" />
    <glyph glyph-name="FL0067h" unicode="g" horiz-adv-x="640" 
d="M732 330l-125.001 -329.999h-149c-41.333 0 -81.666 3.66699 -120.999 11s-74.666 20.166 -105.999 38.499s-56.5 43.166 -75.5 74.499s-28.5 71 -28.5 119c0 32 7 65 21 99s33 65 57 93s51.667 50.833 83 68.5s64.666 26.5 99.999 26.5h413
c-19.333 -25.333 -38.833 -49.166 -58.5 -71.499s-41.167 -43.5 -64.5 -63.5h-260c-10.667 0 -21 -2.83301 -31 -8.5s-19.167 -13.167 -27.5 -22.5s-15.833 -19.833 -22.5 -31.5s-12 -23.167 -16 -34.5c-5.33301 -17.333 -8 -31 -8 -41c0 -12.667 3.16699 -26.167 9.5 -40.5
s14.666 -27.5 24.999 -39.5s21.666 -22 33.999 -30s24.5 -12 36.5 -12h59l23 65h-113v1c0.666992 2 4.83398 8.5 12.501 19.5s16.834 23.333 27.501 37l33.5 41c11.667 13.667 22.167 24.167 31.5 31.5h240z" />
    <glyph glyph-name="h" unicode="h" horiz-adv-x="654" 
d="M28 0h192l69 190h216l-69 -190h190l193 530h-190l-75 -205h-152l-102 -105l113 310h-192z" />
    <glyph glyph-name="FL0069h" unicode="i" horiz-adv-x="252" 
d="M30 0h192l193 530h-192z" />
    <glyph glyph-name="FL006Ah" unicode="j" horiz-adv-x="573" 
d="M330 0l29.0029 -0.000976562c42.667 0 78.5 5.83301 107.5 17.5s53.833 28.667 74.5 51s38.667 50 54 83s30.666 70.833 45.999 113.5l97 265h-190l-108 -297c-4.66699 -9.33301 -10.834 -19.666 -18.501 -30.999s-16.334 -22 -26.001 -32s-20.5 -18.333 -32.5 -25
s-24.333 -10 -37 -10h-202c-21.333 -21.333 -40 -43.333 -56 -66s-31 -45.667 -45 -69h307z" />
    <glyph glyph-name="FL006Bh" unicode="k" horiz-adv-x="698" 
d="M28 0h192l87 238l196 -238h214l-192 265l346 265h-214l-331 -238l87 238h-192z" />
    <glyph glyph-name="FL006Ch" unicode="l" horiz-adv-x="560" 
d="M28 0l192.999 530h191l-144 -395h317c0.666992 0 -3.16602 -5.66699 -11.499 -17s-18.833 -24.5 -31.5 -39.5s-26 -30 -40 -45s-25.667 -26.167 -35 -33.5h-439z" />
    <glyph glyph-name="FL006Dh" unicode="m" horiz-adv-x="836" 
d="M808 0l193 530h-242l-245 -266l-51 266h-242l-193 -530h192l108 298l55 -298h69l272 298l-108 -298h192z" />
    <glyph glyph-name="FL006Eh" unicode="n" horiz-adv-x="654" 
d="M28 0h192l108 298l56 -298h242l193 530h-190l-109 -298l-57 298h-242z" />
    <glyph glyph-name="FL006Fh" unicode="o" horiz-adv-x="738" 
d="M814 287c2 10.667 3.33301 20.666 4 29.999s1 18.666 1 27.999c0 32.667 -5.66699 60.834 -17 84.501s-27.666 42.834 -48.999 57.501s-47 25.5 -77 32.5s-64 10.5 -102 10.5h-149c-35.333 0 -70.333 -8.16699 -105 -24.5s-66.334 -38 -95.001 -65
s-52.667 -57.667 -72 -92s-31.333 -69.5 -36 -105.5c-1.33301 -9.33301 -2.33301 -18.333 -3 -27s-1 -17 -1 -25c0 -37.333 6.5 -68.333 19.5 -93s30.833 -44.167 53.5 -58.5s49.667 -24.5 81 -30.5s65.333 -9 102 -9h117c40 0 78.5 8 115.5 24s70.167 37.167 99.5 63.5
s54 56.833 74 91.5s33 70.667 39 108zM305 256.999c0.666992 5.33301 2.33301 11.499 5 18.499l9 22.5c6 11.333 14.167 22.833 24.5 34.5s21.5 22.167 33.5 31.5s24.167 16.833 36.5 22.5s23.833 8.5 34.5 8.5h98c16.667 0 30.167 -2.5 40.5 -7.5s18.5 -11.667 24.5 -20
s10 -17.833 12 -28.5s3 -21.334 3 -32.001c0 -6 -0.166992 -11.833 -0.5 -17.5s-0.833008 -11.167 -1.5 -16.5c0 0.666992 -0.666992 -2.33301 -2 -9l-4 -10c-1.33301 -5.33301 -5 -12.666 -11 -21.999c-6 -11.333 -15.167 -22.833 -27.5 -34.5s-25.333 -22.167 -39 -31.5
s-26.5 -16.833 -38.5 -22.5s-21 -8.5 -27 -8.5h-83c-12 0 -23.333 3.33301 -34 10s-20 15.334 -28 26.001s-14.333 22.5 -19 35.5s-7 25.5 -7 37.5v6c0 4 0.333008 6.33301 1 7z" />
    <glyph glyph-name="p" unicode="p" horiz-adv-x="675" 
d="M28 0h191.999l70 192h281c22.667 0 46.334 4.66699 71.001 14s47.334 22.5 68.001 39.5s37.667 37.167 51 60.5s20 49 20 77c0 13.333 -1.83301 28.5 -5.5 45.5s-9.5 33 -17.5 48s-18.333 27.667 -31 38s-28.334 15.5 -47.001 15.5h-459zM362.999 394h205
c1.33301 0 4.5 -2.83301 9.5 -8.5s8.5 -10.167 10.5 -13.5l0.5 -2c0.333008 -1.33301 0.833008 -2.33301 1.5 -3l-2 -5c-0.666992 -2 -2.16699 -4.83301 -4.5 -8.5l-7.5 -11.5c-2.66699 -4 -5.16699 -7.5 -7.5 -10.5s-3.83301 -4.5 -4.5 -4.5h-160l-96 -85z" />
    <glyph glyph-name="FL0071h" unicode="q" horiz-adv-x="711" 
d="M793 287c1.33301 9.33301 2.49805 18.333 3.49805 27s1.5 17 1.5 25c0 31.333 -5.83301 59 -17.5 83s-28 44 -49 60s-46.333 28 -76 36s-62.5 12 -98.5 12h-132c-35.333 0 -70.166 -8.16699 -104.499 -24.5s-65.833 -37.833 -94.5 -64.5s-52.667 -57.334 -72 -92.001
s-31.666 -70 -36.999 -106c-2 -16 -3 -31 -3 -45c0 -39.333 7.66699 -71.666 23 -96.999s35.833 -45.5 61.5 -60.5s55.5 -25.5 89.5 -31.5s69.667 -9 107 -9h90l17 -28h200l-49 95c36.667 30 67.667 64.667 93 104s41 78 47 116zM350.998 254l53.999 -119.001h-13
c-12 0 -23.333 3.33301 -34 10s-20 15.334 -28 26.001s-14.333 22.5 -19 35.5s-7 25.5 -7 37.5v6c0 4 0.333008 6.33301 1 7c0.666992 5.33301 2.33398 11.5 5.00098 18.5l9 22.5c6 11.333 14.167 22.833 24.5 34.5s21.5 22.167 33.5 31.5s24.167 16.833 36.5 22.5
s23.833 8.5 34.5 8.5h69c18 0 32.833 -3 44.5 -9s21 -13.833 28 -23.5s11.833 -20.334 14.5 -32.001s4 -23.5 4 -35.5v-12c0 -5.33301 -0.333008 -8.66602 -1 -9.99902c0 0.666992 -0.666992 -2.33301 -2 -9l-4 -10c-1.33301 -5.33301 -5 -12.666 -11 -21.999
c-1.33301 -3.33301 -2.83301 -6.33301 -4.5 -9s-3.16699 -5.33398 -4.5 -8.00098l-20 39h-210z" />
    <glyph glyph-name="r" unicode="r" horiz-adv-x="699" 
d="M28 0h192.001l66 182l11 8l206 -190h214l-196 201c26.667 2 55.167 5.83301 85.5 11.5s58 15 83 28s45.833 30.5 62.5 52.5s25 50 25 84c0 15.333 -1.16699 32 -3.5 50s-7.33301 34.667 -15 50s-18.834 28 -33.501 38s-34 15 -58 15h-446zM583.001 366
c0 -6.66699 -2.16699 -14.5 -6.5 -23.5s-11.5 -13.5 -21.5 -13.5h-160l-88 -89l57 156h201c8 0 13 -1.83301 15 -5.5s3 -8.16699 3 -13.5v-11z" />
    <glyph glyph-name="FL201Ch" unicode="s" horiz-adv-x="660" 
d="M503 168l-0.00195312 6.00293c0 5.33301 -1 10.833 -3 16.5s-5.66699 8.5 -11 8.5h-200c-20 0 -38 4.83301 -54 14.5s-29.833 22 -41.5 37s-20.5 31.5 -26.5 49.5s-9 35.667 -9 53c0 16 4.66699 34.167 14 54.5s21.333 39.666 36 57.999s31.334 33.666 50.001 45.999
s37.334 18.5 56.001 18.5h510c-15.333 -22.667 -32.833 -45.334 -52.5 -68.001s-41.5 -45.334 -65.5 -68.001h-330c-7.33301 0 -13.666 -5 -18.999 -15s-8 -18 -8 -24v-5c0 -0.666992 1.33301 -2.16699 4 -4.5s4.66699 -4.16602 6 -5.49902
c2.66699 -2.66699 6.5 -5.16699 11.5 -7.5s7.83301 -3.5 8.5 -3.5h190c22 0 40.667 -5.16699 56 -15.5s27.833 -23.333 37.5 -39s16.667 -32.5 21 -50.5s6.5 -34.667 6.5 -50v-6c0 -17.333 -4 -35.833 -12 -55.5s-18.5 -37.834 -31.5 -54.501s-28 -30.5 -45 -41.5
s-34.5 -16.5 -52.5 -16.5h-510c3.33301 6.66699 10.166 17.334 20.499 32.001s21.333 29.5 33 44.5s22.5 28.333 32.5 40s16 17.5 18 17.5h340c10 0 15.833 3 17.5 9s2.5 12.333 2.5 19v6z" />
    <glyph glyph-name="FL0074h" unicode="t" horiz-adv-x="616" 
d="M212 0h192l144 395h118c5.33301 0 13.833 5.33301 25.5 16s23.667 23.334 36 38.001s24 29.5 35 44.5s18.833 27.167 23.5 36.5h-501c-9.33301 -6 -20.5 -15.833 -33.5 -29.5s-25.667 -27.834 -38 -42.501s-23 -28 -32 -40s-13.833 -19.333 -14.5 -22v-1h189z" />
    <glyph glyph-name="FL2022h" unicode="u" horiz-adv-x="682" 
d="M142 308l78.998 222.003h189l-54 -158.5l-28 -84.5c-6 -18.667 -9.66699 -30.5 -11 -35.5s-2 -8.5 -2 -10.5c-3.33301 -13.333 -5 -24 -5 -32c0 -23.333 6.5 -41.5 19.5 -54.5s27.167 -19.5 42.5 -19.5h49c16 0 30.833 3.33301 44.5 10s25.834 15 36.501 25
s20 20.667 28 32s14.333 21.666 19 30.999l108 297h190l-90 -247c-16.667 -46 -33.667 -86.5 -51 -121.5s-37 -64.5 -59 -88.5s-47.333 -42.167 -76 -54.5s-63 -18.5 -103 -18.5h-117c-47.333 0 -86.666 2.83301 -117.999 8.5s-56.333 14.5 -75 26.5s-32 27.5 -40 46.5
s-12 41.833 -12 68.5c0 7.33301 0.333008 14.666 1 21.999s1.66699 15.666 3 24.999c3.33301 17.333 8 34.5 14 51.5s12 36.833 18 59.5z" />
    <glyph glyph-name="FL0076h" unicode="v" horiz-adv-x="741" 
d="M433 173l-47.999 357.001h-174l62 -429c2 -8 4.33301 -17.833 7 -29.5s6 -22.834 10 -33.501s8.66699 -19.667 14 -27s11.666 -11 18.999 -11h165c4.66699 0 10.667 2.5 18 7.5s14.5 11 21.5 18s13.5 13.833 19.5 20.5l14 16l355 468h-206z" />
    <glyph glyph-name="FL0057h" unicode="w" horiz-adv-x="872" 
d="M101 199c-4 -11.333 -7.16797 -22.332 -9.50098 -32.999s-3.5 -21.667 -3.5 -33c0 -18 3.66699 -35 11 -51s19.5 -30 36.5 -42s39.667 -21.667 68 -29s63.5 -11 105.5 -11h535l193 530h-190l-144 -396h-121l144 396h-190l-142 -391
c-10 2.66699 -20.167 4.33398 -30.5 5.00098s-19.666 2.83398 -27.999 6.50098s-15 9.5 -20 17.5s-7.5 21 -7.5 39c0 2 0.666992 5.66699 2 11s2.66602 11.166 3.99902 17.499s2.83301 12.666 4.5 18.999s2.83398 11.166 3.50098 14.499l88 261h-188z" />
    <glyph glyph-name="FL0079h" unicode="x" horiz-adv-x="658" 
d="M231 0l144 127l52 -127h213l-107 266l299 264h-214l-142 -125l-50 125h-214l107 -264l-301 -266h213z" />
    <glyph glyph-name="FL007Bh" unicode="y" horiz-adv-x="656" 
d="M232 0h192l92 252l315 278h-214l-142 -125l-50 125h-214l113 -278z" />
    <glyph glyph-name="FL007Ah" unicode="z" horiz-adv-x="616" 
d="M23 0h499c5.33301 -0 13.833 5.33301 25.5 16s23.667 23.334 36 38.001s24 29.5 35 44.5s18.833 27.167 23.5 36.5h-269l413 395h-501c-9.33301 -6 -20.5 -15.833 -33.5 -29.5s-25.667 -27.834 -38 -42.501s-23 -28 -32 -40s-13.833 -19.333 -14.5 -22v-1h269z" />
    <glyph glyph-name="FL007Dh" unicode="{" horiz-adv-x="555" 
d="M388 597l352.003 0.000976562c-4.66699 -9.33301 -12.5 -21.5 -23.5 -36.5s-22.667 -29.833 -35 -44.5s-24.333 -27.334 -36 -38.001s-20.167 -16 -25.5 -16h-90l-139 -383h165c-0.666992 -1.33301 -2.33398 -4.16602 -5.00098 -8.49902l-8.5 -13.5l-8.5 -13
c-2.66699 -4 -4.33398 -6.33301 -5.00098 -7c-6 -8 -14 -17.333 -24 -28l-30 -30.5c-10 -9.66699 -18.833 -17.834 -26.5 -24.501s-11.834 -10 -12.501 -10h-285l91 251h-153l143 135h59z" />
    <glyph glyph-name="FL007Ch" unicode="|" horiz-adv-x="248" 
d="M-23 -141h192l294 810h-192z" />
    <glyph glyph-name="FL007Eh" unicode="}" horiz-adv-x="555" 
d="M363 -57l-352.003 -0.000976562c4.66699 8.66699 12.5 20.667 23.5 36s22.667 30.333 35 45s24.166 27.334 35.499 38.001s20 16 26 16h90l140 383h-165c0.666992 1.33301 2.33398 4.16602 5.00098 8.49902l8 13.5c2.66699 4.66699 5.33398 9 8.00098 13
s4.33398 6.33301 5.00098 7c6 8 14.167 17.333 24.5 28l30.5 30.5c10 9.66699 18.833 17.834 26.5 24.501s11.834 10 12.501 10h285l-91 -251h153l-144 -135h-59z" />
    <glyph glyph-name="FL0080h" unicode="~" horiz-adv-x="413" 
d="M352 262l64 68h98l-1.5 -2.5c-1 -1.66699 -5.16699 -6.16699 -12.5 -13.5l-35 -35.5l-68 -69.5c-3.33301 -2.66699 -7.5 -5.66699 -12.5 -9s-9.16699 -5 -12.5 -5h-87l-33 68l-64 -68h-98l117 121c3.33301 2.66699 7.5 5.66699 12.5 9s9.16699 5 12.5 5h88z" />
    <glyph glyph-name="FL007Fh" horiz-adv-x="175" 
 />
    <glyph glyph-name="FL00A1h" unicode="&#xa1;" horiz-adv-x="248" 
d="M351 359h-192l-131 -359h192zM369 460c7.33301 19.333 6.16602 35.832 -3.50098 49.499s-25.167 20.5 -46.5 20.5s-41.833 -6.83301 -61.5 -20.5s-33.167 -30.167 -40.5 -49.5s-6 -36 4 -50s25.667 -21 47 -21c10.667 0 21.334 1.83301 32.001 5.5
s20.5 8.83398 29.5 15.501s17 14.167 24 22.5s12.167 17.5 15.5 27.5z" />
    <glyph glyph-name="FL00A2h" unicode="&#xa2;" horiz-adv-x="631" 
d="M267 -142h126.001l52 142h93c25.333 20 47.666 41.833 66.999 65.5s36.666 46.834 51.999 69.501h-163l95 260h89c23.333 20 44.833 41.167 64.5 63.5s39.167 46.166 58.5 71.499h-163l50 138h-126l-50 -138h-124c-35.333 0 -68.666 -8.83301 -99.999 -26.5
s-59 -40.167 -83 -67.5s-43 -58 -57 -92s-21 -67 -21 -99v-2c0 -34.667 5 -65 15 -91s23.833 -48.167 41.5 -66.5s38.5 -33.333 62.5 -45s50 -20.5 78 -26.5zM463.001 395l-89 -243c-16 12.667 -30.167 28.5 -42.5 47.5s-18.5 37.5 -18.5 55.5v2c0 10 2.66699 23.667 8 41
c4 11.333 9.33301 22.833 16 34.5s14.167 22.167 22.5 31.5s17.5 16.833 27.5 22.5s20.333 8.5 31 8.5h45z" />
    <glyph glyph-name="FL00A3h" unicode="&#xa3;" horiz-adv-x="674" 
d="M656 0c2 24.667 3.00098 48.666 3.00098 71.999c0 26 -2.33301 47.333 -7 64h-196c-1.33301 0 -4.33301 2.83301 -9 8.5s-8 10.167 -10 13.5l-0.5 2c-0.333008 1.33301 -0.833008 2.33301 -1.5 3l2 5c1.33301 2 3.33301 5.33301 6 10s5.66699 9.33398 9 14.001h197
l-56 135h-87c-1.33301 0 -2 1.33301 -2 4c0 5.33301 0.333008 11 1 17s1.66699 10.667 3 14l2 5c0.666992 0.666992 1.5 1.66699 2.5 3l1.5 2c2.66699 2 5.83398 4.16699 9.50098 6.5l11 7c3.66699 2.33301 7 4.33301 10 6s4.83301 2.5 5.5 2.5h59
c3.33301 23.333 5.16602 46.5 5.49902 69.5s-1.83398 45.167 -6.50098 66.5h-70c-17.333 0 -36 -5.16699 -56 -15.5s-39.667 -23 -59 -38s-37.333 -31 -54 -48s-30 -32.167 -40 -45.5c-5.33301 -7.33301 -9.83301 -14.666 -13.5 -21.999l-10.5 -22
c-1.33301 -3.33301 -2.33301 -6.33301 -3 -9l-2 -8h-71l-143 -135h155c-3.33301 -5.33301 -5.83301 -10.333 -7.5 -15s-3.16699 -9.33398 -4.5 -14.001l-9 -23h-59l-143 -135h638z" />
    <glyph glyph-name="FL00A4h" unicode="&#xa4;" horiz-adv-x="658" 
d="M652 279c2.66699 17.333 2.83691 32.665 0.503906 45.998s-6.5 25.333 -12.5 36l192 169h-214l-121 -107h-11h-17l-43 107h-214l64 -157c-20.667 -17.333 -37.834 -36.666 -51.501 -57.999s-21.5 -42 -23.5 -62c-2.66699 -17.333 -2.83398 -32.666 -0.500977 -45.999
s6.5 -25 12.5 -35l-1 -1l-194 -171h213l124 109h20h8l44 -109h213l-65 160c21.333 16.667 38.666 35.667 51.999 57s21.666 42 24.999 62zM325.003 260.999c0 3.33301 1 7.00195 3 11.002s4 8.33301 6 13c8.66699 14 21 27.167 37 39.5s31.333 18.5 46 18.5h54
c14 0 24.833 -2.33301 32.5 -7s13.334 -10.5 17.001 -17.5s5.66699 -14.833 6 -23.5s0.166016 -16.667 -0.500977 -24c0 -2.66699 -1.33301 -6.66699 -4 -12c-1.33301 -4.66699 -3.33301 -9 -6 -13c-4 -6.66699 -9.66699 -13.334 -17 -20.001
s-15.166 -12.834 -23.499 -18.501s-16.5 -10.167 -24.5 -13.5s-14.667 -5 -20 -5h-44c-9.33301 0 -17.833 2.33301 -25.5 7s-14.334 10.5 -20.001 17.5s-10 14.833 -13 23.5s-4.16699 16.667 -3.5 24z" />
    <glyph glyph-name="FL00A5h" unicode="&#xa5;" horiz-adv-x="656" 
d="M232 0l23 63h-160l125 80h64l11 30h-160l125 80h63l-112 277h214l50 -125l142 125h214l-314 -277h158l-125 -80h-63l-11 -30h159l-125 -80h-63l-23 -63h-192z" />
    <glyph glyph-name="FL00A6h" unicode="&#xa6;" horiz-adv-x="248" 
d="M-23 -141h192l294 810h-192z" />
    <glyph glyph-name="FL00A7h" unicode="&#xa7;" horiz-adv-x="658" 
d="M652 279c2.66699 17.333 2.83301 32.6631 0.5 45.9961s-6.5 25.333 -12.5 36l192 169h-214l-121 -107h-28c-34.667 0 -68 -3.33301 -100 -10s-63 -20 -93 -40c-16 -13.333 -30 -28 -42 -44s-21 -32 -27 -48c-1.33301 -5.33301 -2.66602 -10.166 -3.99902 -14.499
s-2 -8.83301 -2 -13.5c-2.66699 -17.333 -2.83398 -32.666 -0.500977 -45.999s6.5 -25 12.5 -35l-195 -172h213l124 109h28c40.667 0 76.5 5 107.5 15s59.167 22 84.5 36c17.333 13.333 31.833 27.833 43.5 43.5s20.167 31.5 25.5 47.5c2 4.66699 3.5 9.33398 4.5 14.001
s2.16699 9.33398 3.5 14.001zM324.999 260.997c0 0.666992 0.666992 3.00195 2 7.00195l7 17c8.66699 14 21 27.167 37 39.5s31.333 18.5 46 18.5h54c14 0 24.833 -2.33301 32.5 -7s13.334 -10.5 17.001 -17.5s5.66699 -14.833 6 -23.5s0.166016 -16.667 -0.500977 -24
c0 -2.66699 -1.33301 -6.66699 -4 -12c-1.33301 -4.66699 -3.33301 -9 -6 -13c-4 -6.66699 -9.66699 -13.334 -17 -20.001s-15.166 -12.834 -23.499 -18.501s-16.5 -10.167 -24.5 -13.5s-14.667 -5 -20 -5h-44c-9.33301 0 -17.833 2.33301 -25.5 7
s-14.334 10.5 -20.001 17.5s-10 14.833 -13 23.5s-4.16699 16.667 -3.5 24z" />
    <glyph glyph-name="FL00A8h" unicode="&#xa8;" horiz-adv-x="364" 
d="M199 471c6 16.667 17.167 30.667 33.5 42s33.5 17 51.5 17s31 -5.66699 39 -17s9 -25.333 3 -42s-17.167 -30.667 -33.5 -42s-33.5 -17 -51.5 -17s-31 5.66699 -39 17s-9 25.333 -3 42zM507 471c-6 -16.667 -17 -30.667 -33 -42s-33 -17 -51 -17
s-31.167 5.66699 -39.5 17s-9.5 25.333 -3.5 42s17.333 30.667 34 42s34 17 52 17s30.833 -5.66699 38.5 -17s8.5 -25.333 2.5 -42z" />
    <glyph glyph-name="copyright" unicode="&#xa9;" horiz-adv-x="278" 
d="M355 594c-16.667 0 -36.335 -4.66699 -59.002 -14c-22.667 -10 -41.667 -23.667 -57 -41c-8 -9.33301 -15 -18.5 -21 -27.5s-10.667 -18.5 -14 -28.5c-7.33301 -19.333 -9 -37.333 -5 -54c2 -9.33301 5.16699 -17.333 9.5 -24s9.83301 -12.667 16.5 -18
c15.333 -9.33301 32 -14 50 -14c8.66699 0 28.667 4.66699 60 14c11.333 5.33301 21.5 11.333 30.5 18s17.5 14.667 25.5 24c16.667 16.667 28.334 34.667 35.001 54c7.33301 22 9 40.667 5 56c-3.33301 17.333 -12.333 31 -27 41c-15.333 9.33301 -31.666 14 -48.999 14z
M348.999 576c16.667 0 30.0029 -4.00098 40.0029 -12.001c13.333 -9.33301 21 -20.666 23 -33.999c2 -15.333 0.333008 -31 -5 -47c-6.66699 -16.667 -16.334 -31.667 -29.001 -45c-14.667 -16 -30 -27.333 -46 -34c-18 -8 -34.667 -12 -50 -12c-16 0 -30 4 -42 12
c-12 10 -19.333 21.333 -22 34c-2 14 -0.333008 29 5 45c3.33301 8 7.16602 16 11.499 24s10.166 15.667 17.499 23c14 15.333 29.833 26.833 47.5 34.5s34.167 11.5 49.5 11.5zM345.002 465.999c-12 -18.667 -27.999 -27.999 -47.999 -27.999
c-24.667 0 -31.334 15 -20.001 45c5.33301 15.333 13 27 23 35s21 12 33 12c14.667 0 23 -7.66699 25 -23l18 4c1.33301 23.333 -11 35 -37 35c-18 0 -34.333 -5.33301 -49 -16s-25.667 -26.334 -33 -47.001c-7.33301 -20 -7.66602 -35.5 -0.999023 -46.5
s18.667 -16.5 36 -16.5c13.333 0 26.166 3.66699 38.499 11s22.5 17.333 30.5 30z" />
    <glyph glyph-name="FL00ABh" unicode="&#xab;" horiz-adv-x="308" 
d="M320 273l46 -36.999l-33 -91l-80 69c-1.33301 2 -3 4.66699 -5 8s-2.33301 6.66602 -1 9.99902l23 62c2 5.33301 7 11.333 15 18s14.667 12 20 16l124 81l-30 -82zM185 272.001l46 -36.999l-34 -91l-79 69c-1.33301 2 -3 4.66699 -5 8s-2.33301 6.66602 -1 9.99902l23 62
c2 5.33301 7 11.333 15 18s14.667 12 20 16l123 81l-29 -82z" />
    <glyph glyph-name="FL00ACh" unicode="&#xac;" horiz-adv-x="473" 
d="M346 98l35 97h-292l143 135h333l-84 -232h-135z" />
    <glyph glyph-name="FL00ADh" unicode="&#xad;" horiz-adv-x="318" 
d="M277 195l143 135h-188l-143 -135h188z" />
    <glyph glyph-name="registered" unicode="&#xae;" horiz-adv-x="278" 
d="M356 595c-16 0 -36 -4.66699 -60 -14c-22 -10 -40.667 -23.667 -56 -41c-8 -9.33301 -15.167 -18.5 -21.5 -27.5s-11.166 -18.5 -14.499 -28.5c-6.66699 -18.667 -8 -36.667 -4 -54c2 -9.33301 5 -17.333 9 -24s9.33301 -12.667 16 -18c15.333 -9.33301 32 -14 50 -14
c8.66699 0 28.667 4.66699 60 14c11.333 5.33301 21.666 11.333 30.999 18s18 14.667 26 24c15.333 17.333 26.666 35.333 33.999 54c7.33301 20 9.33301 38.667 6 56s-12.666 31 -27.999 41c-13.333 9.33301 -29.333 14 -48 14zM349 577c16 0 29.6689 -4 41.002 -12
c12.667 -8.66699 20 -20 22 -34c2.66699 -13.333 1 -29 -5 -47c-4.66699 -14 -14 -29 -28 -45c-16 -16 -31.667 -27.333 -47 -34c-18 -8 -34.667 -12 -50 -12c-16 0 -30 4 -42 12c-12 10 -19 21.333 -21 34c-2.66699 12 -1.33398 27 3.99902 45c6 16 15.667 31.667 29 47
c14.667 15.333 30.667 26.833 48 34.5s33.666 11.5 48.999 11.5zM245.002 424l19.002 -0.00195312l19 50h11c6.66699 0 11 -1.33301 13 -4c4.66699 -3.33301 8.33398 -12.666 11.001 -27.999l3 -18h24l-6 23c-2.66699 8.66699 -4.83398 15.167 -6.50098 19.5
s-5.16699 7.83301 -10.5 10.5c10.667 0.666992 20.167 4.16699 28.5 10.5s14.166 13.833 17.499 22.5c2 6.66699 2 12.667 0 18c0 4.66699 -3.33301 8.33398 -10 11.001c-2.66699 2.66699 -12.334 4 -29.001 4h-40zM288.004 489.998l12.998 36h21
c12.667 0 19.334 -0.333008 20.001 -1c6 -2.66699 7.66699 -8.33398 5 -17.001c-2 -5.33301 -5.66699 -9.66602 -11 -12.999s-13.666 -5 -24.999 -5h-23z" />
    <glyph glyph-name="FL00AFh" unicode="&#xaf;" horiz-adv-x="462" 
d="M494 395l143 135h-332l-143 -135h332z" />
    <glyph glyph-name="FL00B0h" unicode="&#xb0;" horiz-adv-x="183" 
d="M199 471c6 16.667 17.167 30.667 33.5 42s33.5 17 51.5 17s31 -5.66699 39 -17s9 -25.333 3 -42s-17.167 -30.667 -33.5 -42s-33.5 -17 -51.5 -17s-31 5.66699 -39 17s-9 25.333 -3 42z" />
    <glyph glyph-name="FL00B1h" unicode="&#xb1;" horiz-adv-x="461" 
d="M225 164l35 97h-148l143 135h54l38 103h135l-38 -103h142l-143 -135h-48l-35 -97h-135zM17 0l143 135h331l-143 -135h-331z" />
    <glyph glyph-name="FL00B4h" unicode="&#xb4;" horiz-adv-x="170" 
d="M242 500l-24.0049 -22.001c-5.33301 -6.66699 -11.166 -13.5 -17.499 -20.5s-11.166 -15.167 -14.499 -24.5c-2.66699 -6 -4.16699 -11.5 -4.5 -16.5s1.16699 -8.83301 4.5 -11.5l4 -4c1.33301 -1.33301 4.33301 -2 9 -2s10.334 1 17.001 3s13.5 4.5 20.5 7.5
s13.667 6.5 20 10.5s11.833 8 16.5 12l24 23l11.5 12c3.66699 4 6.5 8.33301 8.5 13c6.66699 16.667 4.33398 30.667 -6.99902 42c-7.33301 5.33301 -14.666 8 -21.999 8s-15 -3.16699 -23 -9.5s-15.667 -13.166 -23 -20.499z" />
    <glyph glyph-name="FL00B5h" unicode="&#xb5;" horiz-adv-x="837" 
d="M914 282l-1 12l-69 51l61 17h6l-2 13l-112 31l56 37h-146l27 43l-150 -24l9 37l-8 6l-120 -56l-28 37l-84 -72c-4.66699 -2.66699 -10 -4 -16 -4c-11.333 0 -26 9 -44 27l-41 -87l-68 7l-4 -26l18 -55l-72 -6l72 -55l-71 -31l118 -33l-57 -35l149 -7l-32 -43l146 31
l8 -25l-14 -24l131 61l35 -37l81 75l61 -26l37 87l66 -14l4 8c4 11.333 -2 36 -18 74zM825 326l-41 -80l-15 3l34 83zM774 212l-21 -18l-7 14l15 10zM735 218c-14.667 0 -27.333 18 -38 54l-20 -54l-15 -1l39 109l28 -70l32 76l14 -6zM645.001 218l-10.001 5
c-1.33301 17.333 -5.66602 26 -12.999 26c-8.66699 0 -20 -8.66699 -34 -26h-20c9.33301 18.667 20.5 37 33.5 55s28.167 35.667 45.5 53c2.66699 2 7.66699 3 15 3c12 0 16 -11.333 12 -34zM598 332l-44 -107l-26 -8l49 110zM509 214c-16 0 -29 17.333 -39 52l-19 -51
l-16 -3l38 110l30 -70l30 75l15 -5zM452 290c-26.667 -50.667 -48.667 -76 -66 -76c-3.33301 -0.666992 -6.33301 -1.16699 -9 -1.5s-5 -0.5 -7 -0.5c-18.667 0 -27.334 6 -26.001 18c16.667 48.667 40.334 80.667 71.001 96h4h6c20 0 29 -12 27 -36zM373 330
l-12.001 -27.001c-3.33301 2 -6.33301 3 -9 3c-8 0 -18.333 -5.33301 -31 -16c-14.667 -14 -24.667 -28.667 -30 -44c-6 -14 -2 -21 12 -21c3.33301 0 6.5 0.166992 9.5 0.5s6.16699 0.833008 9.5 1.5l-5 -18c-13.333 -3.33301 -20.666 -5 -21.999 -5
c-18.667 0 -25 16 -19 48c-0.666992 0.666992 0 3.33398 2 8.00098l2 6c12 34.667 43 56 93 64zM291.999 326.999l-44 -107l-25 -8l51 111zM646.999 271.999l2 37l-32 -37h30zM426.999 274.999c2 6.66699 2.33398 10.667 1.00098 12c0 10 -4 15 -12 15
c-10.667 0 -24.334 -12 -41.001 -36l-3 -7c-6 -17.333 -3.66699 -26 7 -26c4.66699 0 14 3 28 9c10 12.667 16.667 23.667 20 33z" />
    <glyph glyph-name="FL00B7h" unicode="&#xb6;" horiz-adv-x="616" 
d="M707 326l-41 -80l-15 3l34 83zM656 212l-21 -18l-7 14l15 10zM617 218c-14.667 0 -27.333 18 -38 54l-20 -54l-15 -1l39 109l28 -70l32 76l14 -6zM527.001 218l-10.001 5c-1.33301 17.333 -5.66602 26 -12.999 26c-8.66699 0 -20 -8.66699 -34 -26h-20
c9.33301 18.667 20.5 37 33.5 55s28.167 35.667 45.5 53c2.66699 2 7.66699 3 15 3c12 0 16 -11.333 12 -34zM480 332l-44 -107l-26 -8l49 110zM391 214c-16 0 -29 17.333 -39 52l-19 -51l-16 -3l38 110l30 -70l30 75l15 -5zM334 290c-26.667 -50.667 -48.667 -76 -66 -76
c-3.33301 -0.666992 -6.33301 -1.16699 -9 -1.5s-5 -0.5 -7 -0.5c-18.667 0 -27.334 6 -26.001 18c16.667 48.667 40.334 80.667 71.001 96h4h6c20 0 29 -12 27 -36zM255 330l-12.001 -27.001c-3.33301 2 -6.33301 3 -9 3c-8 0 -18.333 -5.33301 -31 -16
c-14.667 -14 -24.667 -28.667 -30 -44c-6 -14 -2 -21 12 -21c3.33301 0 6.5 0.166992 9.5 0.5s6.16699 0.833008 9.5 1.5l-5 -18c-13.333 -3.33301 -20.666 -5 -21.999 -5c-18.667 0 -25 16 -19 48c-0.666992 0.666992 0 3.33398 2 8.00098l2 6c12 34.667 43 56 93 64z
M173.999 326.999l-44 -107l-25 -8l51 111zM528.999 271.999l2 37l-32 -37h30zM308.999 274.999c2 6.66699 2.33398 10.667 1.00098 12c0 10 -4 15 -12 15c-10.667 0 -24.334 -12 -41.001 -36l-3 -7c-6 -17.333 -3.66699 -26 7 -26c4.66699 0 14 3 28 9
c10 12.667 16.667 23.667 20 33z" />
    <glyph glyph-name="FL00B9h" unicode="&#xb7;" horiz-adv-x="183" 
d="M131 282c6 16.667 17 30.666 33 41.999s33 17 51 17c14.667 0 26.167 -3.83301 34.5 -11.5s12.5 -17.167 12.5 -28.5c0 -7.33301 -1.33301 -13.666 -4 -18.999c-6 -16.667 -17.333 -30.667 -34 -42s-34 -17 -52 -17c-14 0 -25 3.66699 -33 11s-12 16.666 -12 27.999
c0 8.66699 1.33301 15.334 4 20.001z" />
    <glyph glyph-name="FL00B8h" unicode="&#xb8;" horiz-adv-x="176" 
d="M-155 -116l122 92h53l11 30h119l-44 -122h-261z" />
    <glyph glyph-name="FL00BBh" unicode="&#xbb;" horiz-adv-x="308" 
d="M189 279l-46.001 36.999l33 91l80 -69c1.33301 -2 2.83301 -4.66699 4.5 -8s1.83398 -6.66602 0.500977 -9.99902l-22 -62c-2 -5.33301 -7 -11.333 -15 -18s-14.667 -12 -20 -16l-124 -81l30 82zM323.999 279.999l-46 36.999l33 91l80 -69c1.33301 -2 3 -4.66699 5 -8
s2.33301 -6.66602 1 -9.99902l-23 -62c-2 -5.33301 -7 -11.333 -15 -18s-14.667 -12 -20 -16l-124 -81l30 82z" />
    <glyph glyph-name="FL00BFh" unicode="&#xbf;" horiz-adv-x="654" 
d="M708 360l-154.999 0.00488281v-1c-1.33301 -2 -7.16602 -6.5 -17.499 -13.5s-25.833 -10.5 -46.5 -10.5h-149c-20 0 -41.667 -5 -65 -15s-46.333 -22.833 -69 -38.5s-44 -32.834 -64 -51.501s-36 -36.334 -48 -53.001c-10.667 -14.667 -18.834 -30.834 -24.501 -48.501
s-8.5 -35.167 -8.5 -52.5c0 -21.333 4.66699 -39.333 14 -54s24.666 -22 45.999 -22h442l29 29.5l32 34.5l31 36.5c10 12.333 18.333 24.166 25 35.499h-398c-6 0 -9 3.66699 -9 11c0 4.66699 1 9.66699 3 15s4.66699 9.66602 8 12.999l4 5c0 0.666992 2 2.16699 6 4.5
s7.33301 4.16602 10 5.49902c4.66699 2.66699 11 5.83398 19 9.50098s12.333 5.5 13 5.5h139c17.333 0 37.333 5.16699 60 15.5s45 23.333 67 39s42.5 32.5 61.5 50.5s33.833 34.667 44.5 50zM754.001 460.005c3.33301 11.333 4.99902 19.332 4.99902 23.999
c0 13.333 -4.83301 24.333 -14.5 33s-23.167 13 -40.5 13c-21.333 0 -41.833 -6.83301 -61.5 -20.5s-33.167 -30.167 -40.5 -49.5c-2.66699 -5.33301 -4 -13 -4 -23c0 -14 4.83301 -25.5 14.5 -34.5s23.167 -13.5 40.5 -13.5c10.667 0 21.334 1.83301 32.001 5.5
s20.5 8.83398 29.5 15.501s17 14.167 24 22.5s12.167 17.5 15.5 27.5z" />
    <glyph glyph-name="FL00C0h" unicode="&#xc0;" 
d="M335 134h203l-35 235l-168 -225v-10zM559 0l-21.0029 113.003c-1.33301 -4 -6.16602 -11.667 -14.499 -23s-17.666 -23.333 -27.999 -36s-20.5 -24.334 -30.5 -35.001s-17.333 -17 -22 -19h-423c1.33301 5.33301 2 7.66602 2 6.99902v3l360 460c2 4 6 9.33301 12 16
s12.5 13.167 19.5 19.5s14 12 21 17s12.833 7.5 17.5 7.5h168c6.66699 0 12.834 -3.66699 18.501 -11s10.5 -16.333 14.5 -27s7.5 -21.834 10.5 -33.501l7.5 -29.5l66 -429h-178zM600.997 665.003c0 -6.66699 0.829102 -13.502 2.49609 -20.502
s0.833984 -15.167 -2.49902 -24.5c-2.66699 -6 -5.66699 -11.5 -9 -16.5s-7.66602 -8.83301 -12.999 -11.5l-6 -4c-1.33301 -1.33301 -5 -2 -11 -2c-9.33301 0 -19.166 3.33301 -29.499 10s-17.166 14.334 -20.499 23.001l-6 23c-1.33301 4 -2.5 8 -3.5 12
s-0.5 8.33301 1.5 13c6.66699 16.667 19 30.667 37 42c14 5.33301 23.333 8 28 8c7.33301 0 12.833 -3.16699 16.5 -9.5s6.16699 -13.166 7.5 -20.499z" />
    <glyph glyph-name="FL00C1h" unicode="&#xc1;" 
d="M335 134h203l-35 235l-168 -225v-10zM559 0l-21.0029 113.003c-1.33301 -4 -6.16602 -11.667 -14.499 -23s-17.666 -23.333 -27.999 -36s-20.5 -24.334 -30.5 -35.001s-17.333 -17 -22 -19h-423c1.33301 5.33301 2 7.66602 2 6.99902v3l360 460c2 4 6 9.33301 12 16
s12.5 13.167 19.5 19.5s14 12 21 17s12.833 7.5 17.5 7.5h168c6.66699 0 12.834 -3.66699 18.501 -11s10.5 -16.333 14.5 -27s7.5 -21.834 10.5 -33.501l7.5 -29.5l66 -429h-178zM534.997 666.003l23.998 22.002c7.33301 7.33301 15 14.166 23 20.499s15.667 9.5 23 9.5
s14.666 -2.66699 21.999 -8c11.333 -11.333 13.666 -25.333 6.99902 -42c-1.33301 -4.66699 -4 -9 -8 -13l-12 -12l-23 -23c-9.33301 -8.66699 -21.666 -16.334 -36.999 -23.001s-27.666 -10 -36.999 -10c-5.33301 0 -8.66602 0.666992 -9.99902 2l-3 4
c-3.33301 2.66699 -4.83301 6.5 -4.5 11.5s1.5 10.5 3.5 16.5c3.33301 9.33301 8.33301 17.5 15 24.5s12.334 13.833 17.001 20.5z" />
    <glyph glyph-name="FL00C2h" unicode="&#xc2;" 
d="M335 134h203l-35 235l-168 -225v-10zM559 0l-21.0029 113.003c-1.33301 -4 -6.16602 -11.667 -14.499 -23s-17.666 -23.333 -27.999 -36s-20.5 -24.334 -30.5 -35.001s-17.333 -17 -22 -19h-423c1.33301 5.33301 2 7.66602 2 6.99902v3l360 460c2 4 6 9.33301 12 16
s12.5 13.167 19.5 19.5s14 12 21 17s12.833 7.5 17.5 7.5h168c6.66699 0 12.834 -3.66699 18.501 -11s10.5 -16.333 14.5 -27s7.5 -21.834 10.5 -33.501l7.5 -29.5l66 -429h-178zM566.997 652.003l-57.001 -59c-61.333 -0.666992 -91.666 -0.666992 -90.999 0l107 105
c3.33301 2 6.83301 4.5 10.5 7.5s7.16699 4.5 10.5 4.5h62c5.33301 0 10.5 -2.83301 15.5 -8.5s8.83301 -10.5 11.5 -14.5l47 -94h-82z" />
    <glyph glyph-name="FL00C3h" unicode="&#xc3;" 
d="M335 134h203l-35 235l-168 -225v-10zM559 0l-21.0029 113.003c-1.33301 -4 -6.16602 -11.667 -14.499 -23s-17.666 -23.333 -27.999 -36s-20.5 -24.334 -30.5 -35.001s-17.333 -17 -22 -19h-423c1.33301 5.33301 2 7.66602 2 6.99902v3l360 460c2 4 6 9.33301 12 16
s12.5 13.167 19.5 19.5s14 12 21 17s12.833 7.5 17.5 7.5h168c6.66699 0 12.834 -3.66699 18.501 -11s10.5 -16.333 14.5 -27s7.5 -21.834 10.5 -33.501l7.5 -29.5l66 -429h-178zM632.997 651.003l57.999 59h91l-1.5 -2c-1 -1.33301 -4.83301 -5.33301 -11.5 -12l-32 -31
l-62 -60l-10.5 -7.5c-4.33301 -3 -8.16602 -4.5 -11.499 -4.5h-82l-33 59l-58 -59h-91l107 105c3.33301 2 7 4.5 11 7.5s7.66699 4.5 11 4.5h82z" />
    <glyph glyph-name="FL00C4h" unicode="&#xc4;" 
d="M335 134h203l-35 235l-168 -225v-10zM559 0l-21.0029 113.003c-1.33301 -4 -6.16602 -11.667 -14.499 -23s-17.666 -23.333 -27.999 -36s-20.5 -24.334 -30.5 -35.001s-17.333 -17 -22 -19h-423c1.33301 5.33301 2 7.66602 2 6.99902v3l360 460c2 4 6 9.33301 12 16
s12.5 13.167 19.5 19.5s14 12 21 17s12.833 7.5 17.5 7.5h168c6.66699 0 12.834 -3.66699 18.501 -11s10.5 -16.333 14.5 -27s7.5 -21.834 10.5 -33.501l7.5 -29.5l66 -429h-178zM418.997 653.003c6 16.667 17 30.667 33 42s33 17 51 17s31.167 -5.66699 39.5 -17
s9.5 -25.333 3.5 -42s-17.333 -30.667 -34 -42s-34 -17 -52 -17s-30.833 5.66699 -38.5 17s-8.5 25.333 -2.5 42zM726.997 653.003c-6 -16.667 -17.167 -30.667 -33.5 -42s-33.5 -17 -51.5 -17s-31 5.66699 -39 17s-9 25.333 -3 42s17.167 30.667 33.5 42s33.5 17 51.5 17
s31 -5.66699 39 -17s9 -25.333 3 -42z" />
    <glyph glyph-name="FL00C5h" unicode="&#xc5;" 
d="M335 134h203l-35 235l-168 -225v-10zM559 0l-21.0029 113.003c-1.33301 -4 -6.16602 -11.667 -14.499 -23s-17.666 -23.333 -27.999 -36s-20.5 -24.334 -30.5 -35.001s-17.333 -17 -22 -19h-423c1.33301 5.33301 2 7.66602 2 6.99902v3l360 460c2 4 6 9.33301 12 16
s12.5 13.167 19.5 19.5s14 12 21 17s12.833 7.5 17.5 7.5h168c6.66699 0 12.834 -3.66699 18.501 -11s10.5 -16.333 14.5 -27s7.5 -21.834 10.5 -33.501l7.5 -29.5l66 -429h-178zM510.997 653.003c6 16.667 17 30.667 33 42s33 17 51 17s31.167 -5.66699 39.5 -17
s9.5 -25.333 3.5 -42s-17.333 -30.667 -34 -42s-34 -17 -52 -17s-30.833 5.66699 -38.5 17s-8.5 25.333 -2.5 42z" />
    <glyph glyph-name="FL00C6h" unicode="&#xc6;" horiz-adv-x="1163" 
d="M754 530l570.002 0.00292969c-4.66699 -9.33301 -12.5 -21.5 -23.5 -36.5s-22.667 -29.833 -35 -44.5s-24.333 -27.334 -36 -38.001s-20.167 -16 -25.5 -16h-308l-57 -157l95 92h231l-143 -135h-199l-22 -60h383c-0.666992 -1.33301 -2.33398 -4.16602 -5.00098 -8.49902
l-8 -13.5c-2.66699 -4.66699 -5.33398 -9 -8.00098 -13s-4.33398 -6.33301 -5.00098 -7c-6 -8 -14.167 -17.333 -24.5 -28l-30.5 -30.5c-10 -9.66699 -18.833 -17.834 -26.5 -24.501s-11.834 -10 -12.501 -10h-505l-21 113c-1.33301 -4 -6.16602 -11.667 -14.499 -23
s-17.666 -23.333 -27.999 -36s-20.5 -24.334 -30.5 -35.001s-17.333 -17 -22 -19h-423c1.33301 5.33301 2 7.66602 2 6.99902v3l360 460c2 4 6 9.33301 12 16s12.5 13.167 19.5 19.5s14 12 21 17s12.833 7.5 17.5 7.5h168c6 0 12 -3.66699 18 -11s11.333 -16.333 16 -27
s8.5 -21.667 11.5 -33s4.83301 -21.333 5.5 -30l14 -89zM335.002 144.003v-10h203l-35 235z" />
    <glyph glyph-name="FL00C7h" unicode="&#xc7;" horiz-adv-x="631" 
d="M108 -116h260.999l42 117c2.66699 -0.666992 6.66699 -1 12 -1h11h24h80c25.333 20 47.666 41.833 66.999 65.5s36.666 46.834 51.999 69.501h-239c-11.333 0 -23.166 4 -35.499 12s-23.666 18 -33.999 30s-18.833 25.167 -25.5 39.5s-10 27.833 -10 40.5
c0 10 2.66699 23.667 8 41c4 11.333 9.33301 22.833 16 34.5s14.167 22.167 22.5 31.5s17.5 16.833 27.5 22.5s20.333 8.5 31 8.5h260c23.333 20 44.833 41.167 64.5 63.5s39.167 46.166 58.5 71.499h-413c-35.333 0 -68.666 -8.83301 -99.999 -26.5s-59 -40.5 -83 -68.5
s-43 -59 -57 -93s-21 -67 -21 -99s4.33301 -60.333 13 -85s20.667 -46 36 -64s33.5 -33 54.5 -45s43.833 -21.667 68.5 -29l-16 -44h-53z" />
    <glyph glyph-name="FL00C8h" unicode="&#xc8;" horiz-adv-x="625" 
d="M28 0l193.004 530.001h570c-4.66699 -9.33301 -12.5 -21.5 -23.5 -36.5s-22.667 -29.833 -35 -44.5s-24.333 -27.334 -36 -38.001s-20.167 -16 -25.5 -16h-308l-57 -157l95 92h231l-143 -135h-199l-22 -60h383c-0.666992 -1.33301 -2.33398 -4.16602 -5.00098 -8.49902
l-8 -13.5c-2.66699 -4.66699 -5.33398 -9 -8.00098 -13s-4.33398 -6.33301 -5.00098 -7c-6 -8 -14.167 -17.333 -24.5 -28l-30.5 -30.5c-10 -9.66699 -18.833 -17.834 -26.5 -24.501s-11.834 -10 -12.501 -10h-503zM550.004 692.001l7.99902 -22.002
c0 -6.66699 0.666992 -13.5 2 -20.5s0.333008 -15.167 -3 -24.5c-2 -6 -4.66699 -11.5 -8 -16.5s-7.66602 -8.83301 -12.999 -11.5l-6 -4c-5.33301 -1.33301 -9 -2 -11 -2c-9.33301 0 -19.166 3.33301 -29.499 10s-17.166 14.334 -20.499 23.001l-7 23
c-1.33301 4 -2.33301 8 -3 12s0 8.33301 2 13c5.33301 17.333 17.666 31.333 36.999 42c14 5.33301 23.333 8 28 8c7.33301 0 12.666 -3.16699 15.999 -9.5s6 -13.166 8 -20.499z" />
    <glyph glyph-name="FL00C9h" unicode="&#xc9;" horiz-adv-x="625" 
d="M28 0l193.004 530.001h570c-4.66699 -9.33301 -12.5 -21.5 -23.5 -36.5s-22.667 -29.833 -35 -44.5s-24.333 -27.334 -36 -38.001s-20.167 -16 -25.5 -16h-308l-57 -157l95 92h231l-143 -135h-199l-22 -60h383c-0.666992 -1.33301 -2.33398 -4.16602 -5.00098 -8.49902
l-8 -13.5c-2.66699 -4.66699 -5.33398 -9 -8.00098 -13s-4.33398 -6.33301 -5.00098 -7c-6 -8 -14.167 -17.333 -24.5 -28l-30.5 -30.5c-10 -9.66699 -18.833 -17.834 -26.5 -24.501s-11.834 -10 -12.501 -10h-503zM493.004 671.001l24.0049 22
c7.33301 7.33301 15 14.166 23 20.499s15.667 9.5 23 9.5s14.666 -2.66699 21.999 -8c11.333 -11.333 13.666 -25.333 6.99902 -42c-1.33301 -4.66699 -4 -9 -8 -13l-12 -12l-24 -23c-4.66699 -4 -10.167 -8 -16.5 -12s-13 -7.5 -20 -10.5s-13.833 -5.5 -20.5 -7.5
s-12.334 -3 -17.001 -3s-7.66699 0.666992 -9 2l-3 4c-3.33301 3.33301 -5 7 -5 11c0 6.66699 1.33301 12.334 4 17.001c3.33301 9.33301 8.16602 17.5 14.499 24.5s12.166 13.833 17.499 20.5z" />
    <glyph glyph-name="FL00CAh" unicode="&#xca;" horiz-adv-x="625" 
d="M28 0l193.004 530.001h570c-4.66699 -9.33301 -12.5 -21.5 -23.5 -36.5s-22.667 -29.833 -35 -44.5s-24.333 -27.334 -36 -38.001s-20.167 -16 -25.5 -16h-308l-57 -157l95 92h231l-143 -135h-199l-22 -60h383c-0.666992 -1.33301 -2.33398 -4.16602 -5.00098 -8.49902
l-8 -13.5c-2.66699 -4.66699 -5.33398 -9 -8.00098 -13s-4.33398 -6.33301 -5.00098 -7c-6 -8 -14.167 -17.333 -24.5 -28l-30.5 -30.5c-10 -9.66699 -18.833 -17.834 -26.5 -24.501s-11.834 -10 -12.501 -10h-503zM528.004 655.001l-58.9971 -59h-91l107 105
c3.33301 2 7.16602 4.5 11.499 7.5s8.16602 4.5 11.499 4.5h62c5.33301 0 10.166 -2.83301 14.499 -8.5s7.83301 -10.5 10.5 -14.5l47 -94h-82z" />
    <glyph glyph-name="FL00CBh" unicode="&#xcb;" horiz-adv-x="625" 
d="M28 0l193.004 530.001h570c-4.66699 -9.33301 -12.5 -21.5 -23.5 -36.5s-22.667 -29.833 -35 -44.5s-24.333 -27.334 -36 -38.001s-20.167 -16 -25.5 -16h-308l-57 -157l95 92h231l-143 -135h-199l-22 -60h383c-0.666992 -1.33301 -2.33398 -4.16602 -5.00098 -8.49902
l-8 -13.5c-2.66699 -4.66699 -5.33398 -9 -8.00098 -13s-4.33398 -6.33301 -5.00098 -7c-6 -8 -14.167 -17.333 -24.5 -28l-30.5 -30.5c-10 -9.66699 -18.833 -17.834 -26.5 -24.501s-11.834 -10 -12.501 -10h-503zM391.004 653.001c6 16.667 17 30.667 33 42s33 17 51 17
s31.167 -5.66699 39.5 -17s9.5 -25.333 3.5 -42s-17.333 -30.667 -34 -42s-34 -17 -52 -17s-30.833 5.66699 -38.5 17s-8.5 25.333 -2.5 42zM699.004 653.001c-6 -16.667 -17.167 -30.667 -33.5 -42s-33.5 -17 -51.5 -17s-31 5.66699 -39 17s-9 25.333 -3 42
s17.167 30.667 33.5 42s33.5 17 51.5 17s31 -5.66699 39 -17s9 -25.333 3 -42z" />
    <glyph glyph-name="FL00CCh" unicode="&#xcc;" horiz-adv-x="248" 
d="M392 666c0.666992 -6.66699 1.66699 -13.502 3 -20.502s0.333008 -15.167 -3 -24.5c-2 -6 -4.66699 -11.5 -8 -16.5s-7.66602 -8.83301 -12.999 -11.5l-7 -4c-1.33301 -1.33301 -4.66602 -2 -9.99902 -2c-9.33301 0 -19.333 3.33301 -30 10
s-17.334 14.334 -20.001 23.001l-7 23c-1.33301 4 -2.33301 8 -3 12s-0.333984 8.33301 0.999023 13c6.66699 16.667 19 30.667 37 42c14 5.33301 23.333 8 28 8c7.33301 0 12.833 -3.16699 16.5 -9.5s6.16699 -13.166 7.5 -20.499zM221 529.998h192l-193 -530h-192z" />
    <glyph glyph-name="FL00CDh" unicode="&#xcd;" horiz-adv-x="248" 
d="M220 0h-192l193 530h192zM324 668l24.0049 22c7.33301 7.33301 15 14.166 23 20.499s15.667 9.5 23 9.5s14.666 -2.66699 21.999 -8c11.333 -11.333 13.666 -25.333 6.99902 -42c-1.33301 -4.66699 -4 -9 -8 -13l-12 -12l-24 -23c-4.66699 -4 -10.167 -8 -16.5 -12
s-13 -7.5 -20 -10.5s-13.833 -5.5 -20.5 -7.5s-12.334 -3 -17.001 -3s-7.66699 0.666992 -9 2l-3 4c-3.33301 3.33301 -5 7 -5 11c0 6.66699 1.33301 12.334 4 17.001c3.33301 9.33301 8.16602 17.5 14.499 24.5s12.166 13.833 17.499 20.5z" />
    <glyph glyph-name="FL00CEh" unicode="&#xce;" horiz-adv-x="248" 
d="M220 0h-192l193 530h192zM358 654l-58 -59h-91l107 105l10.5 7.5c4.33301 3 8.16602 4.5 11.499 4.5h62c5.33301 0 10.333 -2.83301 15 -8.5s8.33398 -10.5 11.001 -14.5l47 -94h-82z" />
    <glyph glyph-name="FL00CFh" unicode="&#xcf;" horiz-adv-x="248" 
d="M220 0h-192l193 530h192zM210 653c6 16.667 17 30.667 33 42s33 17 51 17s31.167 -5.66699 39.5 -17s9.5 -25.333 3.5 -42s-17.333 -30.667 -34 -42s-34 -17 -52 -17s-30.833 5.66699 -38.5 17s-8.5 25.333 -2.5 42zM518 653c-6 -16.667 -17.167 -30.667 -33.5 -42
s-33.5 -17 -51.5 -17s-31 5.66699 -39 17s-9 25.333 -3 42s17.167 30.667 33.5 42s33.5 17 51.5 17s31 -5.66699 39 -17s9 -25.333 3 -42z" />
    <glyph glyph-name="FL00D0h" unicode="&#xd0;" horiz-adv-x="773" 
d="M817 243c-32 -43.333 -63.833 -80.5 -95.5 -111.5s-64.5 -56.167 -98.5 -75.5s-70.333 -33.5 -109 -42.5s-81 -13.5 -127 -13.5h-249l71 195h-120l143 135h26l73 200h435c34 0 60.333 -9 79 -27s30 -40.833 34 -68.5s0.666992 -58.5 -10 -92.5s-28 -67 -52 -99zM430 195
l-27.001 -0.000976562l-22 -60h30c14.667 0 32.834 4 54.501 12s43.5 18 65.5 30s42.333 25.167 61 39.5s32.667 27.833 42 40.5l13.5 18c5 6.66699 9.16699 14.334 12.5 23.001c8 20.667 12 39.667 12 57c0 11.333 -2.5 20.833 -7.5 28.5s-13.833 11.5 -26.5 11.5h-162
l-24 -65h121z" />
    <glyph glyph-name="FL00D1h" unicode="&#xd1;" horiz-adv-x="654" 
d="M220 0h-192l193 530h242l57 -298l109 298h190l-193 -530h-242l-56 298zM592 651l57.999 59h91l-1.5 -2c-1 -1.33301 -4.83301 -5.33301 -11.5 -12l-32 -31l-62 -60l-10.5 -7.5c-4.33301 -3 -8.16602 -4.5 -11.499 -4.5h-82l-33 59l-58 -59h-91l107 105
c3.33301 2 7 4.5 11 7.5s7.66699 4.5 11 4.5h82z" />
    <glyph glyph-name="FL00D2h" unicode="&#xd2;" horiz-adv-x="721" 
d="M305 257c-2 -12.667 -0.999023 -26.168 3.00098 -40.501s10 -27.5 18 -39.5s17.667 -22 29 -30s23.666 -12 36.999 -12h66c8 0 18.167 2.83301 30.5 8.5s25 13.167 38 22.5s25.333 19.833 37 31.5s20.5 23.167 26.5 34.5c6 9.33301 9.66699 16.666 11 21.999l4 10
c1.33301 6.66699 2 9.66699 2 9c0.666992 6.66699 1.16699 13.167 1.5 19.5s0.5 13.166 0.5 20.499c0 10.667 -1.33301 20.834 -4 30.501s-7 18.334 -13 26.001s-14.167 13.834 -24.5 18.501s-23.166 7 -38.499 7h-81c-10.667 0 -22.167 -2.83301 -34.5 -8.5
s-24.5 -13.167 -36.5 -22.5s-23.167 -19.833 -33.5 -31.5s-18.5 -23.167 -24.5 -34.5l-9 -22.5c-2.66699 -7 -4.33398 -13.167 -5.00098 -18.5zM797.001 286.999c-4.66699 -32 -17.0039 -64.998 -37.0039 -98.998s-44.833 -65 -74.5 -93s-63.167 -50.833 -100.5 -68.5
s-76 -26.5 -116 -26.5h-100c-40.667 0 -78 3.66699 -112 11s-62.5 20.166 -85.5 38.499s-39.667 43.166 -50 74.499s-12.166 71 -5.49902 119c4.66699 32 16.834 65 36.501 99s43.834 65 72.501 93s60.334 50.833 95.001 68.5s69.667 26.5 105 26.5h132
c40.667 0 77.5 -4.5 110.5 -13.5s60.167 -23.167 81.5 -42.5s36.5 -44.333 45.5 -75s9.83301 -68 2.5 -112zM620.997 690.001l7.99805 -22.002c0 -6.66699 0.833008 -13.5 2.5 -20.5s0.833984 -15.167 -2.49902 -24.5c-2.66699 -6 -5.66699 -11.5 -9 -16.5
s-7.33301 -8.83301 -12 -11.5l-7 -4c-1.33301 -1.33301 -5 -2 -11 -2c-9.33301 0 -19.166 3.33301 -29.499 10s-17.166 14.334 -20.499 23.001l-6 23c-1.33301 4 -2.33301 8 -3 12s-0.333984 8.33301 0.999023 13c6.66699 16.667 19 30.667 37 42c14 5.33301 23.333 8 28 8
c7.33301 0 12.833 -3.16699 16.5 -9.5s6.16699 -13.166 7.5 -20.499z" />
    <glyph glyph-name="FL00D3h" unicode="&#xd3;" horiz-adv-x="721" 
d="M305 257c-2 -12.667 -0.999023 -26.168 3.00098 -40.501s10 -27.5 18 -39.5s17.667 -22 29 -30s23.666 -12 36.999 -12h66c8 0 18.167 2.83301 30.5 8.5s25 13.167 38 22.5s25.333 19.833 37 31.5s20.5 23.167 26.5 34.5c6 9.33301 9.66699 16.666 11 21.999l4 10
c1.33301 6.66699 2 9.66699 2 9c0.666992 6.66699 1.16699 13.167 1.5 19.5s0.5 13.166 0.5 20.499c0 10.667 -1.33301 20.834 -4 30.501s-7 18.334 -13 26.001s-14.167 13.834 -24.5 18.501s-23.166 7 -38.499 7h-81c-10.667 0 -22.167 -2.83301 -34.5 -8.5
s-24.5 -13.167 -36.5 -22.5s-23.167 -19.833 -33.5 -31.5s-18.5 -23.167 -24.5 -34.5l-9 -22.5c-2.66699 -7 -4.33398 -13.167 -5.00098 -18.5zM797.001 286.999c-4.66699 -32 -17.0039 -64.998 -37.0039 -98.998s-44.833 -65 -74.5 -93s-63.167 -50.833 -100.5 -68.5
s-76 -26.5 -116 -26.5h-100c-40.667 0 -78 3.66699 -112 11s-62.5 20.166 -85.5 38.499s-39.667 43.166 -50 74.499s-12.166 71 -5.49902 119c4.66699 32 16.834 65 36.501 99s43.834 65 72.501 93s60.334 50.833 95.001 68.5s69.667 26.5 105 26.5h132
c40.667 0 77.5 -4.5 110.5 -13.5s60.167 -23.167 81.5 -42.5s36.5 -44.333 45.5 -75s9.83301 -68 2.5 -112zM556.997 668.001l24.0049 22c7.33301 7.33301 15 14.166 23 20.499s15.667 9.5 23 9.5s14.666 -2.66699 21.999 -8c11.333 -11.333 13.666 -25.333 6.99902 -42
c-1.33301 -4.66699 -4 -9 -8 -13l-12 -12l-24 -23c-4.66699 -4 -10.167 -8 -16.5 -12s-13 -7.5 -20 -10.5s-13.833 -5.5 -20.5 -7.5s-12.334 -3 -17.001 -3s-7.66699 0.666992 -9 2l-3 4c-3.33301 3.33301 -5 7 -5 11c0 6.66699 1.33301 12.334 4 17.001
c3.33301 9.33301 8.16602 17.5 14.499 24.5s12.166 13.833 17.499 20.5z" />
    <glyph glyph-name="FL00D4h" unicode="&#xd4;" horiz-adv-x="721" 
d="M305 257c-2 -12.667 -0.999023 -26.168 3.00098 -40.501s10 -27.5 18 -39.5s17.667 -22 29 -30s23.666 -12 36.999 -12h66c8 0 18.167 2.83301 30.5 8.5s25 13.167 38 22.5s25.333 19.833 37 31.5s20.5 23.167 26.5 34.5c6 9.33301 9.66699 16.666 11 21.999l4 10
c1.33301 6.66699 2 9.66699 2 9c0.666992 6.66699 1.16699 13.167 1.5 19.5s0.5 13.166 0.5 20.499c0 10.667 -1.33301 20.834 -4 30.501s-7 18.334 -13 26.001s-14.167 13.834 -24.5 18.501s-23.166 7 -38.499 7h-81c-10.667 0 -22.167 -2.83301 -34.5 -8.5
s-24.5 -13.167 -36.5 -22.5s-23.167 -19.833 -33.5 -31.5s-18.5 -23.167 -24.5 -34.5l-9 -22.5c-2.66699 -7 -4.33398 -13.167 -5.00098 -18.5zM797.001 286.999c-4.66699 -32 -17.0039 -64.998 -37.0039 -98.998s-44.833 -65 -74.5 -93s-63.167 -50.833 -100.5 -68.5
s-76 -26.5 -116 -26.5h-100c-40.667 0 -78 3.66699 -112 11s-62.5 20.166 -85.5 38.499s-39.667 43.166 -50 74.499s-12.166 71 -5.49902 119c4.66699 32 16.834 65 36.501 99s43.834 65 72.501 93s60.334 50.833 95.001 68.5s69.667 26.5 105 26.5h132
c40.667 0 77.5 -4.5 110.5 -13.5s60.167 -23.167 81.5 -42.5s36.5 -44.333 45.5 -75s9.83301 -68 2.5 -112zM579.997 653.001l-58.9971 -59h-91l107 105c3.33301 2 7.16602 4.5 11.499 7.5s8.16602 4.5 11.499 4.5h62c5.33301 0 10.166 -2.83301 14.499 -8.5
s7.83301 -10.5 10.5 -14.5l47 -94h-82z" />
    <glyph glyph-name="FL00D5h" unicode="&#xd5;" horiz-adv-x="721" 
d="M797 287c-4.66699 -32 -17.0039 -64.998 -37.0039 -98.998s-44.833 -65 -74.5 -93s-63.167 -50.833 -100.5 -68.5s-76 -26.5 -116 -26.5h-100c-40.667 0 -78 3.66699 -112 11s-62.5 20.166 -85.5 38.499s-39.667 43.166 -50 74.499s-12.166 71 -5.49902 119
c4.66699 32 16.834 65 36.501 99s43.834 65 72.501 93s60.334 50.833 95.001 68.5s69.667 26.5 105 26.5h132c40.667 0 77.5 -4.5 110.5 -13.5s60.167 -23.167 81.5 -42.5s36.5 -44.333 45.5 -75s9.83301 -68 2.5 -112zM304.996 257.002
c-2 -12.667 -0.999023 -26.168 3.00098 -40.501s10 -27.5 18 -39.5s17.667 -22 29 -30s23.666 -12 36.999 -12h66c8 0 18.167 2.83301 30.5 8.5s25 13.167 38 22.5s25.333 19.833 37 31.5s20.5 23.167 26.5 34.5c6 9.33301 9.66699 16.666 11 21.999l4 10
c1.33301 6.66699 2 9.66699 2 9c0.666992 6.66699 1.16699 13.167 1.5 19.5s0.5 13.166 0.5 20.499c0 10.667 -1.33301 20.834 -4 30.501s-7 18.334 -13 26.001s-14.167 13.834 -24.5 18.501s-23.166 7 -38.499 7h-81c-10.667 0 -22.167 -2.83301 -34.5 -8.5
s-24.5 -13.167 -36.5 -22.5s-23.167 -19.833 -33.5 -31.5s-18.5 -23.167 -24.5 -34.5l-9 -22.5c-2.66699 -7 -4.33398 -13.167 -5.00098 -18.5zM627.997 651.001l57.999 59h91l-1.5 -2c-1 -1.33301 -4.83301 -5.33301 -11.5 -12l-32 -31l-62 -60l-10.5 -7.5
c-4.33301 -3 -8.16602 -4.5 -11.499 -4.5h-82l-33 59l-58 -59h-91l107 105c3.33301 2 7 4.5 11 7.5s7.66699 4.5 11 4.5h82z" />
    <glyph glyph-name="FL00D6h" unicode="&#xd6;" horiz-adv-x="721" 
d="M305 257c-2 -12.667 -0.999023 -26.168 3.00098 -40.501s10 -27.5 18 -39.5s17.667 -22 29 -30s23.666 -12 36.999 -12h66c8 0 18.167 2.83301 30.5 8.5s25 13.167 38 22.5s25.333 19.833 37 31.5s20.5 23.167 26.5 34.5c6 9.33301 9.66699 16.666 11 21.999l4 10
c1.33301 6.66699 2 9.66699 2 9c0.666992 6.66699 1.16699 13.167 1.5 19.5s0.5 13.166 0.5 20.499c0 10.667 -1.33301 20.834 -4 30.501s-7 18.334 -13 26.001s-14.167 13.834 -24.5 18.501s-23.166 7 -38.499 7h-81c-10.667 0 -22.167 -2.83301 -34.5 -8.5
s-24.5 -13.167 -36.5 -22.5s-23.167 -19.833 -33.5 -31.5s-18.5 -23.167 -24.5 -34.5l-9 -22.5c-2.66699 -7 -4.33398 -13.167 -5.00098 -18.5zM797.001 286.999c-4.66699 -32 -17.0039 -64.998 -37.0039 -98.998s-44.833 -65 -74.5 -93s-63.167 -50.833 -100.5 -68.5
s-76 -26.5 -116 -26.5h-100c-40.667 0 -78 3.66699 -112 11s-62.5 20.166 -85.5 38.499s-39.667 43.166 -50 74.499s-12.166 71 -5.49902 119c4.66699 32 16.834 65 36.501 99s43.834 65 72.501 93s60.334 50.833 95.001 68.5s69.667 26.5 105 26.5h132
c40.667 0 77.5 -4.5 110.5 -13.5s60.167 -23.167 81.5 -42.5s36.5 -44.333 45.5 -75s9.83301 -68 2.5 -112zM436.997 653.001c6 16.667 17 30.667 33 42s33 17 51 17s31.167 -5.66699 39.5 -17s9.5 -25.333 3.5 -42s-17.333 -30.667 -34 -42s-34 -17 -52 -17
s-30.833 5.66699 -38.5 17s-8.5 25.333 -2.5 42zM744.997 653.001c-6 -16.667 -17.167 -30.667 -33.5 -42s-33.5 -17 -51.5 -17s-31 5.66699 -39 17s-9 25.333 -3 42s17.167 30.667 33.5 42s33.5 17 51.5 17s31 -5.66699 39 -17s9 -25.333 3 -42z" />
    <glyph glyph-name="FL00D7h" unicode="&#xd7;" horiz-adv-x="399" 
d="M187 125l82 65l33 -65h124l-69 137l168 136h-124l-79 -64l-34 64h-124l68 -136l-169 -137h124z" />
    <glyph glyph-name="FL00D8h" unicode="&#xd8;" horiz-adv-x="721" 
d="M797 287c-4.66699 -32 -17.0039 -64.998 -37.0039 -98.998s-44.833 -65 -74.5 -93s-63.167 -50.833 -100.5 -68.5s-76 -26.5 -116 -26.5h-100c-40.667 0 -78 3.66699 -112 11s-62.5 20.166 -85.5 38.499s-39.667 43.166 -50 74.499s-12.166 71 -5.49902 119
c4.66699 32 16.834 65 36.501 99s43.834 65 72.501 93s60.334 50.833 95.001 68.5s69.667 26.5 105 26.5h132c40.667 0 77.5 -4.5 110.5 -13.5s60.167 -23.167 81.5 -42.5s36.5 -44.333 45.5 -75s9.83301 -68 2.5 -112zM606.996 273.002c2 16.667 2 34.668 0 54.001
l-252 -180c10.667 -8 23 -12 37 -12h66c8 0 18.167 2.83301 30.5 8.5s25 13.167 38 22.5s25.333 19.833 37 31.5s20.5 23.167 26.5 34.5c6 9.33301 9.66699 16.666 11 21.999l4 10c1.33301 6.66699 2 9.66699 2 9zM304.996 257.003
c-1.33301 -7.33301 -1.66602 -14.833 -0.999023 -22.5s2 -15.167 4 -22.5l253 178c-13.333 3.33301 -24 5 -32 5h-81c-10.667 0 -22.167 -2.83301 -34.5 -8.5s-24.5 -13.167 -36.5 -22.5s-23.167 -19.833 -33.5 -31.5s-18.5 -23.167 -24.5 -34.5l-9 -22.5
c-2.66699 -7 -4.33398 -13.167 -5.00098 -18.5z" />
    <glyph glyph-name="FL00D9h" unicode="&#xd9;" horiz-adv-x="682" 
d="M142 308l78.998 222.002h189l-54 -158.5l-28 -84.5c-6 -18.667 -9.66699 -30.5 -11 -35.5s-2 -8.5 -2 -10.5c-4.66699 -32 -2.5 -57.667 6.5 -77s25.833 -29 50.5 -29h49c16 0 30.833 3.33301 44.5 10s25.834 15 36.501 25s20 20.667 28 32s14.333 21.666 19 30.999
l108 297h190l-90 -247c-16.667 -46 -33.667 -86.5 -51 -121.5s-37 -64.5 -59 -88.5s-47.333 -42.167 -76 -54.5s-63 -18.5 -103 -18.5h-117c-93.333 0 -159.666 14.833 -198.999 44.5s-52.333 80.167 -39 151.5c3.33301 17.333 7.5 34.666 12.5 51.999zM602.998 689.002
l7.99805 -22.002c0 -6.66699 0.666992 -13.5 2 -20.5s0.333008 -15.167 -3 -24.5c-2 -6 -4.66699 -11.5 -8 -16.5s-7.66602 -8.83301 -12.999 -11.5l-6 -4c-5.33301 -1.33301 -9 -2 -11 -2c-9.33301 0 -19.166 3.33301 -29.499 10s-17.166 14.334 -20.499 23.001l-7 23
c-1.33301 4 -2.33301 8 -3 12s-0.333984 8.33301 0.999023 13c6.66699 16.667 19.334 30.667 38.001 42c14 5.33301 23.333 8 28 8c7.33301 0 12.666 -3.16699 15.999 -9.5s6 -13.166 8 -20.499z" />
    <glyph glyph-name="FL00DAh" unicode="&#xda;" horiz-adv-x="682" 
d="M142 308l78.998 222.002h189l-54 -158.5l-28 -84.5c-6 -18.667 -9.66699 -30.5 -11 -35.5s-2 -8.5 -2 -10.5c-4.66699 -32 -2.5 -57.667 6.5 -77s25.833 -29 50.5 -29h49c16 0 30.833 3.33301 44.5 10s25.834 15 36.501 25s20 20.667 28 32s14.333 21.666 19 30.999
l108 297h190l-90 -247c-16.667 -46 -33.667 -86.5 -51 -121.5s-37 -64.5 -59 -88.5s-47.333 -42.167 -76 -54.5s-63 -18.5 -103 -18.5h-117c-93.333 0 -159.666 14.833 -198.999 44.5s-52.333 80.167 -39 151.5c3.33301 17.333 7.5 34.666 12.5 51.999zM543.998 667.002
l24.002 22.001c7.33301 7.33301 15 14.166 23 20.499s15.667 9.5 23 9.5s14.666 -2.66699 21.999 -8c10.667 -11.333 12.667 -25.333 6 -42c-1.33301 -4.66699 -4 -9 -8 -13l-12 -12l-23 -23c-4.66699 -4 -10.167 -8 -16.5 -12s-13 -7.5 -20 -10.5s-13.833 -5.5 -20.5 -7.5
s-12.334 -3 -17.001 -3c-6 0 -9 0.666992 -9 2l-4 4c-3.33301 2.66699 -4.83301 6.5 -4.5 11.5s1.5 10.5 3.5 16.5c3.33301 9.33301 8.33301 17.5 15 24.5s12.667 13.833 18 20.5z" />
    <glyph glyph-name="FL00DBh" unicode="&#xdb;" horiz-adv-x="682" 
d="M142 308l78.998 222.002h189l-54 -158.5l-28 -84.5c-6 -18.667 -9.66699 -30.5 -11 -35.5s-2 -8.5 -2 -10.5c-4.66699 -32 -2.5 -57.667 6.5 -77s25.833 -29 50.5 -29h49c16 0 30.833 3.33301 44.5 10s25.834 15 36.501 25s20 20.667 28 32s14.333 21.666 19 30.999
l108 297h190l-90 -247c-16.667 -46 -33.667 -86.5 -51 -121.5s-37 -64.5 -59 -88.5s-47.333 -42.167 -76 -54.5s-63 -18.5 -103 -18.5h-117c-93.333 0 -159.666 14.833 -198.999 44.5s-52.333 80.167 -39 151.5c3.33301 17.333 7.5 34.666 12.5 51.999zM562.998 653.002
l-58.001 -59h-91l107 105c3.33301 2 7 4.5 11 7.5s7.66699 4.5 11 4.5h62c5.33301 0 10.333 -2.83301 15 -8.5s8.33398 -10.5 11.001 -14.5l47 -94h-82z" />
    <glyph glyph-name="FL00DCh" unicode="&#xdc;" horiz-adv-x="682" 
d="M422 652c6 16.667 17.167 30.667 33.5 42s33.5 17 51.5 17s31 -5.66699 39 -17s9 -25.333 3 -42s-17.167 -30.667 -33.5 -42s-33.5 -17 -51.5 -17s-31 5.66699 -39 17s-9 25.333 -3 42zM142 308l78.998 222.002h189l-54 -158.5l-28 -84.5
c-6 -18.667 -9.66699 -30.5 -11 -35.5s-2 -8.5 -2 -10.5c-4.66699 -32 -2.5 -57.667 6.5 -77s25.833 -29 50.5 -29h49c16 0 30.833 3.33301 44.5 10s25.834 15 36.501 25s20 20.667 28 32s14.333 21.666 19 30.999l108 297h190l-90 -247
c-16.667 -46 -33.667 -86.5 -51 -121.5s-37 -64.5 -59 -88.5s-47.333 -42.167 -76 -54.5s-63 -18.5 -103 -18.5h-117c-93.333 0 -159.666 14.833 -198.999 44.5s-52.333 80.167 -39 151.5c3.33301 17.333 7.5 34.666 12.5 51.999zM729.998 652.002
c-6 -16.667 -17 -30.667 -33 -42s-33 -17 -51 -17s-31.167 5.66699 -39.5 17s-9.5 25.333 -3.5 42s17.333 30.667 34 42s34 17 52 17s30.833 -5.66699 38.5 -17s8.5 -25.333 2.5 -42z" />
    <glyph glyph-name="FL00DDh" unicode="&#xdd;" horiz-adv-x="656" 
d="M324 252l-113 278h214l50 -125l142 125h214l-315 -278l-92 -252h-192zM534 667l24.002 22.001c7.33301 7.33301 15 14.166 23 20.499s15.667 9.5 23 9.5s14.666 -2.66699 21.999 -8c10.667 -11.333 12.667 -25.333 6 -42c-1.33301 -4.66699 -4 -9 -8 -13l-12 -12l-23 -23
c-4.66699 -4 -10.167 -8 -16.5 -12s-13 -7.5 -20 -10.5s-13.833 -5.5 -20.5 -7.5s-12.334 -3 -17.001 -3c-6 0 -9 0.666992 -9 2l-4 4c-3.33301 2.66699 -4.83301 6.5 -4.5 11.5s1.5 10.5 3.5 16.5c3.33301 9.33301 8.33301 17.5 15 24.5s12.667 13.833 18 20.5z" />
    <glyph glyph-name="FL00DEh" unicode="&#xde;" horiz-adv-x="680" 
d="M28 0l193.002 530h192l-36 -100h267c16.667 0 31.334 -5.16699 44.001 -15.5s23 -23 31 -38s14.167 -31 18.5 -48s6.83301 -32.167 7.5 -45.5c0 -28 -6.83301 -53.667 -20.5 -77s-30.834 -43.5 -51.501 -60.5s-43.334 -30.167 -68.001 -39.5s-48.334 -14 -71.001 -14
h-281l-33 -92h-192zM327.002 294l-55 -152l96 85h160c0.666992 0 2.16699 1.5 4.5 4.5s4.83301 6.5 7.5 10.5s5 7.83301 7 11.5s3.33301 6.5 4 8.5l2 5c0 0.666992 -0.166992 1.66699 -0.5 3l-0.5 2c-2 3.33301 -5.5 7.83301 -10.5 13.5s-8.16699 8.5 -9.5 8.5h-205z" />
    <glyph glyph-name="FL00DFh" unicode="&#xdf;" horiz-adv-x="671" 
d="M-23 -141l192.006 0.00292969l194 535h187c1.33301 0 4.5 -2.83301 9.5 -8.5s8.5 -10.167 10.5 -13.5l0.5 -2c0.333008 -1.33301 0.833008 -2.33301 1.5 -3l-2 -5c-0.666992 -2 -2.16699 -4.83301 -4.5 -8.5l-7.5 -11.5c-2.66699 -4 -5.16699 -7.5 -7.5 -10.5
s-3.83301 -4.5 -4.5 -4.5h-36l-154 -135h146c0 -4.66699 -0.166992 -9.33398 -0.5 -14.001s-1.16602 -8 -2.49902 -10l-2 -5c-0.666992 -0.666992 -1.5 -1.66699 -2.5 -3l-1.5 -2c-2 -2 -5 -4.16699 -9 -6.5l-12 -7c-4 -2.33301 -7.66699 -4.33301 -11 -6l-5 -2.5h-114
c-18.667 -19.333 -36 -40.5 -52 -63.5l-50 -72.5h229c39.333 0 71.166 2.5 95.499 7.5s44.166 12.667 59.499 23s27.833 23.833 37.5 40.5s19.5 36.667 29.5 60l4 11c3.33301 8.66699 6.83301 19.167 10.5 31.5s5.5 23.166 5.5 32.499
c-0.666992 13.333 -4.33398 23.666 -11.001 30.999s-11.334 13.666 -14.001 18.999c9.33301 4 18.666 10.333 27.999 19s17.666 18.834 24.999 30.501s13.166 24 17.499 37s6.5 25.833 6.5 38.5v2c0 13.333 -2 28.5 -6 45.5s-10.167 33 -18.5 48s-18.833 27.667 -31.5 38
s-27.667 15.5 -45 15.5h-385c-20 -21.333 -39 -43 -57 -65s-33.667 -44.333 -47 -67z" />
    <glyph glyph-name="FL00E0h" unicode="&#xe0;" 
d="M335 134h203l-35 235l-168 -225v-10zM559 0l-21.0029 113.003c-1.33301 -4 -6.16602 -11.667 -14.499 -23s-17.666 -23.333 -27.999 -36s-20.5 -24.334 -30.5 -35.001s-17.333 -17 -22 -19h-423c1.33301 5.33301 2 7.66602 2 6.99902v3l360 460c2 4 6 9.33301 12 16
s12.5 13.167 19.5 19.5s14 12 21 17s12.833 7.5 17.5 7.5h168c6.66699 0 12.834 -3.66699 18.501 -11s10.5 -16.333 14.5 -27s7.5 -21.834 10.5 -33.501l7.5 -29.5l66 -429h-178zM600.997 665.003c0 -6.66699 0.829102 -13.502 2.49609 -20.502
s0.833984 -15.167 -2.49902 -24.5c-2.66699 -6 -5.66699 -11.5 -9 -16.5s-7.66602 -8.83301 -12.999 -11.5l-6 -4c-1.33301 -1.33301 -5 -2 -11 -2c-9.33301 0 -19.166 3.33301 -29.499 10s-17.166 14.334 -20.499 23.001l-6 23c-1.33301 4 -2.5 8 -3.5 12
s-0.5 8.33301 1.5 13c6.66699 16.667 19 30.667 37 42c14 5.33301 23.333 8 28 8c7.33301 0 12.833 -3.16699 16.5 -9.5s6.16699 -13.166 7.5 -20.499z" />
    <glyph glyph-name="FL00E1h" unicode="&#xe1;" 
d="M335 134h203l-35 235l-168 -225v-10zM559 0l-21.0029 113.003c-1.33301 -4 -6.16602 -11.667 -14.499 -23s-17.666 -23.333 -27.999 -36s-20.5 -24.334 -30.5 -35.001s-17.333 -17 -22 -19h-423c1.33301 5.33301 2 7.66602 2 6.99902v3l360 460c2 4 6 9.33301 12 16
s12.5 13.167 19.5 19.5s14 12 21 17s12.833 7.5 17.5 7.5h168c6.66699 0 12.834 -3.66699 18.501 -11s10.5 -16.333 14.5 -27s7.5 -21.834 10.5 -33.501l7.5 -29.5l66 -429h-178zM534.997 666.003l23.998 22.002c7.33301 7.33301 15 14.166 23 20.499s15.667 9.5 23 9.5
s14.666 -2.66699 21.999 -8c11.333 -11.333 13.666 -25.333 6.99902 -42c-1.33301 -4.66699 -4 -9 -8 -13l-12 -12l-23 -23c-9.33301 -8.66699 -21.666 -16.334 -36.999 -23.001s-27.666 -10 -36.999 -10c-5.33301 0 -8.66602 0.666992 -9.99902 2l-3 4
c-3.33301 2.66699 -4.83301 6.5 -4.5 11.5s1.5 10.5 3.5 16.5c3.33301 9.33301 8.33301 17.5 15 24.5s12.334 13.833 17.001 20.5z" />
    <glyph glyph-name="FL00E2h" unicode="&#xe2;" 
d="M335 134h203l-35 235l-168 -225v-10zM559 0l-21.0029 113.003c-1.33301 -4 -6.16602 -11.667 -14.499 -23s-17.666 -23.333 -27.999 -36s-20.5 -24.334 -30.5 -35.001s-17.333 -17 -22 -19h-423c1.33301 5.33301 2 7.66602 2 6.99902v3l360 460c2 4 6 9.33301 12 16
s12.5 13.167 19.5 19.5s14 12 21 17s12.833 7.5 17.5 7.5h168c6.66699 0 12.834 -3.66699 18.501 -11s10.5 -16.333 14.5 -27s7.5 -21.834 10.5 -33.501l7.5 -29.5l66 -429h-178zM566.997 652.003l-57.001 -59c-61.333 -0.666992 -91.666 -0.666992 -90.999 0l107 105
c3.33301 2 6.83301 4.5 10.5 7.5s7.16699 4.5 10.5 4.5h62c5.33301 0 10.5 -2.83301 15.5 -8.5s8.83301 -10.5 11.5 -14.5l47 -94h-82z" />
    <glyph glyph-name="FL00E3h" unicode="&#xe3;" 
d="M335 134h203l-35 235l-168 -225v-10zM559 0l-21.0029 113.003c-1.33301 -4 -6.16602 -11.667 -14.499 -23s-17.666 -23.333 -27.999 -36s-20.5 -24.334 -30.5 -35.001s-17.333 -17 -22 -19h-423c1.33301 5.33301 2 7.66602 2 6.99902v3l360 460c2 4 6 9.33301 12 16
s12.5 13.167 19.5 19.5s14 12 21 17s12.833 7.5 17.5 7.5h168c6.66699 0 12.834 -3.66699 18.501 -11s10.5 -16.333 14.5 -27s7.5 -21.834 10.5 -33.501l7.5 -29.5l66 -429h-178zM632.997 651.003l57.999 59h91l-1.5 -2c-1 -1.33301 -4.83301 -5.33301 -11.5 -12l-32 -31
l-62 -60l-10.5 -7.5c-4.33301 -3 -8.16602 -4.5 -11.499 -4.5h-82l-33 59l-58 -59h-91l107 105c3.33301 2 7 4.5 11 7.5s7.66699 4.5 11 4.5h82z" />
    <glyph glyph-name="FL00E4h" unicode="&#xe4;" 
d="M335 134h203l-35 235l-168 -225v-10zM559 0l-21.0029 113.003c-1.33301 -4 -6.16602 -11.667 -14.499 -23s-17.666 -23.333 -27.999 -36s-20.5 -24.334 -30.5 -35.001s-17.333 -17 -22 -19h-423c1.33301 5.33301 2 7.66602 2 6.99902v3l360 460c2 4 6 9.33301 12 16
s12.5 13.167 19.5 19.5s14 12 21 17s12.833 7.5 17.5 7.5h168c6.66699 0 12.834 -3.66699 18.501 -11s10.5 -16.333 14.5 -27s7.5 -21.834 10.5 -33.501l7.5 -29.5l66 -429h-178zM418.997 653.003c6 16.667 17 30.667 33 42s33 17 51 17s31.167 -5.66699 39.5 -17
s9.5 -25.333 3.5 -42s-17.333 -30.667 -34 -42s-34 -17 -52 -17s-30.833 5.66699 -38.5 17s-8.5 25.333 -2.5 42zM726.997 653.003c-6 -16.667 -17.167 -30.667 -33.5 -42s-33.5 -17 -51.5 -17s-31 5.66699 -39 17s-9 25.333 -3 42s17.167 30.667 33.5 42s33.5 17 51.5 17
s31 -5.66699 39 -17s9 -25.333 3 -42z" />
    <glyph glyph-name="FL00E5h" unicode="&#xe5;" 
d="M335 134h203l-35 235l-168 -225v-10zM559 0l-21.0029 113.003c-1.33301 -4 -6.16602 -11.667 -14.499 -23s-17.666 -23.333 -27.999 -36s-20.5 -24.334 -30.5 -35.001s-17.333 -17 -22 -19h-423c1.33301 5.33301 2 7.66602 2 6.99902v3l360 460c2 4 6 9.33301 12 16
s12.5 13.167 19.5 19.5s14 12 21 17s12.833 7.5 17.5 7.5h168c6.66699 0 12.834 -3.66699 18.501 -11s10.5 -16.333 14.5 -27s7.5 -21.834 10.5 -33.501l7.5 -29.5l66 -429h-178zM510.997 653.003c6 16.667 17 30.667 33 42s33 17 51 17s31.167 -5.66699 39.5 -17
s9.5 -25.333 3.5 -42s-17.333 -30.667 -34 -42s-34 -17 -52 -17s-30.833 5.66699 -38.5 17s-8.5 25.333 -2.5 42z" />
    <glyph glyph-name="FL00E6h" unicode="&#xe6;" horiz-adv-x="1163" 
d="M754 530l570.002 0.00292969c-4.66699 -9.33301 -12.5 -21.5 -23.5 -36.5s-22.667 -29.833 -35 -44.5s-24.333 -27.334 -36 -38.001s-20.167 -16 -25.5 -16h-308l-57 -157l95 92h231l-143 -135h-199l-22 -60h383c-0.666992 -1.33301 -2.33398 -4.16602 -5.00098 -8.49902
l-8 -13.5c-2.66699 -4.66699 -5.33398 -9 -8.00098 -13s-4.33398 -6.33301 -5.00098 -7c-6 -8 -14.167 -17.333 -24.5 -28l-30.5 -30.5c-10 -9.66699 -18.833 -17.834 -26.5 -24.501s-11.834 -10 -12.501 -10h-505l-21 113c-1.33301 -4 -6.16602 -11.667 -14.499 -23
s-17.666 -23.333 -27.999 -36s-20.5 -24.334 -30.5 -35.001s-17.333 -17 -22 -19h-423c1.33301 5.33301 2 7.66602 2 6.99902v3l360 460c2 4 6 9.33301 12 16s12.5 13.167 19.5 19.5s14 12 21 17s12.833 7.5 17.5 7.5h168c6 0 12 -3.66699 18 -11s11.333 -16.333 16 -27
s8.5 -21.667 11.5 -33s4.83301 -21.333 5.5 -30l14 -89zM335.002 144.003v-10h203l-35 235z" />
    <glyph glyph-name="FL00E7h" unicode="&#xe7;" horiz-adv-x="631" 
d="M108 -116h260.999l42 117c2.66699 -0.666992 6.66699 -1 12 -1h11h24h80c25.333 20 47.666 41.833 66.999 65.5s36.666 46.834 51.999 69.501h-239c-11.333 0 -23.166 4 -35.499 12s-23.666 18 -33.999 30s-18.833 25.167 -25.5 39.5s-10 27.833 -10 40.5
c0 10 2.66699 23.667 8 41c4 11.333 9.33301 22.833 16 34.5s14.167 22.167 22.5 31.5s17.5 16.833 27.5 22.5s20.333 8.5 31 8.5h260c23.333 20 44.833 41.167 64.5 63.5s39.167 46.166 58.5 71.499h-413c-35.333 0 -68.666 -8.83301 -99.999 -26.5s-59 -40.5 -83 -68.5
s-43 -59 -57 -93s-21 -67 -21 -99s4.33301 -60.333 13 -85s20.667 -46 36 -64s33.5 -33 54.5 -45s43.833 -21.667 68.5 -29l-16 -44h-53z" />
    <glyph glyph-name="FL00E8h" unicode="&#xe8;" horiz-adv-x="625" 
d="M28 0l193.004 530.001h570c-4.66699 -9.33301 -12.5 -21.5 -23.5 -36.5s-22.667 -29.833 -35 -44.5s-24.333 -27.334 -36 -38.001s-20.167 -16 -25.5 -16h-308l-57 -157l95 92h231l-143 -135h-199l-22 -60h383c-0.666992 -1.33301 -2.33398 -4.16602 -5.00098 -8.49902
l-8 -13.5c-2.66699 -4.66699 -5.33398 -9 -8.00098 -13s-4.33398 -6.33301 -5.00098 -7c-6 -8 -14.167 -17.333 -24.5 -28l-30.5 -30.5c-10 -9.66699 -18.833 -17.834 -26.5 -24.501s-11.834 -10 -12.501 -10h-503zM550.004 692.001l7.99902 -22.002
c0 -6.66699 0.666992 -13.5 2 -20.5s0.333008 -15.167 -3 -24.5c-2 -6 -4.66699 -11.5 -8 -16.5s-7.66602 -8.83301 -12.999 -11.5l-6 -4c-5.33301 -1.33301 -9 -2 -11 -2c-9.33301 0 -19.166 3.33301 -29.499 10s-17.166 14.334 -20.499 23.001l-7 23
c-1.33301 4 -2.33301 8 -3 12s0 8.33301 2 13c5.33301 17.333 17.666 31.333 36.999 42c14 5.33301 23.333 8 28 8c7.33301 0 12.666 -3.16699 15.999 -9.5s6 -13.166 8 -20.499z" />
    <glyph glyph-name="FL00E9h" unicode="&#xe9;" horiz-adv-x="625" 
d="M28 0l193.004 530.001h570c-4.66699 -9.33301 -12.5 -21.5 -23.5 -36.5s-22.667 -29.833 -35 -44.5s-24.333 -27.334 -36 -38.001s-20.167 -16 -25.5 -16h-308l-57 -157l95 92h231l-143 -135h-199l-22 -60h383c-0.666992 -1.33301 -2.33398 -4.16602 -5.00098 -8.49902
l-8 -13.5c-2.66699 -4.66699 -5.33398 -9 -8.00098 -13s-4.33398 -6.33301 -5.00098 -7c-6 -8 -14.167 -17.333 -24.5 -28l-30.5 -30.5c-10 -9.66699 -18.833 -17.834 -26.5 -24.501s-11.834 -10 -12.501 -10h-503zM493.004 671.001l24.0049 22
c7.33301 7.33301 15 14.166 23 20.499s15.667 9.5 23 9.5s14.666 -2.66699 21.999 -8c11.333 -11.333 13.666 -25.333 6.99902 -42c-1.33301 -4.66699 -4 -9 -8 -13l-12 -12l-24 -23c-4.66699 -4 -10.167 -8 -16.5 -12s-13 -7.5 -20 -10.5s-13.833 -5.5 -20.5 -7.5
s-12.334 -3 -17.001 -3s-7.66699 0.666992 -9 2l-3 4c-3.33301 3.33301 -5 7 -5 11c0 6.66699 1.33301 12.334 4 17.001c3.33301 9.33301 8.16602 17.5 14.499 24.5s12.166 13.833 17.499 20.5z" />
    <glyph glyph-name="FL00EAh" unicode="&#xea;" horiz-adv-x="625" 
d="M28 0l193.004 530.001h570c-4.66699 -9.33301 -12.5 -21.5 -23.5 -36.5s-22.667 -29.833 -35 -44.5s-24.333 -27.334 -36 -38.001s-20.167 -16 -25.5 -16h-308l-57 -157l95 92h231l-143 -135h-199l-22 -60h383c-0.666992 -1.33301 -2.33398 -4.16602 -5.00098 -8.49902
l-8 -13.5c-2.66699 -4.66699 -5.33398 -9 -8.00098 -13s-4.33398 -6.33301 -5.00098 -7c-6 -8 -14.167 -17.333 -24.5 -28l-30.5 -30.5c-10 -9.66699 -18.833 -17.834 -26.5 -24.501s-11.834 -10 -12.501 -10h-503zM528.004 655.001l-58.9971 -59h-91l107 105
c3.33301 2 7.16602 4.5 11.499 7.5s8.16602 4.5 11.499 4.5h62c5.33301 0 10.166 -2.83301 14.499 -8.5s7.83301 -10.5 10.5 -14.5l47 -94h-82z" />
    <glyph glyph-name="FL00EBh" unicode="&#xeb;" horiz-adv-x="625" 
d="M28 0l193.004 530.001h570c-4.66699 -9.33301 -12.5 -21.5 -23.5 -36.5s-22.667 -29.833 -35 -44.5s-24.333 -27.334 -36 -38.001s-20.167 -16 -25.5 -16h-308l-57 -157l95 92h231l-143 -135h-199l-22 -60h383c-0.666992 -1.33301 -2.33398 -4.16602 -5.00098 -8.49902
l-8 -13.5c-2.66699 -4.66699 -5.33398 -9 -8.00098 -13s-4.33398 -6.33301 -5.00098 -7c-6 -8 -14.167 -17.333 -24.5 -28l-30.5 -30.5c-10 -9.66699 -18.833 -17.834 -26.5 -24.501s-11.834 -10 -12.501 -10h-503zM391.004 653.001c6 16.667 17 30.667 33 42s33 17 51 17
s31.167 -5.66699 39.5 -17s9.5 -25.333 3.5 -42s-17.333 -30.667 -34 -42s-34 -17 -52 -17s-30.833 5.66699 -38.5 17s-8.5 25.333 -2.5 42zM699.004 653.001c-6 -16.667 -17.167 -30.667 -33.5 -42s-33.5 -17 -51.5 -17s-31 5.66699 -39 17s-9 25.333 -3 42
s17.167 30.667 33.5 42s33.5 17 51.5 17s31 -5.66699 39 -17s9 -25.333 3 -42z" />
    <glyph glyph-name="FL00ECh" unicode="&#xec;" horiz-adv-x="248" 
d="M392 666c0.666992 -6.66699 1.66699 -13.502 3 -20.502s0.333008 -15.167 -3 -24.5c-2 -6 -4.66699 -11.5 -8 -16.5s-7.66602 -8.83301 -12.999 -11.5l-7 -4c-1.33301 -1.33301 -4.66602 -2 -9.99902 -2c-9.33301 0 -19.333 3.33301 -30 10
s-17.334 14.334 -20.001 23.001l-7 23c-1.33301 4 -2.33301 8 -3 12s-0.333984 8.33301 0.999023 13c6.66699 16.667 19 30.667 37 42c14 5.33301 23.333 8 28 8c7.33301 0 12.833 -3.16699 16.5 -9.5s6.16699 -13.166 7.5 -20.499zM221 529.998h192l-193 -530h-192z" />
    <glyph glyph-name="FL00EDh" unicode="&#xed;" horiz-adv-x="248" 
d="M220 0h-192l193 530h192zM324 668l24.0049 22c7.33301 7.33301 15 14.166 23 20.499s15.667 9.5 23 9.5s14.666 -2.66699 21.999 -8c11.333 -11.333 13.666 -25.333 6.99902 -42c-1.33301 -4.66699 -4 -9 -8 -13l-12 -12l-24 -23c-4.66699 -4 -10.167 -8 -16.5 -12
s-13 -7.5 -20 -10.5s-13.833 -5.5 -20.5 -7.5s-12.334 -3 -17.001 -3s-7.66699 0.666992 -9 2l-3 4c-3.33301 3.33301 -5 7 -5 11c0 6.66699 1.33301 12.334 4 17.001c3.33301 9.33301 8.16602 17.5 14.499 24.5s12.166 13.833 17.499 20.5z" />
    <glyph glyph-name="FL00EEh" unicode="&#xee;" horiz-adv-x="248" 
d="M220 0h-192l193 530h192zM358 654l-58 -59h-91l107 105l10.5 7.5c4.33301 3 8.16602 4.5 11.499 4.5h62c5.33301 0 10.333 -2.83301 15 -8.5s8.33398 -10.5 11.001 -14.5l47 -94h-82z" />
    <glyph glyph-name="FL00EFh" unicode="&#xef;" horiz-adv-x="248" 
d="M220 0h-192l193 530h192zM210 653c6 16.667 17 30.667 33 42s33 17 51 17s31.167 -5.66699 39.5 -17s9.5 -25.333 3.5 -42s-17.333 -30.667 -34 -42s-34 -17 -52 -17s-30.833 5.66699 -38.5 17s-8.5 25.333 -2.5 42zM518 653c-6 -16.667 -17.167 -30.667 -33.5 -42
s-33.5 -17 -51.5 -17s-31 5.66699 -39 17s-9 25.333 -3 42s17.167 30.667 33.5 42s33.5 17 51.5 17s31 -5.66699 39 -17s9 -25.333 3 -42z" />
    <glyph glyph-name="FL00F0h" unicode="&#xf0;" horiz-adv-x="646" 
d="M99 195c18 36.667 40.8301 66.5 68.4971 89.5s62.834 38.167 105.501 45.5h272c3.33301 17.333 2.66602 32.5 -2.00098 45.5s-15.334 19.5 -32.001 19.5h-260c-9.33301 20 -15.666 41.167 -18.999 63.5s-5.33301 46.166 -6 71.499h413
c34.667 0 61.334 -8.83301 80.001 -26.5s29.834 -40.5 33.501 -68.5s0.166992 -59 -10.5 -93s-28 -67 -52 -99c-34.667 -48 -73 -87.667 -115 -119s-85.167 -56.166 -129.5 -74.499s-89 -31.166 -134 -38.499s-87.833 -11 -128.5 -11c-24.667 0 -44.5 5.66699 -59.5 17
s-25.833 26.333 -32.5 45s-9.16699 39.667 -7.5 63s6.83398 46.666 15.501 69.999zM329.997 203c-14.667 -2 -25.167 -5.83301 -31.5 -11.5l-20.5 -17.5l-3 -38h58c15.333 0 33.5 7 54.5 21s42.833 29.333 65.5 46h-123z" />
    <glyph glyph-name="FL00F1h" unicode="&#xf1;" horiz-adv-x="654" 
d="M220 0h-192l193 530h242l57 -298l109 298h190l-193 -530h-242l-56 298zM592 651l57.999 59h91l-1.5 -2c-1 -1.33301 -4.83301 -5.33301 -11.5 -12l-32 -31l-62 -60l-10.5 -7.5c-4.33301 -3 -8.16602 -4.5 -11.499 -4.5h-82l-33 59l-58 -59h-91l107 105
c3.33301 2 7 4.5 11 7.5s7.66699 4.5 11 4.5h82z" />
    <glyph glyph-name="FL00F2h" unicode="&#xf2;" horiz-adv-x="721" 
d="M305 257c-2 -12.667 -0.999023 -26.168 3.00098 -40.501s10 -27.5 18 -39.5s17.667 -22 29 -30s23.666 -12 36.999 -12h66c8 0 18.167 2.83301 30.5 8.5s25 13.167 38 22.5s25.333 19.833 37 31.5s20.5 23.167 26.5 34.5c6 9.33301 9.66699 16.666 11 21.999l4 10
c1.33301 6.66699 2 9.66699 2 9c0.666992 6.66699 1.16699 13.167 1.5 19.5s0.5 13.166 0.5 20.499c0 10.667 -1.33301 20.834 -4 30.501s-7 18.334 -13 26.001s-14.167 13.834 -24.5 18.501s-23.166 7 -38.499 7h-81c-10.667 0 -22.167 -2.83301 -34.5 -8.5
s-24.5 -13.167 -36.5 -22.5s-23.167 -19.833 -33.5 -31.5s-18.5 -23.167 -24.5 -34.5l-9 -22.5c-2.66699 -7 -4.33398 -13.167 -5.00098 -18.5zM797.001 286.999c-4.66699 -32 -17.0039 -64.998 -37.0039 -98.998s-44.833 -65 -74.5 -93s-63.167 -50.833 -100.5 -68.5
s-76 -26.5 -116 -26.5h-100c-40.667 0 -78 3.66699 -112 11s-62.5 20.166 -85.5 38.499s-39.667 43.166 -50 74.499s-12.166 71 -5.49902 119c4.66699 32 16.834 65 36.501 99s43.834 65 72.501 93s60.334 50.833 95.001 68.5s69.667 26.5 105 26.5h132
c40.667 0 77.5 -4.5 110.5 -13.5s60.167 -23.167 81.5 -42.5s36.5 -44.333 45.5 -75s9.83301 -68 2.5 -112zM620.997 690.001l7.99805 -22.002c0 -6.66699 0.833008 -13.5 2.5 -20.5s0.833984 -15.167 -2.49902 -24.5c-2.66699 -6 -5.66699 -11.5 -9 -16.5
s-7.33301 -8.83301 -12 -11.5l-7 -4c-1.33301 -1.33301 -5 -2 -11 -2c-9.33301 0 -19.166 3.33301 -29.499 10s-17.166 14.334 -20.499 23.001l-6 23c-1.33301 4 -2.33301 8 -3 12s-0.333984 8.33301 0.999023 13c6.66699 16.667 19 30.667 37 42c14 5.33301 23.333 8 28 8
c7.33301 0 12.833 -3.16699 16.5 -9.5s6.16699 -13.166 7.5 -20.499z" />
    <glyph glyph-name="FL00F3h" unicode="&#xf3;" horiz-adv-x="721" 
d="M305 257c-2 -12.667 -0.999023 -26.168 3.00098 -40.501s10 -27.5 18 -39.5s17.667 -22 29 -30s23.666 -12 36.999 -12h66c8 0 18.167 2.83301 30.5 8.5s25 13.167 38 22.5s25.333 19.833 37 31.5s20.5 23.167 26.5 34.5c6 9.33301 9.66699 16.666 11 21.999l4 10
c1.33301 6.66699 2 9.66699 2 9c0.666992 6.66699 1.16699 13.167 1.5 19.5s0.5 13.166 0.5 20.499c0 10.667 -1.33301 20.834 -4 30.501s-7 18.334 -13 26.001s-14.167 13.834 -24.5 18.501s-23.166 7 -38.499 7h-81c-10.667 0 -22.167 -2.83301 -34.5 -8.5
s-24.5 -13.167 -36.5 -22.5s-23.167 -19.833 -33.5 -31.5s-18.5 -23.167 -24.5 -34.5l-9 -22.5c-2.66699 -7 -4.33398 -13.167 -5.00098 -18.5zM797.001 286.999c-4.66699 -32 -17.0039 -64.998 -37.0039 -98.998s-44.833 -65 -74.5 -93s-63.167 -50.833 -100.5 -68.5
s-76 -26.5 -116 -26.5h-100c-40.667 0 -78 3.66699 -112 11s-62.5 20.166 -85.5 38.499s-39.667 43.166 -50 74.499s-12.166 71 -5.49902 119c4.66699 32 16.834 65 36.501 99s43.834 65 72.501 93s60.334 50.833 95.001 68.5s69.667 26.5 105 26.5h132
c40.667 0 77.5 -4.5 110.5 -13.5s60.167 -23.167 81.5 -42.5s36.5 -44.333 45.5 -75s9.83301 -68 2.5 -112zM556.997 668.001l24.0049 22c7.33301 7.33301 15 14.166 23 20.499s15.667 9.5 23 9.5s14.666 -2.66699 21.999 -8c11.333 -11.333 13.666 -25.333 6.99902 -42
c-1.33301 -4.66699 -4 -9 -8 -13l-12 -12l-24 -23c-4.66699 -4 -10.167 -8 -16.5 -12s-13 -7.5 -20 -10.5s-13.833 -5.5 -20.5 -7.5s-12.334 -3 -17.001 -3s-7.66699 0.666992 -9 2l-3 4c-3.33301 3.33301 -5 7 -5 11c0 6.66699 1.33301 12.334 4 17.001
c3.33301 9.33301 8.16602 17.5 14.499 24.5s12.166 13.833 17.499 20.5z" />
    <glyph glyph-name="FL00F4h" unicode="&#xf4;" horiz-adv-x="721" 
d="M305 257c-2 -12.667 -0.999023 -26.168 3.00098 -40.501s10 -27.5 18 -39.5s17.667 -22 29 -30s23.666 -12 36.999 -12h66c8 0 18.167 2.83301 30.5 8.5s25 13.167 38 22.5s25.333 19.833 37 31.5s20.5 23.167 26.5 34.5c6 9.33301 9.66699 16.666 11 21.999l4 10
c1.33301 6.66699 2 9.66699 2 9c0.666992 6.66699 1.16699 13.167 1.5 19.5s0.5 13.166 0.5 20.499c0 10.667 -1.33301 20.834 -4 30.501s-7 18.334 -13 26.001s-14.167 13.834 -24.5 18.501s-23.166 7 -38.499 7h-81c-10.667 0 -22.167 -2.83301 -34.5 -8.5
s-24.5 -13.167 -36.5 -22.5s-23.167 -19.833 -33.5 -31.5s-18.5 -23.167 -24.5 -34.5l-9 -22.5c-2.66699 -7 -4.33398 -13.167 -5.00098 -18.5zM797.001 286.999c-4.66699 -32 -17.0039 -64.998 -37.0039 -98.998s-44.833 -65 -74.5 -93s-63.167 -50.833 -100.5 -68.5
s-76 -26.5 -116 -26.5h-100c-40.667 0 -78 3.66699 -112 11s-62.5 20.166 -85.5 38.499s-39.667 43.166 -50 74.499s-12.166 71 -5.49902 119c4.66699 32 16.834 65 36.501 99s43.834 65 72.501 93s60.334 50.833 95.001 68.5s69.667 26.5 105 26.5h132
c40.667 0 77.5 -4.5 110.5 -13.5s60.167 -23.167 81.5 -42.5s36.5 -44.333 45.5 -75s9.83301 -68 2.5 -112zM579.997 653.001l-58.9971 -59h-91l107 105c3.33301 2 7.16602 4.5 11.499 7.5s8.16602 4.5 11.499 4.5h62c5.33301 0 10.166 -2.83301 14.499 -8.5
s7.83301 -10.5 10.5 -14.5l47 -94h-82z" />
    <glyph glyph-name="FL00F5h" unicode="&#xf5;" horiz-adv-x="721" 
d="M797 287c-4.66699 -32 -17.0039 -65.001 -37.0039 -99.001s-44.833 -65 -74.5 -93s-63.167 -50.833 -100.5 -68.5s-76 -26.5 -116 -26.5h-100c-37.333 0 -71.666 3 -102.999 9s-58.333 16.333 -81 31s-40.5 34.334 -53.5 59.001s-19.5 55.667 -19.5 93
c0 18.667 1.33301 34.667 4 48v3c4.66699 32 16.834 65 36.501 99s43.834 65 72.501 93s60.334 50.833 95.001 68.5s69.667 26.5 105 26.5h132c36 0 69 -3.5 99 -10.5s55.833 -18 77.5 -33s38.5 -34.5 50.5 -58.5s18 -52.667 18 -86c0 -8.66699 -0.5 -17.5 -1.5 -26.5
s-2.16699 -18.5 -3.5 -28.5zM304.996 256.999c-0.666992 -0.666992 -0.999023 -2.99902 -0.999023 -6.99902v-6c0 -12 2.33301 -24.5 7 -37.5s11 -24.833 19 -35.5s17.333 -19.334 28 -26.001s22 -10 34 -10h66c8 0 18.167 2.83301 30.5 8.5s25 13.167 38 22.5
s25.333 19.833 37 31.5s20.5 23.167 26.5 34.5c6 9.33301 9.66699 16.666 11 21.999l4 10c1.33301 6.66699 2 9.66699 2 9c0.666992 5.33301 1.16699 10.833 1.5 16.5s0.5 11.5 0.5 17.5c0 10.667 -1 21.334 -3 32.001s-6 20.167 -12 28.5s-14.167 15 -24.5 20
s-23.833 7.5 -40.5 7.5h-81c-10.667 0 -22.167 -2.83301 -34.5 -8.5s-24.5 -13.167 -36.5 -22.5s-23.167 -19.833 -33.5 -31.5s-18.5 -23.167 -24.5 -34.5l-9 -22.5c-2.66699 -7 -4.33398 -13.167 -5.00098 -18.5zM627.997 651l57.999 59h91l-1.5 -2
c-1 -1.33301 -4.83301 -5.33301 -11.5 -12l-32 -31l-62 -60l-10.5 -7.5c-4.33301 -3 -8.16602 -4.5 -11.499 -4.5h-82l-33 59l-58 -59h-91l107 105c3.33301 2 7 4.5 11 7.5s7.66699 4.5 11 4.5h82z" />
    <glyph glyph-name="FL00F6h" unicode="&#xf6;" horiz-adv-x="721" 
d="M305 257c-2 -12.667 -0.999023 -26.168 3.00098 -40.501s10 -27.5 18 -39.5s17.667 -22 29 -30s23.666 -12 36.999 -12h66c8 0 18.167 2.83301 30.5 8.5s25 13.167 38 22.5s25.333 19.833 37 31.5s20.5 23.167 26.5 34.5c6 9.33301 9.66699 16.666 11 21.999l4 10
c1.33301 6.66699 2 9.66699 2 9c0.666992 6.66699 1.16699 13.167 1.5 19.5s0.5 13.166 0.5 20.499c0 10.667 -1.33301 20.834 -4 30.501s-7 18.334 -13 26.001s-14.167 13.834 -24.5 18.501s-23.166 7 -38.499 7h-81c-10.667 0 -22.167 -2.83301 -34.5 -8.5
s-24.5 -13.167 -36.5 -22.5s-23.167 -19.833 -33.5 -31.5s-18.5 -23.167 -24.5 -34.5l-9 -22.5c-2.66699 -7 -4.33398 -13.167 -5.00098 -18.5zM797.001 286.999c-4.66699 -32 -17.0039 -64.998 -37.0039 -98.998s-44.833 -65 -74.5 -93s-63.167 -50.833 -100.5 -68.5
s-76 -26.5 -116 -26.5h-100c-40.667 0 -78 3.66699 -112 11s-62.5 20.166 -85.5 38.499s-39.667 43.166 -50 74.499s-12.166 71 -5.49902 119c4.66699 32 16.834 65 36.501 99s43.834 65 72.501 93s60.334 50.833 95.001 68.5s69.667 26.5 105 26.5h132
c40.667 0 77.5 -4.5 110.5 -13.5s60.167 -23.167 81.5 -42.5s36.5 -44.333 45.5 -75s9.83301 -68 2.5 -112zM436.997 653.001c6 16.667 17 30.667 33 42s33 17 51 17s31.167 -5.66699 39.5 -17s9.5 -25.333 3.5 -42s-17.333 -30.667 -34 -42s-34 -17 -52 -17
s-30.833 5.66699 -38.5 17s-8.5 25.333 -2.5 42zM744.997 653.001c-6 -16.667 -17.167 -30.667 -33.5 -42s-33.5 -17 -51.5 -17s-31 5.66699 -39 17s-9 25.333 -3 42s17.167 30.667 33.5 42s33.5 17 51.5 17s31 -5.66699 39 -17s9 -25.333 3 -42z" />
    <glyph glyph-name="FL00F7h" unicode="&#xf7;" horiz-adv-x="432" 
d="M89 195l143 135h302l-143 -135h-302zM315 417c6 16.667 17 30.667 33 42s33 17 51 17s31.167 -5.66699 39.5 -17s9.5 -25.333 3.5 -42s-17.333 -30.667 -34 -42s-34 -17 -52 -17s-30.833 5.66699 -38.5 17s-8.5 25.333 -2.5 42zM328 108c-6 -16.667 -17 -30.667 -33 -42
s-33 -17 -51 -17s-31.167 5.66699 -39.5 17s-9.5 25.333 -3.5 42s17.333 30.667 34 42s34 17 52 17s30.833 -5.66699 38.5 -17s8.5 -25.333 2.5 -42z" />
    <glyph glyph-name="FL00F8h" unicode="&#xf8;" horiz-adv-x="721" 
d="M797 287c-4.66699 -32 -17.0039 -64.998 -37.0039 -98.998s-44.833 -65 -74.5 -93s-63.167 -50.833 -100.5 -68.5s-76 -26.5 -116 -26.5h-100c-40.667 0 -78 3.66699 -112 11s-62.5 20.166 -85.5 38.499s-39.667 43.166 -50 74.499s-12.166 71 -5.49902 119
c4.66699 32 16.834 65 36.501 99s43.834 65 72.501 93s60.334 50.833 95.001 68.5s69.667 26.5 105 26.5h132c40.667 0 77.5 -4.5 110.5 -13.5s60.167 -23.167 81.5 -42.5s36.5 -44.333 45.5 -75s9.83301 -68 2.5 -112zM606.996 273.002c2 16.667 2 34.668 0 54.001
l-252 -180c10.667 -8 23 -12 37 -12h66c8 0 18.167 2.83301 30.5 8.5s25 13.167 38 22.5s25.333 19.833 37 31.5s20.5 23.167 26.5 34.5c6 9.33301 9.66699 16.666 11 21.999l4 10c1.33301 6.66699 2 9.66699 2 9zM304.996 257.003
c-1.33301 -7.33301 -1.66602 -14.833 -0.999023 -22.5s2 -15.167 4 -22.5l253 178c-13.333 3.33301 -24 5 -32 5h-81c-10.667 0 -22.167 -2.83301 -34.5 -8.5s-24.5 -13.167 -36.5 -22.5s-23.167 -19.833 -33.5 -31.5s-18.5 -23.167 -24.5 -34.5l-9 -22.5
c-2.66699 -7 -4.33398 -13.167 -5.00098 -18.5z" />
    <glyph glyph-name="FL00F9h" unicode="&#xf9;" horiz-adv-x="682" 
d="M142 308l78.998 222.002h189l-54 -158.5l-28 -84.5c-6 -18.667 -9.66699 -30.5 -11 -35.5s-2 -8.5 -2 -10.5c-4.66699 -32 -2.5 -57.667 6.5 -77s25.833 -29 50.5 -29h49c16 0 30.833 3.33301 44.5 10s25.834 15 36.501 25s20 20.667 28 32s14.333 21.666 19 30.999
l108 297h190l-90 -247c-16.667 -46 -33.667 -86.5 -51 -121.5s-37 -64.5 -59 -88.5s-47.333 -42.167 -76 -54.5s-63 -18.5 -103 -18.5h-117c-93.333 0 -159.666 14.833 -198.999 44.5s-52.333 80.167 -39 151.5c3.33301 17.333 7.5 34.666 12.5 51.999zM602.998 689.002
l7.99805 -22.002c0 -6.66699 0.666992 -13.5 2 -20.5s0.333008 -15.167 -3 -24.5c-2 -6 -4.66699 -11.5 -8 -16.5s-7.66602 -8.83301 -12.999 -11.5l-6 -4c-5.33301 -1.33301 -9 -2 -11 -2c-9.33301 0 -19.166 3.33301 -29.499 10s-17.166 14.334 -20.499 23.001l-7 23
c-1.33301 4 -2.33301 8 -3 12s-0.333984 8.33301 0.999023 13c6.66699 16.667 19.334 30.667 38.001 42c14 5.33301 23.333 8 28 8c7.33301 0 12.666 -3.16699 15.999 -9.5s6 -13.166 8 -20.499z" />
    <glyph glyph-name="FL00FAh" unicode="&#xfa;" horiz-adv-x="682" 
d="M142 308l78.998 222.002h189l-54 -158.5l-28 -84.5c-6 -18.667 -9.66699 -30.5 -11 -35.5s-2 -8.5 -2 -10.5c-4.66699 -32 -2.5 -57.667 6.5 -77s25.833 -29 50.5 -29h49c16 0 30.833 3.33301 44.5 10s25.834 15 36.501 25s20 20.667 28 32s14.333 21.666 19 30.999
l108 297h190l-90 -247c-16.667 -46 -33.667 -86.5 -51 -121.5s-37 -64.5 -59 -88.5s-47.333 -42.167 -76 -54.5s-63 -18.5 -103 -18.5h-117c-93.333 0 -159.666 14.833 -198.999 44.5s-52.333 80.167 -39 151.5c3.33301 17.333 7.5 34.666 12.5 51.999zM543.998 667.002
l24.002 22.001c7.33301 7.33301 15 14.166 23 20.499s15.667 9.5 23 9.5s14.666 -2.66699 21.999 -8c10.667 -11.333 12.667 -25.333 6 -42c-1.33301 -4.66699 -4 -9 -8 -13l-12 -12l-23 -23c-4.66699 -4 -10.167 -8 -16.5 -12s-13 -7.5 -20 -10.5s-13.833 -5.5 -20.5 -7.5
s-12.334 -3 -17.001 -3c-6 0 -9 0.666992 -9 2l-4 4c-3.33301 2.66699 -4.83301 6.5 -4.5 11.5s1.5 10.5 3.5 16.5c3.33301 9.33301 8.33301 17.5 15 24.5s12.667 13.833 18 20.5z" />
    <glyph glyph-name="FL00FBh" unicode="&#xfb;" horiz-adv-x="682" 
d="M142 308l78.998 222.002h189l-54 -158.5l-28 -84.5c-6 -18.667 -9.66699 -30.5 -11 -35.5s-2 -8.5 -2 -10.5c-4.66699 -32 -2.5 -57.667 6.5 -77s25.833 -29 50.5 -29h49c16 0 30.833 3.33301 44.5 10s25.834 15 36.501 25s20 20.667 28 32s14.333 21.666 19 30.999
l108 297h190l-90 -247c-16.667 -46 -33.667 -86.5 -51 -121.5s-37 -64.5 -59 -88.5s-47.333 -42.167 -76 -54.5s-63 -18.5 -103 -18.5h-117c-93.333 0 -159.666 14.833 -198.999 44.5s-52.333 80.167 -39 151.5c3.33301 17.333 7.5 34.666 12.5 51.999zM562.998 653.002
l-58.001 -59h-91l107 105c3.33301 2 7 4.5 11 7.5s7.66699 4.5 11 4.5h62c5.33301 0 10.333 -2.83301 15 -8.5s8.33398 -10.5 11.001 -14.5l47 -94h-82z" />
    <glyph glyph-name="FL00FCh" unicode="&#xfc;" horiz-adv-x="682" 
d="M422 652c6 16.667 17.167 30.667 33.5 42s33.5 17 51.5 17s31 -5.66699 39 -17s9 -25.333 3 -42s-17.167 -30.667 -33.5 -42s-33.5 -17 -51.5 -17s-31 5.66699 -39 17s-9 25.333 -3 42zM142 308l78.998 222.002h189l-54 -158.5l-28 -84.5
c-6 -18.667 -9.66699 -30.5 -11 -35.5s-2 -8.5 -2 -10.5c-4.66699 -32 -2.5 -57.667 6.5 -77s25.833 -29 50.5 -29h49c16 0 30.833 3.33301 44.5 10s25.834 15 36.501 25s20 20.667 28 32s14.333 21.666 19 30.999l108 297h190l-90 -247
c-16.667 -46 -33.667 -86.5 -51 -121.5s-37 -64.5 -59 -88.5s-47.333 -42.167 -76 -54.5s-63 -18.5 -103 -18.5h-117c-93.333 0 -159.666 14.833 -198.999 44.5s-52.333 80.167 -39 151.5c3.33301 17.333 7.5 34.666 12.5 51.999zM729.998 652.002
c-6 -16.667 -17 -30.667 -33 -42s-33 -17 -51 -17s-31.167 5.66699 -39.5 17s-9.5 25.333 -3.5 42s17.333 30.667 34 42s34 17 52 17s30.833 -5.66699 38.5 -17s8.5 -25.333 2.5 -42z" />
    <glyph glyph-name="FL00FDh" unicode="&#xfd;" horiz-adv-x="656" 
d="M324 252l-113 278h214l50 -125l142 125h214l-315 -278l-92 -252h-192zM534 667l24.002 22.001c7.33301 7.33301 15 14.166 23 20.499s15.667 9.5 23 9.5s14.666 -2.66699 21.999 -8c10.667 -11.333 12.667 -25.333 6 -42c-1.33301 -4.66699 -4 -9 -8 -13l-12 -12l-23 -23
c-4.66699 -4 -10.167 -8 -16.5 -12s-13 -7.5 -20 -10.5s-13.833 -5.5 -20.5 -7.5s-12.334 -3 -17.001 -3c-6 0 -9 0.666992 -9 2l-4 4c-3.33301 2.66699 -4.83301 6.5 -4.5 11.5s1.5 10.5 3.5 16.5c3.33301 9.33301 8.33301 17.5 15 24.5s12.667 13.833 18 20.5z" />
    <glyph glyph-name="FL00FEh" unicode="&#xfe;" horiz-adv-x="680" 
d="M28 0l193.002 530h192l-36 -100h267c16.667 0 31.334 -5.16699 44.001 -15.5s23 -23 31 -38s14.167 -31 18.5 -48s6.83301 -32.167 7.5 -45.5c0 -28 -6.83301 -53.667 -20.5 -77s-30.834 -43.5 -51.501 -60.5s-43.334 -30.167 -68.001 -39.5s-48.334 -14 -71.001 -14
h-281l-33 -92h-192zM327.002 294l-55 -152l96 85h160c0.666992 0 2.16699 1.5 4.5 4.5s4.83301 6.5 7.5 10.5s5 7.83301 7 11.5s3.33301 6.5 4 8.5l2 5c0 0.666992 -0.166992 1.66699 -0.5 3l-0.5 2c-2 3.33301 -5.5 7.83301 -10.5 13.5s-8.16699 8.5 -9.5 8.5h-205z" />
    <glyph glyph-name="FL00FFh" unicode="&#xff;" horiz-adv-x="656" 
d="M324 252l-113 278h214l50 -125l142 125h214l-315 -278l-92 -252h-192zM414 652c6 16.667 17.167 30.667 33.5 42s33.5 17 51.5 17s31 -5.66699 39 -17s9 -25.333 3 -42s-17.167 -30.667 -33.5 -42s-33.5 -17 -51.5 -17s-31 5.66699 -39 17s-9 25.333 -3 42zM722 652
c-6 -16.667 -17 -30.667 -33 -42s-33 -17 -51 -17s-31.167 5.66699 -39.5 17s-9.5 25.333 -3.5 42s17.333 30.667 34 42s34 17 52 17s30.833 -5.66699 38.5 -17s8.5 -25.333 2.5 -42z" />
    <glyph glyph-name="FL0152h" unicode="&#x152;" horiz-adv-x="1055" 
d="M127 243c0 32 7.00293 65.0029 21.0029 99.0029s33 65 57 93s51.667 50.833 83 68.5s64.666 26.5 99.999 26.5h833c-4.66699 -9.33301 -12.5 -21.5 -23.5 -36.5s-22.667 -29.833 -35 -44.5s-24.333 -27.334 -36 -38.001s-20.167 -16 -25.5 -16h-308l-57 -157l95 92h231
l-143 -135h-199l-22 -60h383c-0.666992 -1.33301 -2.33398 -4.16602 -5.00098 -8.49902l-8 -13.5c-2.66699 -4.66699 -5.33398 -9 -8.00098 -13s-4.33398 -6.33301 -5.00098 -7c-6 -8 -14.167 -17.333 -24.5 -28l-30.5 -30.5c-10 -9.66699 -18.833 -17.834 -26.5 -24.501
s-11.834 -10 -12.501 -10h-503c-41.333 0 -81.666 3.66699 -120.999 11s-74.666 20.166 -105.999 38.499s-56.5 43.166 -75.5 74.499s-28.5 71 -28.5 119zM602.003 395.003h-183.998c-10.667 0 -21 -2.83301 -31 -8.5s-19.167 -13.167 -27.5 -22.5
s-15.833 -19.833 -22.5 -31.5s-12 -23.167 -16 -34.5c-5.33301 -17.333 -8 -31 -8 -41c0 -12.667 3.33301 -26.167 10 -40.5s15.167 -27.5 25.5 -39.5s21.666 -22 33.999 -30s24.166 -12 35.499 -12h89z" />
    <glyph glyph-name="FL0153h" unicode="&#x153;" horiz-adv-x="1055" 
d="M127 243l0.00292969 2.00293c0 32 7 65 21 99s33 64.667 57 92s51.667 49.833 83 67.5s64.666 26.5 99.999 26.5h833c-4.66699 -9.33301 -12.5 -21.5 -23.5 -36.5s-22.667 -29.833 -35 -44.5s-24.333 -27.334 -36 -38.001s-20.167 -16 -25.5 -16h-308l-57 -157l95 92h231
l-143 -135h-199l-22 -60h383c-0.666992 -1.33301 -2.33398 -4.16602 -5.00098 -8.49902l-8 -13.5c-2.66699 -4.66699 -5.33398 -9 -8.00098 -13s-4.33398 -6.33301 -5.00098 -7c-6 -8 -14.167 -17.333 -24.5 -28l-30.5 -30.5c-10 -9.66699 -18.833 -17.834 -26.5 -24.501
s-11.834 -10 -12.501 -10h-503c-41.333 0 -81.666 3.66699 -120.999 11s-74.666 20.166 -105.999 38.499s-56.5 43.166 -75.5 74.499s-28.5 71 -28.5 119zM602.003 395.003h-183.998c-10.667 0 -21 -2.83301 -31 -8.5s-19.167 -13.167 -27.5 -22.5
s-15.833 -19.833 -22.5 -31.5s-12 -23.167 -16 -34.5c-5.33301 -17.333 -8 -31 -8 -41c0 -12.667 3.33301 -26.167 10 -40.5s15.167 -27.5 25.5 -39.5s21.666 -22 33.999 -30s24.166 -12 35.499 -12h89z" />
    <glyph glyph-name="FL0160h" unicode="&#x160;" horiz-adv-x="660" 
d="M503 168l-0.000976562 6.00293c0 5.33301 -1 10.833 -3 16.5s-5.66699 8.5 -11 8.5h-200c-20 0 -38 4.83301 -54 14.5s-29.833 22 -41.5 37s-20.5 31.5 -26.5 49.5s-9 35.667 -9 53c0 16 4.66699 34.167 14 54.5s21.333 39.666 36 57.999s31.334 33.666 50.001 45.999
s37.334 18.5 56.001 18.5h510c-15.333 -22.667 -32.833 -45.334 -52.5 -68.001s-41.5 -45.334 -65.5 -68.001h-330c-7.33301 0 -13.666 -5 -18.999 -15s-8 -18 -8 -24v-5c0 -0.666992 1.33301 -2.16699 4 -4.5s4.66699 -4.16602 6 -5.49902
c2.66699 -2.66699 6.5 -5.16699 11.5 -7.5s7.83301 -3.5 8.5 -3.5h190c19.333 0 36.5 -5.33301 51.5 -16s27.667 -23.834 38 -39.501s18.166 -32.667 23.499 -51s8 -35.166 8 -50.499v-4c0 -17.333 -4 -35.833 -12 -55.5s-18.5 -37.834 -31.5 -54.501s-28 -30.5 -45 -41.5
s-34.5 -16.5 -52.5 -16.5h-510c3.33301 6.66699 10.166 17.334 20.499 32.001s21.333 29.5 33 44.5s22.5 28.333 32.5 40s16 17.5 18 17.5h340c10 0 15.833 3 17.5 9s2.5 12.333 2.5 19v6zM547.999 649.003l58.998 59h91l-108 -105l-10.5 -7.5
c-4.33301 -3 -8.16602 -4.5 -11.499 -4.5h-62c-5.33301 0 -10.166 2.83301 -14.499 8.5l-11.5 14.5l-46 94h82z" />
    <glyph glyph-name="FL0161h" unicode="&#x161;" horiz-adv-x="660" 
d="M503 168l-0.000976562 6.00293c0 5.33301 -1 10.833 -3 16.5s-5.66699 8.5 -11 8.5h-200c-20 0 -38 4.83301 -54 14.5s-29.833 22 -41.5 37s-20.5 31.5 -26.5 49.5s-9 35.667 -9 53c0 16 4.66699 34.167 14 54.5s21.333 39.666 36 57.999s31.334 33.666 50.001 45.999
s37.334 18.5 56.001 18.5h510c-15.333 -22.667 -32.833 -45.334 -52.5 -68.001s-41.5 -45.334 -65.5 -68.001h-330c-7.33301 0 -13.666 -5 -18.999 -15s-8 -18 -8 -24v-5c0 -0.666992 1.33301 -2.16699 4 -4.5s4.66699 -4.16602 6 -5.49902
c2.66699 -2.66699 6.5 -5.16699 11.5 -7.5s7.83301 -3.5 8.5 -3.5h190c19.333 0 36.5 -5.33301 51.5 -16s27.667 -23.834 38 -39.501s18.166 -32.667 23.499 -51s8 -35.166 8 -50.499v-4c0 -17.333 -4 -35.833 -12 -55.5s-18.5 -37.834 -31.5 -54.501s-28 -30.5 -45 -41.5
s-34.5 -16.5 -52.5 -16.5h-510c3.33301 6.66699 10.166 17.334 20.499 32.001s21.333 29.5 33 44.5s22.5 28.333 32.5 40s16 17.5 18 17.5h340c10 0 15.833 3 17.5 9s2.5 12.333 2.5 19v6zM547.999 649.003l58.998 59h91l-108 -105l-10.5 -7.5
c-4.33301 -3 -8.16602 -4.5 -11.499 -4.5h-62c-5.33301 0 -10.166 2.83301 -14.499 8.5l-11.5 14.5l-46 94h82z" />
    <glyph glyph-name="FL0178h" unicode="&#x178;" horiz-adv-x="656" 
d="M324 252l-113 278h214l50 -125l142 125h214l-315 -278l-92 -252h-192zM414 652c6 16.667 17.167 30.667 33.5 42s33.5 17 51.5 17s31 -5.66699 39 -17s9 -25.333 3 -42s-17.167 -30.667 -33.5 -42s-33.5 -17 -51.5 -17s-31 5.66699 -39 17s-9 25.333 -3 42zM722 652
c-6 -16.667 -17 -30.667 -33 -42s-33 -17 -51 -17s-31.167 5.66699 -39.5 17s-9.5 25.333 -3.5 42s17.333 30.667 34 42s34 17 52 17s30.833 -5.66699 38.5 -17s8.5 -25.333 2.5 -42z" />
    <glyph glyph-name="FL017Dh" unicode="&#x17d;" horiz-adv-x="616" 
d="M522 0h-499l413 395h-269v1c0.666992 2.66699 5.5 10 14.5 22s19.667 25.333 32 40s25 28.834 38 42.501s24.167 23.5 33.5 29.5h501l-413 -395h269c-4.66699 -9.33301 -12.5 -21.5 -23.5 -36.5s-22.667 -29.833 -35 -44.5s-24.333 -27.334 -36 -38.001
s-20.167 -16 -25.5 -16zM548 649l58.998 59h91l-108 -105l-10.5 -7.5c-4.33301 -3 -8.16602 -4.5 -11.499 -4.5h-62c-5.33301 0 -10.166 2.83301 -14.499 8.5l-11.5 14.5l-46 94h82z" />
    <glyph glyph-name="FL017Eh" unicode="&#x17e;" horiz-adv-x="616" 
d="M522 0h-499l413 395h-269v1c0.666992 2.66699 5.5 10 14.5 22s19.667 25.333 32 40s25 28.834 38 42.501s24.167 23.5 33.5 29.5h501l-413 -395h269c-4.66699 -9.33301 -12.5 -21.5 -23.5 -36.5s-22.667 -29.833 -35 -44.5s-24.333 -27.334 -36 -38.001
s-20.167 -16 -25.5 -16zM548 649l58.998 59h91l-108 -105l-10.5 -7.5c-4.33301 -3 -8.16602 -4.5 -11.499 -4.5h-62c-5.33301 0 -10.166 2.83301 -14.499 8.5l-11.5 14.5l-46 94h82z" />
    <glyph glyph-name="FL00B6h" unicode="&#x192;" horiz-adv-x="876" 
d="M953 291l-1.99805 -1.99902l-19 -26h-49l14 -48c0.666992 -0.666992 0.666992 -3 0 -7l-2 -5c-5.33301 -13.333 -14.333 -22 -27 -26l-49 12l-33 -73c-6 -9.33301 -14.667 -14 -26 -14c-8 0 -15.333 2.16699 -22 6.5s-14.667 10.166 -24 17.499l-78 -67l-29 -6l-19 37
l-125 -61l-15 6l13 37l-144 -24l-12 11l17 31l-136 13l9 23l24 21l-80 18c-11.333 0 -14 8 -8 24l45 31l-48 32l5 30l63 12l-16 44l18 37l62 -7c20.667 58.667 39.667 88 57 88h2l52 -25c21.333 20.667 39.166 37 53.499 49s27.166 20.333 38.499 25l34 -37l119 56l15 -19
l-13 -19l4 -6l117 25l36 -6l-19 -37h128l7 -13c-8 -21.333 -19.333 -33 -34 -35l97 -33l-1 -3l-2 -4c-6.66699 -20 -24 -32 -52 -36c40 -20 58 -35.667 54 -47zM933.002 282.001l-1 12l-69 51l61 17h6l-2 13l-112 31l56 37h-146l27 43l-150 -24l9 37l-8 6l-120 -56l-28 37
l-84 -72c-4.66699 -2.66699 -10 -4 -16 -4c-11.333 0 -26 9 -44 27l-41 -87l-68 7l-4 -26l18 -55l-72 -6l72 -55l-71 -31l118 -33l-57 -35l149 -7l-32 -43l146 31l8 -25l-14 -24l131 61l35 -37l81 75l61 -26l37 87l66 -14l4 8c4 11.333 -2 36 -18 74zM844.002 326.001
l-41 -80l-15 3l34 83zM793.002 212.001l-21 -18l-7 14l15 10zM754.002 218.001c-14.667 0 -27.333 18 -38 54l-20 -54l-15 -1l39 109l28 -70l32 76l14 -6zM664.003 218.001l-10.001 5c-1.33301 17.333 -5.66602 26 -12.999 26c-8.66699 0 -20 -8.66699 -34 -26h-20
c9.33301 18.667 20.5 37 33.5 55s28.167 35.667 45.5 53c2.66699 2 7.66699 3 15 3c12 0 16 -11.333 12 -34zM617.002 332.001l-44 -107l-26 -8l49 110zM528.002 214.001c-16 0 -29 17.333 -39 52l-19 -51l-16 -3l38 110l30 -70l30 75l15 -5zM471.002 290.001
c-26.667 -50.667 -48.667 -76 -66 -76c-3.33301 -0.666992 -6.33301 -1.16699 -9 -1.5s-5 -0.5 -7 -0.5c-18.667 0 -27.334 6 -26.001 18c16.667 48.667 40.334 80.667 71.001 96h4h6c20 0 29 -12 27 -36zM392.002 330.001l-12.001 -27.001c-3.33301 2 -6.33301 3 -9 3
c-8 0 -18.333 -5.33301 -31 -16c-14.667 -14 -24.667 -28.667 -30 -44c-6 -14 -2 -21 12 -21c3.33301 0 6.5 0.166992 9.5 0.5s6.16699 0.833008 9.5 1.5l-5 -18c-13.333 -3.33301 -20.666 -5 -21.999 -5c-18.667 0 -25 16 -19 48c-0.666992 0.666992 0 3.33398 2 8.00098
l2 6c12 34.667 43 56 93 64zM311.001 327l-44 -107l-25 -8l51 111zM666.001 272l2 37l-32 -37h30zM446.001 275c2 6.66699 2.33398 10.667 1.00098 12c0 10 -4 15 -12 15c-10.667 0 -24.334 -12 -41.001 -36l-3 -7c-6 -17.333 -3.66699 -26 7 -26c4.66699 0 14 3 28 9
c10 12.667 16.667 23.667 20 33z" />
    <glyph glyph-name="FL02C6h" unicode="&#x2c6;" horiz-adv-x="301" 
d="M319 472l-58.998 -59h-91l108 105l10.5 7.5c4.33301 3 8.16602 4.5 11.499 4.5h62c5.33301 0 10.166 -2.83301 14.499 -8.5l11.5 -14.5l46 -94h-82z" />
    <glyph glyph-name="FL02DCh" unicode="&#x2dc;" horiz-adv-x="389" 
d="M413 471l58.999 59h91l-2 -2l-12 -12l-31.5 -31l-61.5 -60c-3.33301 -2 -7.16602 -4.5 -11.499 -7.5s-8.16602 -4.5 -11.499 -4.5h-82l-32 59l-59 -59h-91l108 105l10.5 7.5c4.33301 3 8.16602 4.5 11.499 4.5h82z" />
    <glyph glyph-name="FL2013h" unicode="&#x2013;" horiz-adv-x="361" 
d="M320 195l143 135h-231l-143 -135h231z" />
    <glyph glyph-name="FL2014h" unicode="&#x2014;" horiz-adv-x="432" 
d="M391 195l143 135h-302l-143 -135h302z" />
    <glyph glyph-name="FL2018h" unicode="&#x2018;" horiz-adv-x="181" 
d="M312 440l-12.9961 -36.999c-6.66699 -17.333 -18.334 -32.333 -35.001 -45s-33.667 -19 -51 -19c-18 0 -30.667 6.33301 -38 19s-7.66602 27.667 -0.999023 45l13 37c3.33301 8.66699 9.16602 18.167 17.499 28.5s17.166 20 26.499 29s18.5 16.667 27.5 23
s16.167 9.5 21.5 9.5h8c8 0 13.833 -3.33301 17.5 -10s6.16699 -14.834 7.5 -24.501s1.66602 -19.667 0.999023 -30s-1.33398 -18.833 -2.00098 -25.5z" />
    <glyph glyph-name="FL2019h" unicode="&#x2019;" horiz-adv-x="181" 
d="M185 430l12.9971 36.999c6.66699 17.333 18.167 32.333 34.5 45s33.166 19 50.499 19c18 0 30.833 -6.33301 38.5 -19s8.16699 -27.667 1.5 -45l-13 -37c-3.33301 -8.66699 -9.16602 -18.167 -17.499 -28.5s-17.166 -20 -26.499 -29s-18.666 -16.667 -27.999 -23
s-16.333 -9.5 -21 -9.5h-8c-8 0 -14 3.33301 -18 10s-6.66699 14.834 -8 24.501s-1.66602 19.5 -0.999023 29.5s1.66699 18.667 3 26z" />
    <glyph glyph-name="FL201Ah" unicode="&#x201a;" horiz-adv-x="208" 
d="M38 28l14.998 42.001c8 19.333 21.667 36 41 50s39.666 21 60.999 21s36.833 -7 46.5 -21s10.834 -30.667 3.50098 -50l-15 -42c-3.33301 -9.33301 -9.66602 -19.833 -18.999 -31.5s-19.666 -22.5 -30.999 -32.5s-22.5 -18.5 -33.5 -25.5s-19.5 -10.5 -25.5 -10.5h-9
c-10 0 -17.5 3.83301 -22.5 11.5s-8.5 16.667 -10.5 27s-2.83301 21.166 -2.5 32.499s0.833008 21 1.5 29z" />
    <glyph glyph-name="FL201Eh" unicode="&#x201c;" horiz-adv-x="326" 
d="M313 440l-12.9961 -36.999c-6.66699 -17.333 -18.334 -32.333 -35.001 -45s-33.667 -19 -51 -19c-18 0 -30.667 6.33301 -38 19s-7.66602 27.667 -0.999023 45l13 37c3.33301 8.66699 9.16602 18.167 17.499 28.5s17.166 20 26.499 29s18.5 16.667 27.5 23
s16.167 9.5 21.5 9.5h8c8 0 13.833 -3.33301 17.5 -10s6.16699 -14.834 7.5 -24.501s1.66602 -19.667 0.999023 -30s-1.33398 -18.833 -2.00098 -25.5zM458.004 440.001l-12.9961 -36.999c-6.66699 -17.333 -18.334 -32.333 -35.001 -45s-33.667 -19 -51 -19
c-18 0 -30.667 6.33301 -38 19s-7.66602 27.667 -0.999023 45l13 37c3.33301 8.66699 9.16602 18.167 17.499 28.5s17.166 20 26.499 29s18.5 16.667 27.5 23s16.167 9.5 21.5 9.5h8c8 0 13.833 -3.33301 17.5 -10s6.16699 -14.834 7.5 -24.501
s1.66602 -19.667 0.999023 -30s-1.33398 -18.833 -2.00098 -25.5z" />
    <glyph glyph-name="FL201Dh" unicode="&#x201d;" horiz-adv-x="326" 
d="M330 430l12.9971 36.999c6.66699 17.333 18.167 32.333 34.5 45s33.166 19 50.499 19c18 0 30.833 -6.33301 38.5 -19s8.16699 -27.667 1.5 -45l-13 -37c-3.33301 -8.66699 -9.16602 -18.167 -17.499 -28.5s-17.166 -20 -26.499 -29s-18.666 -16.667 -27.999 -23
s-16.333 -9.5 -21 -9.5h-8c-8 0 -14 3.33301 -18 10s-6.66699 14.834 -8 24.501s-1.66602 19.5 -0.999023 29.5s1.66699 18.667 3 26zM184.997 429.999l12.9971 36.999c6.66699 17.333 18.167 32.333 34.5 45s33.166 19 50.499 19c18 0 30.833 -6.33301 38.5 -19
s8.16699 -27.667 1.5 -45l-13 -37c-3.33301 -8.66699 -9.16602 -18.167 -17.499 -28.5s-17.166 -20 -26.499 -29s-18.666 -16.667 -27.999 -23s-16.333 -9.5 -21 -9.5h-8c-8 0 -14 3.33301 -18 10s-6.66699 14.834 -8 24.501s-1.66602 19.5 -0.999023 29.5
s1.66699 18.667 3 26z" />
    <glyph glyph-name="FL201Fh" unicode="&#x201e;" horiz-adv-x="381" 
d="M211 28l14.998 42.001c8 19.333 21.667 36 41 50s39.666 21 60.999 21s36.833 -7 46.5 -21s10.834 -30.667 3.50098 -50l-15 -42c-3.33301 -9.33301 -9.66602 -19.833 -18.999 -31.5s-19.666 -22.5 -30.999 -32.5s-22.5 -18.5 -33.5 -25.5s-19.5 -10.5 -25.5 -10.5h-9
c-10 0 -17.5 3.83301 -22.5 11.5s-8.5 16.667 -10.5 27s-2.83301 21.166 -2.5 32.499s0.833008 21 1.5 29zM37.998 28.001l14.998 42.001c8 19.333 21.667 36 41 50s39.666 21 60.999 21s36.833 -7 46.5 -21s10.834 -30.667 3.50098 -50l-15 -42
c-3.33301 -9.33301 -9.66602 -19.833 -18.999 -31.5s-19.666 -22.5 -30.999 -32.5s-22.5 -18.5 -33.5 -25.5s-19.5 -10.5 -25.5 -10.5h-9c-10 0 -17.5 3.83301 -22.5 11.5s-8.5 16.667 -10.5 27s-2.83301 21.166 -2.5 32.499s0.833008 21 1.5 29z" />
    <glyph glyph-name="FL2020h" unicode="&#x2020;" horiz-adv-x="432" 
d="M121 0l105 289h-102l143 135h8l39 106h192l-39 -106h102l-143 -135h-8l-105 -289h-192z" />
    <glyph glyph-name="FL2021h" unicode="&#x2021;" horiz-adv-x="432" 
d="M121 0l37 102h-102l143 135h8l19 52h-102l143 135h8l39 106h192l-39 -106h102l-143 -135h-8l-19 -52h102l-143 -135h-8l-37 -102h-192z" />
    <glyph glyph-name="FL2023h" unicode="&#x2022;" horiz-adv-x="356" 
d="M124 257c0.666992 5.33301 2.33301 11.501 5 18.501l9 22.5c6 11.333 14.167 22.833 24.5 34.5s21.5 22.167 33.5 31.5s24.167 16.833 36.5 22.5s23.833 8.5 34.5 8.5h81c15.333 0 28.166 -2.33301 38.499 -7s18.5 -10.834 24.5 -18.501s10.333 -16.334 13 -26.001
s4 -19.834 4 -30.501c0 -7.33301 -0.166992 -14.166 -0.5 -20.499s-0.833008 -12.833 -1.5 -19.5c0 0.666992 -0.666992 -2.33301 -2 -9l-4 -10c-1.33301 -5.33301 -5 -12.666 -11 -21.999c-6 -11.333 -14.833 -22.833 -26.5 -34.5s-24 -22.167 -37 -31.5
s-25.667 -16.833 -38 -22.5s-22.5 -8.5 -30.5 -8.5h-66c-13.333 0 -25.666 4 -36.999 12s-21 18 -29 30s-14 25.167 -18 39.5s-5 27.833 -3 40.5z" />
    <glyph glyph-name="FL2026h" unicode="&#x2026;" horiz-adv-x="561" 
d="M406 70c-7.33301 -19.333 -6.00098 -35.832 3.99902 -49.499s25.667 -20.5 47 -20.5c10.667 0 21.334 1.83301 32.001 5.5s20.5 8.66699 29.5 15s17 13.666 24 21.999s12.167 17.5 15.5 27.5c7.33301 19.333 6.16602 36 -3.50098 50s-25.167 21 -46.5 21
s-41.666 -7 -60.999 -21s-33 -30.667 -41 -50zM227.999 70.001c-7.33301 -19.333 -6.00098 -35.832 3.99902 -49.499s25.667 -20.5 47 -20.5c10.667 0 21.334 1.83301 32.001 5.5s20.5 8.66699 29.5 15s17 13.666 24 21.999s12.167 17.5 15.5 27.5
c7.33301 19.333 6.16602 36 -3.50098 50s-25.167 21 -46.5 21s-41.666 -7 -60.999 -21s-33 -30.667 -41 -50zM52.998 70.002c-7.33301 -19.333 -6.00098 -35.832 3.99902 -49.499s25.667 -20.5 47 -20.5c10.667 0 21.334 1.83301 32.001 5.5s20.5 8.66699 29.5 15
s17 13.666 24 21.999s12.167 17.5 15.5 27.5c7.33301 19.333 6.16602 36 -3.50098 50s-25.167 21 -46.5 21s-41.666 -7 -60.999 -21s-33 -30.667 -41 -50z" />
    <glyph glyph-name="FL2030h" unicode="&#x2030;" horiz-adv-x="1138" 
d="M85 0h171l643 530h-173zM511 408c4 22 3.83203 40.667 -0.500977 56s-11.833 28 -22.5 38s-24.334 17.167 -41.001 21.5s-35 6.5 -55 6.5h-66c-15.333 0 -30.666 -3.5 -45.999 -10.5s-29.833 -16.167 -43.5 -27.5s-25.667 -24.166 -36 -38.499
s-18.166 -28.833 -23.499 -43.5c-3.33301 -8 -5.33301 -16 -6 -24c-3.33301 -24 -2.5 -43.833 2.5 -59.5s13.333 -28 25 -37s26 -15.333 43 -19s35.5 -5.5 55.5 -5.5h50c17.333 0 34.333 3.5 51 10.5s32 16.167 46 27.5s26.333 24.166 37 38.499s18.667 28.833 24 43.5l4 11
c1.33301 5.33301 2 9.33301 2 12zM280.999 397l6.00098 15.999c5.33301 9.33301 12.833 18 22.5 26s18.834 12 27.501 12h30c12 0 20.333 -3.16699 25 -9.5s7 -14.166 7 -23.499c0 -8 -0.333008 -13 -1 -15l-3 -7c-0.666992 -2 -1.33398 -3.66699 -2.00098 -5l-2 -4
c-2.66699 -4.66699 -6.33398 -9.33398 -11.001 -14.001s-9.5 -8.66699 -14.5 -12s-9.83301 -6.16602 -14.5 -8.49902s-8.33398 -3.5 -11.001 -3.5h-26c-9.33301 0 -17.666 5.5 -24.999 16.5s-10 21.5 -8 31.5zM815 142.999c7.33301 44 -0.670898 75.333 -24.0039 94
s-55.333 28 -96 28h-66c-15.333 0 -30.666 -3.5 -45.999 -10.5s-29.666 -16.167 -42.999 -27.5s-25.166 -24.166 -35.499 -38.499s-18.166 -28.833 -23.499 -43.5c-3.33301 -8 -5.33301 -16 -6 -24c-3.33301 -24 -2.5 -43.833 2.5 -59.5s13.333 -28 25 -37
s26 -15.333 43 -19s35.5 -5.5 55.5 -5.5h50c17.333 0 34.333 3.5 51 10.5s32 16.167 46 27.5s26.333 24.166 37 38.499s18.667 28.833 24 43.5l4 11c0.666992 3.33301 1.16699 6 1.5 8s0.5 3.33301 0.5 4zM584.996 131.999l5.99902 15.999
c5.33301 9.33301 12.833 18 22.5 26s18.834 12 27.501 12h30c12.667 0 21 -3.16699 25 -9.5s6 -14.166 6 -23.499c0 -8 -0.333008 -13 -1 -15l-2 -7c-0.666992 -2.66699 -2.33398 -5.66699 -5.00098 -9c-5.33301 -9.33301 -13.5 -18 -24.5 -26s-19.5 -12 -25.5 -12h-26
c-9.33301 0 -17.666 5.5 -24.999 16.5s-10 21.5 -8 31.5zM1160 142.998c7.33301 44 -0.670898 75.333 -24.0039 94s-55.333 28 -96 28h-66c-15.333 0 -30.666 -3.5 -45.999 -10.5s-29.666 -16.167 -42.999 -27.5s-25.166 -24.166 -35.499 -38.499
s-18.166 -28.833 -23.499 -43.5c-3.33301 -8 -5.33301 -16 -6 -24c-3.33301 -24 -2.5 -43.833 2.5 -59.5s13.333 -28 25 -37s26 -15.333 43 -19s35.5 -5.5 55.5 -5.5h50c17.333 0 34.333 3.5 51 10.5s32 16.167 46 27.5s26.333 24.166 37 38.499s18.667 28.833 24 43.5l4 11
c0.666992 3.33301 1.16699 6 1.5 8s0.5 3.33301 0.5 4zM929.991 131.998l5.99902 15.999c5.33301 9.33301 12.833 18 22.5 26s18.834 12 27.501 12h30c12.667 0 21 -3.16699 25 -9.5s6 -14.166 6 -23.499c0 -8 -0.333008 -13 -1 -15l-2 -7
c-0.666992 -2.66699 -2.33398 -5.66699 -5.00098 -9c-5.33301 -9.33301 -13.5 -18 -24.5 -26s-19.5 -12 -25.5 -12h-26c-9.33301 0 -17.666 5.5 -24.999 16.5s-10 21.5 -8 31.5z" />
    <glyph glyph-name="FL2039h" unicode="&#x2039;" horiz-adv-x="173" 
d="M185 273l46 -36.999l-33 -91l-80 69c-1.33301 2 -3 4.66699 -5 8s-2.33301 6.66602 -1 9.99902l23 62c2 5.33301 7 11.333 15 18s14.667 12 20 16l124 81l-30 -82z" />
    <glyph glyph-name="FL203Ah" unicode="&#x203a;" horiz-adv-x="173" 
d="M188 279l-46.001 36.999l33 91h1v1l79 -70c1.33301 -2 2.83301 -4.66699 4.5 -8s1.83398 -6.66602 0.500977 -9.99902l-22 -62c-2 -5.33301 -7 -11.333 -15 -18s-14.667 -12 -20 -16l-124 -81l30 82z" />
    <glyph glyph-name="FL20ACh" unicode="&#x20ac;" horiz-adv-x="740" 
d="M493 164h-23.002c17.333 -19.333 36.333 -29 57 -29h239c-15.333 -22.667 -32.666 -45.834 -51.999 -69.501s-41.666 -45.5 -66.999 -65.5h-80c-34.667 0 -69 2.5 -103 7.5s-65.5 13.833 -94.5 26.5s-54.167 29.5 -75.5 50.5s-36.666 47.5 -45.999 79.5h-170l125 80h33
l2 30h-120l125 80h19c10.667 23.333 24.167 45.666 40.5 66.999s34.666 40 54.999 56s42.333 28.833 66 38.5s48.167 14.5 73.5 14.5h413c-19.333 -25.333 -38.833 -49.166 -58.5 -71.499s-41.167 -43.5 -64.5 -63.5h-260c-12.667 0 -24.667 -4 -36 -12
s-21.333 -17.667 -30 -29h197l-125 -80h-110l-2 -23c0 0.666992 0.666992 -1.66602 2 -6.99902h195z" />
    <glyph glyph-name=".null" horiz-adv-x="0" 
 />
    <glyph glyph-name="nonmarkingreturn" horiz-adv-x="500" 
 />
    </font>
</defs>
</svg>
